<svg width="1000" height="300" xmlns="http://www.w3.org/2000/svg" xmlns:xlink="http://www.w3.org/1999/xlink" version="1.1" baseProfile="full" viewBox="0 0 1000 300">
<rect width="1000" height="300" x="0" y="0" id="0" fill="#ffffff"></rect>
<path d="M68.2 271.5L921.8 271.5" fill="none" stroke="#E0E6F1"></path>
<path d="M68.2 227.5L921.8 227.5" fill="none" stroke="#E0E6F1"></path>
<path d="M68.2 182.5L921.8 182.5" fill="none" stroke="#E0E6F1"></path>
<path d="M68.2 138.5L921.8 138.5" fill="none" stroke="#E0E6F1"></path>
<path d="M68.2 94.5L921.8 94.5" fill="none" stroke="#E0E6F1"></path>
<path d="M68.2 60.5L921.8 60.5" fill="none" stroke="#E0E6F1"></path>
<path d="M68.2 271.5L921.8 271.5" fill="none" stroke="#6E7079" stroke-linecap="round"></path>
<path d="M70.5 271L70.5 276" fill="none" stroke="#6E7079"></path>
<path d="M120.5 271L120.5 276" fill="none" stroke="#6E7079"></path>
<path d="M170.5 271L170.5 276" fill="none" stroke="#6E7079"></path>
<path d="M221.5 271L221.5 276" fill="none" stroke="#6E7079"></path>
<path d="M271.5 271L271.5 276" fill="none" stroke="#6E7079"></path>
<path d="M321.5 271L321.5 276" fill="none" stroke="#6E7079"></path>
<path d="M371.5 271L371.5 276" fill="none" stroke="#6E7079"></path>
<path d="M422.5 271L422.5 276" fill="none" stroke="#6E7079"></path>
<path d="M472.5 271L472.5 276" fill="none" stroke="#6E7079"></path>
<path d="M522.5 271L522.5 276" fill="none" stroke="#6E7079"></path>
<path d="M572.5 271L572.5 276" fill="none" stroke="#6E7079"></path>
<path d="M622.5 271L622.5 276" fill="none" stroke="#6E7079"></path>
<path d="M673.5 271L673.5 276" fill="none" stroke="#6E7079"></path>
<path d="M723.5 271L723.5 276" fill="none" stroke="#6E7079"></path>
<path d="M773.5 271L773.5 276" fill="none" stroke="#6E7079"></path>
<path d="M823.5 271L823.5 276" fill="none" stroke="#6E7079"></path>
<path d="M873.5 271L873.5 276" fill="none" stroke="#6E7079"></path>
<text dominant-baseline="central" text-anchor="end" style="font-size:12px;font-family:sans-serif;" transform="translate(60.24 271)" fill="#6E7079">0</text>
<text dominant-baseline="central" text-anchor="end" style="font-size:12px;font-family:sans-serif;" transform="translate(60.24 226.7581)" fill="#6E7079">390</text>
<text dominant-baseline="central" text-anchor="end" style="font-size:12px;font-family:sans-serif;" transform="translate(60.24 182.5161)" fill="#6E7079">780</text>
<text dominant-baseline="central" text-anchor="end" style="font-size:12px;font-family:sans-serif;" transform="translate(60.24 138.2742)" fill="#6E7079">1,170</text>
<text dominant-baseline="central" text-anchor="end" style="font-size:12px;font-family:sans-serif;" transform="translate(60.24 94.0323)" fill="#6E7079">1,560</text>
<text dominant-baseline="central" text-anchor="end" style="font-size:12px;font-family:sans-serif;" transform="translate(60.24 60)" fill="#6E7079">1,860</text>
<text dominant-baseline="central" text-anchor="start" style="font-size:12px;font-family:sans-serif;" transform="translate(929.76 271)" fill="#6E7079">0</text>
<text dominant-baseline="central" text-anchor="start" style="font-size:12px;font-family:sans-serif;" transform="translate(929.76 226.7581)" fill="#6E7079">390</text>
<text dominant-baseline="central" text-anchor="start" style="font-size:12px;font-family:sans-serif;" transform="translate(929.76 182.5161)" fill="#6E7079">780</text>
<text dominant-baseline="central" text-anchor="start" style="font-size:12px;font-family:sans-serif;" transform="translate(929.76 138.2742)" fill="#6E7079">1,170</text>
<text dominant-baseline="central" text-anchor="start" style="font-size:12px;font-family:sans-serif;" transform="translate(929.76 94.0323)" fill="#6E7079">1,560</text>
<text dominant-baseline="central" text-anchor="start" style="font-size:12px;font-family:sans-serif;" transform="translate(929.76 60)" fill="#6E7079">1,860</text>
<text dominant-baseline="central" text-anchor="middle" style="font-size:12px;font-family:sans-serif;" y="6" transform="translate(70.332 279)" fill="#6E7079">1km</text>
<text dominant-baseline="central" text-anchor="middle" style="font-size:12px;font-family:sans-serif;" y="6" transform="translate(120.539 279)" fill="#6E7079">13km</text>
<text dominant-baseline="central" text-anchor="middle" style="font-size:12px;font-family:sans-serif;" y="6" transform="translate(170.7461 279)" fill="#6E7079">25km</text>
<text dominant-baseline="central" text-anchor="middle" style="font-size:12px;font-family:sans-serif;" y="6" transform="translate(220.9531 279)" fill="#6E7079">37km</text>
<text dominant-baseline="central" text-anchor="middle" style="font-size:12px;font-family:sans-serif;" y="6" transform="translate(271.1602 279)" fill="#6E7079">49km</text>
<text dominant-baseline="central" text-anchor="middle" style="font-size:12px;font-family:sans-serif;" y="6" transform="translate(321.3673 279)" fill="#6E7079">61km</text>
<text dominant-baseline="central" text-anchor="middle" style="font-size:12px;font-family:sans-serif;" y="6" transform="translate(371.5743 279)" fill="#6E7079">73km</text>
<text dominant-baseline="central" text-anchor="middle" style="font-size:12px;font-family:sans-serif;" y="6" transform="translate(421.7814 279)" fill="#6E7079">85km</text>
<text dominant-baseline="central" text-anchor="middle" style="font-size:12px;font-family:sans-serif;" y="6" transform="translate(471.9884 279)" fill="#6E7079">97km</text>
<text dominant-baseline="central" text-anchor="middle" style="font-size:12px;font-family:sans-serif;" y="6" transform="translate(522.1955 279)" fill="#6E7079">109km</text>
<text dominant-baseline="central" text-anchor="middle" style="font-size:12px;font-family:sans-serif;" y="6" transform="translate(572.4025 279)" fill="#6E7079">121km</text>
<text dominant-baseline="central" text-anchor="middle" style="font-size:12px;font-family:sans-serif;" y="6" transform="translate(622.6096 279)" fill="#6E7079">133km</text>
<text dominant-baseline="central" text-anchor="middle" style="font-size:12px;font-family:sans-serif;" y="6" transform="translate(672.8167 279)" fill="#6E7079">145km</text>
<text dominant-baseline="central" text-anchor="middle" style="font-size:12px;font-family:sans-serif;" y="6" transform="translate(723.0237 279)" fill="#6E7079">157km</text>
<text dominant-baseline="central" text-anchor="middle" style="font-size:12px;font-family:sans-serif;" y="6" transform="translate(773.2308 279)" fill="#6E7079">169km</text>
<text dominant-baseline="central" text-anchor="middle" style="font-size:12px;font-family:sans-serif;" y="6" transform="translate(823.4378 279)" fill="#6E7079">181km</text>
<text dominant-baseline="central" text-anchor="middle" style="font-size:12px;font-family:sans-serif;" y="6" transform="translate(873.6449 279)" fill="#6E7079">193km</text>
<path d="M68.9 271l2.9 0l0 -210.8l-2.9 0Z" fill="rgb(227,73,2)" fill-opacity="0.3"></path>
<path d="M73.1 271l2.9 0l0 -210.2l-2.9 0Z" fill="rgb(227,73,2)" fill-opacity="0.3"></path>
<path d="M77.3 271l2.9 0l0 -209.3l-2.9 0Z" fill="rgb(227,73,2)" fill-opacity="0.3"></path>
<path d="M81.4 271l2.9 0l0 -207.3l-2.9 0Z" fill="rgb(227,73,2)" fill-opacity="0.3"></path>
<path d="M85.6 271l2.9 0l0 -205.7l-2.9 0Z" fill="rgb(227,73,2)" fill-opacity="0.3"></path>
<path d="M89.8 271l2.9 0l0 -202.2l-2.9 0Z" fill="rgb(227,73,2)" fill-opacity="0.3"></path>
<path d="M94 271l2.9 0l0 -197.3l-2.9 0Z" fill="rgb(227,73,2)" fill-opacity="0.3"></path>
<path d="M98.2 271l2.9 0l0 -196.6l-2.9 0Z" fill="rgb(227,73,2)" fill-opacity="0.3"></path>
<path d="M102.4 271l2.9 0l0 -196l-2.9 0Z" fill="rgb(227,73,2)" fill-opacity="0.3"></path>
<path d="M106.5 271l2.9 0l0 -195.1l-2.9 0Z" fill="rgb(227,73,2)" fill-opacity="0.3"></path>
<path d="M110.7 271l2.9 0l0 -194l-2.9 0Z" fill="rgb(227,73,2)" fill-opacity="0.3"></path>
<path d="M114.9 271l2.9 0l0 -193l-2.9 0Z" fill="rgb(227,73,2)" fill-opacity="0.3"></path>
<path d="M119.1 271l2.9 0l0 -173.6l-2.9 0Z" fill="rgb(227,73,2)" fill-opacity="0.3"></path>
<path d="M123.3 271l2.9 0l0 -166.6l-2.9 0Z" fill="rgb(227,73,2)" fill-opacity="0.3"></path>
<path d="M127.5 271l2.9 0l0 -166.1l-2.9 0Z" fill="rgb(227,73,2)" fill-opacity="0.3"></path>
<path d="M131.6 271l2.9 0l0 -164.8l-2.9 0Z" fill="rgb(227,73,2)" fill-opacity="0.3"></path>
<path d="M135.8 271l2.9 0l0 -163.6l-2.9 0Z" fill="rgb(227,73,2)" fill-opacity="0.3"></path>
<path d="M140 271l2.9 0l0 -162.7l-2.9 0Z" fill="rgb(227,73,2)" fill-opacity="0.3"></path>
<path d="M144.2 271l2.9 0l0 -161.8l-2.9 0Z" fill="rgb(227,73,2)" fill-opacity="0.3"></path>
<path d="M148.4 271l2.9 0l0 -161l-2.9 0Z" fill="rgb(227,73,2)" fill-opacity="0.3"></path>
<path d="M152.6 271l2.9 0l0 -160.1l-2.9 0Z" fill="rgb(227,73,2)" fill-opacity="0.3"></path>
<path d="M156.8 271l2.9 0l0 -160l-2.9 0Z" fill="rgb(227,73,2)" fill-opacity="0.3"></path>
<path d="M160.9 271l2.9 0l0 -159.2l-2.9 0Z" fill="rgb(227,73,2)" fill-opacity="0.3"></path>
<path d="M165.1 271l2.9 0l0 -157.7l-2.9 0Z" fill="rgb(227,73,2)" fill-opacity="0.3"></path>
<path d="M169.3 271l2.9 0l0 -156.4l-2.9 0Z" fill="rgb(227,73,2)" fill-opacity="0.3"></path>
<path d="M173.5 271l2.9 0l0 -155.2l-2.9 0Z" fill="rgb(227,73,2)" fill-opacity="0.3"></path>
<path d="M177.7 271l2.9 0l0 -154.3l-2.9 0Z" fill="rgb(227,73,2)" fill-opacity="0.3"></path>
<path d="M181.9 271l2.9 0l0 -152.8l-2.9 0Z" fill="rgb(227,73,2)" fill-opacity="0.3"></path>
<path d="M186 271l2.9 0l0 -152.2l-2.9 0Z" fill="rgb(227,73,2)" fill-opacity="0.3"></path>
<path d="M190.2 271l2.9 0l0 -150.6l-2.9 0Z" fill="rgb(227,73,2)" fill-opacity="0.3"></path>
<path d="M194.4 271l2.9 0l0 -148l-2.9 0Z" fill="rgb(227,73,2)" fill-opacity="0.3"></path>
<path d="M198.6 271l2.9 0l0 -146.2l-2.9 0Z" fill="rgb(227,73,2)" fill-opacity="0.3"></path>
<path d="M202.8 271l2.9 0l0 -142.8l-2.9 0Z" fill="rgb(227,73,2)" fill-opacity="0.3"></path>
<path d="M207 271l2.9 0l0 -140.6l-2.9 0Z" fill="rgb(227,73,2)" fill-opacity="0.3"></path>
<path d="M211.1 271l2.9 0l0 -136.2l-2.9 0Z" fill="rgb(227,73,2)" fill-opacity="0.3"></path>
<path d="M215.3 271l2.9 0l0 -131.8l-2.9 0Z" fill="rgb(227,73,2)" fill-opacity="0.3"></path>
<path d="M219.5 271l2.9 0l0 -129.2l-2.9 0Z" fill="rgb(227,73,2)" fill-opacity="0.3"></path>
<path d="M223.7 271l2.9 0l0 -125.9l-2.9 0Z" fill="rgb(227,73,2)" fill-opacity="0.3"></path>
<path d="M227.9 271l2.9 0l0 -122.7l-2.9 0Z" fill="rgb(227,73,2)" fill-opacity="0.3"></path>
<path d="M232.1 271l2.9 0l0 -120.4l-2.9 0Z" fill="rgb(227,73,2)" fill-opacity="0.3"></path>
<path d="M236.2 271l2.9 0l0 -116.6l-2.9 0Z" fill="rgb(227,73,2)" fill-opacity="0.3"></path>
<path d="M240.4 271l2.9 0l0 -113.7l-2.9 0Z" fill="rgb(227,73,2)" fill-opacity="0.3"></path>
<path d="M244.6 271l2.9 0l0 -109.7l-2.9 0Z" fill="rgb(227,73,2)" fill-opacity="0.3"></path>
<path d="M248.8 271l2.9 0l0 -107.5l-2.9 0Z" fill="rgb(227,73,2)" fill-opacity="0.3"></path>
<path d="M253 271l2.9 0l0 -106l-2.9 0Z" fill="rgb(227,73,2)" fill-opacity="0.3"></path>
<path d="M257.2 271l2.9 0l0 -104.8l-2.9 0Z" fill="rgb(227,73,2)" fill-opacity="0.3"></path>
<path d="M261.3 271l2.9 0l0 -103.1l-2.9 0Z" fill="rgb(227,73,2)" fill-opacity="0.3"></path>
<path d="M265.5 271l2.9 0l0 -102.1l-2.9 0Z" fill="rgb(227,73,2)" fill-opacity="0.3"></path>
<path d="M269.7 271l2.9 0l0 -98.6l-2.9 0Z" fill="rgb(227,73,2)" fill-opacity="0.3"></path>
<path d="M273.9 271l2.9 0l0 -97l-2.9 0Z" fill="rgb(227,73,2)" fill-opacity="0.3"></path>
<path d="M278.1 271l2.9 0l0 -94.4l-2.9 0Z" fill="rgb(227,73,2)" fill-opacity="0.3"></path>
<path d="M282.3 271l2.9 0l0 -93l-2.9 0Z" fill="rgb(227,73,2)" fill-opacity="0.3"></path>
<path d="M286.5 271l2.9 0l0 -91.5l-2.9 0Z" fill="rgb(227,73,2)" fill-opacity="0.3"></path>
<path d="M290.6 271l2.9 0l0 -88.9l-2.9 0Z" fill="rgb(227,73,2)" fill-opacity="0.3"></path>
<path d="M294.8 271l2.9 0l0 -87.1l-2.9 0Z" fill="rgb(227,73,2)" fill-opacity="0.3"></path>
<path d="M299 271l2.9 0l0 -85.5l-2.9 0Z" fill="rgb(227,73,2)" fill-opacity="0.3"></path>
<path d="M303.2 271l2.9 0l0 -84.1l-2.9 0Z" fill="rgb(227,73,2)" fill-opacity="0.3"></path>
<path d="M307.4 271l2.9 0l0 -83.3l-2.9 0Z" fill="rgb(227,73,2)" fill-opacity="0.3"></path>
<path d="M311.6 271l2.9 0l0 -82l-2.9 0Z" fill="rgb(227,73,2)" fill-opacity="0.3"></path>
<path d="M315.7 271l2.9 0l0 -80.2l-2.9 0Z" fill="rgb(227,73,2)" fill-opacity="0.3"></path>
<path d="M319.9 271l2.9 0l0 -79.3l-2.9 0Z" fill="rgb(227,73,2)" fill-opacity="0.3"></path>
<path d="M324.1 271l2.9 0l0 -77.7l-2.9 0Z" fill="rgb(227,73,2)" fill-opacity="0.3"></path>
<path d="M328.3 271l2.9 0l0 -76.9l-2.9 0Z" fill="rgb(227,73,2)" fill-opacity="0.3"></path>
<path d="M332.5 271l2.9 0l0 -75.6l-2.9 0Z" fill="rgb(227,73,2)" fill-opacity="0.3"></path>
<path d="M336.7 271l2.9 0l0 -73.5l-2.9 0Z" fill="rgb(227,73,2)" fill-opacity="0.3"></path>
<path d="M340.8 271l2.9 0l0 -71.7l-2.9 0Z" fill="rgb(227,73,2)" fill-opacity="0.3"></path>
<path d="M345 271l2.9 0l0 -69.7l-2.9 0Z" fill="rgb(227,73,2)" fill-opacity="0.3"></path>
<path d="M349.2 271l2.9 0l0 -67.4l-2.9 0Z" fill="rgb(227,73,2)" fill-opacity="0.3"></path>
<path d="M353.4 271l2.9 0l0 -66.2l-2.9 0Z" fill="rgb(227,73,2)" fill-opacity="0.3"></path>
<path d="M357.6 271l2.9 0l0 -63.8l-2.9 0Z" fill="rgb(227,73,2)" fill-opacity="0.3"></path>
<path d="M361.8 271l2.9 0l0 -61.5l-2.9 0Z" fill="rgb(227,73,2)" fill-opacity="0.3"></path>
<path d="M365.9 271l2.9 0l0 -59.6l-2.9 0Z" fill="rgb(227,73,2)" fill-opacity="0.3"></path>
<path d="M370.1 271l2.9 0l0 -57.6l-2.9 0Z" fill="rgb(227,73,2)" fill-opacity="0.3"></path>
<path d="M374.3 271l2.9 0l0 -56.4l-2.9 0Z" fill="rgb(227,73,2)" fill-opacity="0.3"></path>
<path d="M378.5 271l2.9 0l0 -54.2l-2.9 0Z" fill="rgb(227,73,2)" fill-opacity="0.3"></path>
<path d="M382.7 271l2.9 0l0 -52.5l-2.9 0Z" fill="rgb(227,73,2)" fill-opacity="0.3"></path>
<path d="M386.9 271l2.9 0l0 -51.3l-2.9 0Z" fill="rgb(227,73,2)" fill-opacity="0.3"></path>
<path d="M391.1 271l2.9 0l0 -49.6l-2.9 0Z" fill="rgb(227,73,2)" fill-opacity="0.3"></path>
<path d="M395.2 271l2.9 0l0 -48.6l-2.9 0Z" fill="rgb(227,73,2)" fill-opacity="0.3"></path>
<path d="M399.4 271l2.9 0l0 -47.3l-2.9 0Z" fill="rgb(227,73,2)" fill-opacity="0.3"></path>
<path d="M403.6 271l2.9 0l0 -45.1l-2.9 0Z" fill="rgb(227,73,2)" fill-opacity="0.3"></path>
<path d="M407.8 271l2.9 0l0 -43.9l-2.9 0Z" fill="rgb(227,73,2)" fill-opacity="0.3"></path>
<path d="M412 271l2.9 0l0 -43l-2.9 0Z" fill="rgb(227,73,2)" fill-opacity="0.3"></path>
<path d="M416.2 271l2.9 0l0 -41.4l-2.9 0Z" fill="rgb(227,73,2)" fill-opacity="0.3"></path>
<path d="M420.3 271l2.9 0l0 -40.4l-2.9 0Z" fill="rgb(227,73,2)" fill-opacity="0.3"></path>
<path d="M424.5 271l2.9 0l0 -39.1l-2.9 0Z" fill="rgb(227,73,2)" fill-opacity="0.3"></path>
<path d="M428.7 271l2.9 0l0 -38.1l-2.9 0Z" fill="rgb(227,73,2)" fill-opacity="0.3"></path>
<path d="M432.9 271l2.9 0l0 -36.6l-2.9 0Z" fill="rgb(227,73,2)" fill-opacity="0.3"></path>
<path d="M437.1 271l2.9 0l0 -35.5l-2.9 0Z" fill="rgb(227,73,2)" fill-opacity="0.3"></path>
<path d="M441.3 271l2.9 0l0 -34.1l-2.9 0Z" fill="rgb(227,73,2)" fill-opacity="0.3"></path>
<path d="M445.4 271l2.9 0l0 -32.3l-2.9 0Z" fill="rgb(227,73,2)" fill-opacity="0.3"></path>
<path d="M449.6 271l2.9 0l0 -30.9l-2.9 0Z" fill="rgb(227,73,2)" fill-opacity="0.3"></path>
<path d="M453.8 271l2.9 0l0 -29.6l-2.9 0Z" fill="rgb(227,73,2)" fill-opacity="0.3"></path>
<path d="M458 271l2.9 0l0 -28.4l-2.9 0Z" fill="rgb(227,73,2)" fill-opacity="0.3"></path>
<path d="M462.2 271l2.9 0l0 -27.9l-2.9 0Z" fill="rgb(227,73,2)" fill-opacity="0.3"></path>
<path d="M466.4 271l2.9 0l0 -27.6l-2.9 0Z" fill="rgb(227,73,2)" fill-opacity="0.3"></path>
<path d="M470.5 271l2.9 0l0 -26.8l-2.9 0Z" fill="rgb(227,73,2)" fill-opacity="0.3"></path>
<path d="M474.7 271l2.9 0l0 -26.2l-2.9 0Z" fill="rgb(227,73,2)" fill-opacity="0.3"></path>
<path d="M478.9 271l2.9 0l0 -25.8l-2.9 0Z" fill="rgb(227,73,2)" fill-opacity="0.3"></path>
<path d="M483.1 271l2.9 0l0 -25.3l-2.9 0Z" fill="rgb(227,73,2)" fill-opacity="0.3"></path>
<path d="M487.3 271l2.9 0l0 -24.2l-2.9 0Z" fill="rgb(227,73,2)" fill-opacity="0.3"></path>
<path d="M491.5 271l2.9 0l0 -22.3l-2.9 0Z" fill="rgb(227,73,2)" fill-opacity="0.3"></path>
<path d="M495.6 271l2.9 0l0 -21.8l-2.9 0Z" fill="rgb(227,73,2)" fill-opacity="0.3"></path>
<path d="M499.8 271l2.9 0l0 -20.8l-2.9 0Z" fill="rgb(227,73,2)" fill-opacity="0.3"></path>
<path d="M504 271l2.9 0l0 -19.9l-2.9 0Z" fill="rgb(227,73,2)" fill-opacity="0.3"></path>
<path d="M508.2 271l2.9 0l0 -19.3l-2.9 0Z" fill="rgb(227,73,2)" fill-opacity="0.3"></path>
<path d="M512.4 271l2.9 0l0 -18.7l-2.9 0Z" fill="rgb(227,73,2)" fill-opacity="0.3"></path>
<path d="M516.6 271l2.9 0l0 -18.4l-2.9 0Z" fill="rgb(227,73,2)" fill-opacity="0.3"></path>
<path d="M520.8 271l2.9 0l0 -17.6l-2.9 0Z" fill="rgb(227,73,2)" fill-opacity="0.3"></path>
<path d="M524.9 271l2.9 0l0 -17.1l-2.9 0Z" fill="rgb(227,73,2)" fill-opacity="0.3"></path>
<path d="M529.1 271l2.9 0l0 -16.7l-2.9 0Z" fill="rgb(227,73,2)" fill-opacity="0.3"></path>
<path d="M533.3 271l2.9 0l0 -16.1l-2.9 0Z" fill="rgb(227,73,2)" fill-opacity="0.3"></path>
<path d="M537.5 271l2.9 0l0 -15.3l-2.9 0Z" fill="rgb(227,73,2)" fill-opacity="0.3"></path>
<path d="M541.7 271l2.9 0l0 -14.5l-2.9 0Z" fill="rgb(227,73,2)" fill-opacity="0.3"></path>
<path d="M545.9 271l2.9 0l0 -14.2l-2.9 0Z" fill="rgb(227,73,2)" fill-opacity="0.3"></path>
<path d="M550 271l2.9 0l0 -14.1l-2.9 0Z" fill="rgb(227,73,2)" fill-opacity="0.3"></path>
<path d="M554.2 271l2.9 0l0 -13.4l-2.9 0Z" fill="rgb(227,73,2)" fill-opacity="0.3"></path>
<path d="M558.4 271l2.9 0l0 -13.4l-2.9 0Z" fill="rgb(227,73,2)" fill-opacity="0.8"></path>
<path d="M562.6 271l2.9 0l0 -13l-2.9 0Z" fill="rgb(227,73,2)" fill-opacity="0.3"></path>
<path d="M566.8 271l2.9 0l0 -12.8l-2.9 0Z" fill="rgb(227,73,2)" fill-opacity="0.3"></path>
<path d="M571 271l2.9 0l0 -12.6l-2.9 0Z" fill="rgb(227,73,2)" fill-opacity="0.3"></path>
<path d="M575.1 271l2.9 0l0 -12.4l-2.9 0Z" fill="rgb(227,73,2)" fill-opacity="0.3"></path>
<path d="M579.3 271l2.9 0l0 -12.1l-2.9 0Z" fill="rgb(227,73,2)" fill-opacity="0.3"></path>
<path d="M583.5 271l2.9 0l0 -11.9l-2.9 0Z" fill="rgb(227,73,2)" fill-opacity="0.3"></path>
<path d="M587.7 271l2.9 0l0 -11.6l-2.9 0Z" fill="rgb(227,73,2)" fill-opacity="0.3"></path>
<path d="M591.9 271l2.9 0l0 -11.3l-2.9 0Z" fill="rgb(227,73,2)" fill-opacity="0.3"></path>
<path d="M596.1 271l2.9 0l0 -10.7l-2.9 0Z" fill="rgb(227,73,2)" fill-opacity="0.3"></path>
<path d="M600.2 271l2.9 0l0 -9.9l-2.9 0Z" fill="rgb(227,73,2)" fill-opacity="0.3"></path>
<path d="M604.4 271l2.9 0l0 -9.6l-2.9 0Z" fill="rgb(227,73,2)" fill-opacity="0.3"></path>
<path d="M608.6 271l2.9 0l0 -9.4l-2.9 0Z" fill="rgb(227,73,2)" fill-opacity="0.3"></path>
<path d="M612.8 271l2.9 0l0 -9l-2.9 0Z" fill="rgb(227,73,2)" fill-opacity="0.3"></path>
<path d="M617 271l2.9 0l0 -8.7l-2.9 0Z" fill="rgb(227,73,2)" fill-opacity="0.3"></path>
<path d="M621.2 271l2.9 0l0 -8.3l-2.9 0Z" fill="rgb(227,73,2)" fill-opacity="0.3"></path>
<path d="M625.4 271l2.9 0l0 -7.9l-2.9 0Z" fill="rgb(227,73,2)" fill-opacity="0.3"></path>
<path d="M629.5 271l2.9 0l0 -7.6l-2.9 0Z" fill="rgb(227,73,2)" fill-opacity="0.3"></path>
<path d="M633.7 271l2.9 0l0 -6.9l-2.9 0Z" fill="rgb(227,73,2)" fill-opacity="0.3"></path>
<path d="M637.9 271l2.9 0l0 -6.7l-2.9 0Z" fill="rgb(227,73,2)" fill-opacity="0.3"></path>
<path d="M642.1 271l2.9 0l0 -6.6l-2.9 0Z" fill="rgb(227,73,2)" fill-opacity="0.3"></path>
<path d="M646.3 271l2.9 0l0 -6.4l-2.9 0Z" fill="rgb(227,73,2)" fill-opacity="0.3"></path>
<path d="M650.5 271l2.9 0l0 -6l-2.9 0Z" fill="rgb(227,73,2)" fill-opacity="0.3"></path>
<path d="M654.6 271l2.9 0l0 -5.7l-2.9 0Z" fill="rgb(227,73,2)" fill-opacity="0.3"></path>
<path d="M658.8 271l2.9 0l0 -5.6l-2.9 0Z" fill="rgb(227,73,2)" fill-opacity="0.3"></path>
<path d="M663 271l2.9 0l0 -5.6l-2.9 0Z" fill="rgb(227,73,2)" fill-opacity="0.3"></path>
<path d="M667.2 271l2.9 0l0 -5.4l-2.9 0Z" fill="rgb(227,73,2)" fill-opacity="0.3"></path>
<path d="M671.4 271l2.9 0l0 -5.4l-2.9 0Z" fill="rgb(227,73,2)" fill-opacity="0.3"></path>
<path d="M675.6 271l2.9 0l0 -5.2l-2.9 0Z" fill="rgb(227,73,2)" fill-opacity="0.3"></path>
<path d="M679.7 271l2.9 0l0 -5.1l-2.9 0Z" fill="rgb(227,73,2)" fill-opacity="0.3"></path>
<path d="M683.9 271l2.9 0l0 -5.1l-2.9 0Z" fill="rgb(227,73,2)" fill-opacity="0.3"></path>
<path d="M688.1 271l2.9 0l0 -5l-2.9 0Z" fill="rgb(227,73,2)" fill-opacity="0.3"></path>
<path d="M692.3 271l2.9 0l0 -5l-2.9 0Z" fill="rgb(227,73,2)" fill-opacity="0.3"></path>
<path d="M696.5 271l2.9 0l0 -5l-2.9 0Z" fill="rgb(227,73,2)" fill-opacity="0.3"></path>
<path d="M700.7 271l2.9 0l0 -5l-2.9 0Z" fill="rgb(227,73,2)" fill-opacity="0.3"></path>
<path d="M704.8 271l2.9 0l0 -4.9l-2.9 0Z" fill="rgb(227,73,2)" fill-opacity="0.3"></path>
<path d="M709 271l2.9 0l0 -4.9l-2.9 0Z" fill="rgb(227,73,2)" fill-opacity="0.3"></path>
<path d="M713.2 271l2.9 0l0 -4.4l-2.9 0Z" fill="rgb(227,73,2)" fill-opacity="0.3"></path>
<path d="M717.4 271l2.9 0l0 -4.4l-2.9 0Z" fill="rgb(227,73,2)" fill-opacity="0.3"></path>
<path d="M721.6 271l2.9 0l0 -4.3l-2.9 0Z" fill="rgb(227,73,2)" fill-opacity="0.3"></path>
<path d="M725.8 271l2.9 0l0 -4.3l-2.9 0Z" fill="rgb(227,73,2)" fill-opacity="0.3"></path>
<path d="M729.9 271l2.9 0l0 -4.2l-2.9 0Z" fill="rgb(227,73,2)" fill-opacity="0.3"></path>
<path d="M734.1 271l2.9 0l0 -4.2l-2.9 0Z" fill="rgb(227,73,2)" fill-opacity="0.3"></path>
<path d="M738.3 271l2.9 0l0 -4.2l-2.9 0Z" fill="rgb(227,73,2)" fill-opacity="0.3"></path>
<path d="M742.5 271l2.9 0l0 -3.2l-2.9 0Z" fill="rgb(227,73,2)" fill-opacity="0.3"></path>
<path d="M746.7 271l2.9 0l0 -2.7l-2.9 0Z" fill="rgb(227,73,2)" fill-opacity="0.3"></path>
<path d="M750.9 271l2.9 0l0 -2.7l-2.9 0Z" fill="rgb(227,73,2)" fill-opacity="0.3"></path>
<path d="M755.1 271l2.9 0l0 -2.5l-2.9 0Z" fill="rgb(227,73,2)" fill-opacity="0.3"></path>
<path d="M759.2 271l2.9 0l0 -2.4l-2.9 0Z" fill="rgb(227,73,2)" fill-opacity="0.3"></path>
<path d="M763.4 271l2.9 0l0 -2.4l-2.9 0Z" fill="rgb(227,73,2)" fill-opacity="0.3"></path>
<path d="M767.6 271l2.9 0l0 -2.4l-2.9 0Z" fill="rgb(227,73,2)" fill-opacity="0.3"></path>
<path d="M771.8 271l2.9 0l0 -2l-2.9 0Z" fill="rgb(227,73,2)" fill-opacity="0.3"></path>
<path d="M776 271l2.9 0l0 -1.9l-2.9 0Z" fill="rgb(227,73,2)" fill-opacity="0.3"></path>
<path d="M780.2 271l2.9 0l0 -1.9l-2.9 0Z" fill="rgb(227,73,2)" fill-opacity="0.3"></path>
<path d="M784.3 271l2.9 0l0 -1.8l-2.9 0Z" fill="rgb(227,73,2)" fill-opacity="0.3"></path>
<path d="M788.5 271l2.9 0l0 -1.7l-2.9 0Z" fill="rgb(227,73,2)" fill-opacity="0.3"></path>
<path d="M792.7 271l2.9 0l0 -1.2l-2.9 0Z" fill="rgb(227,73,2)" fill-opacity="0.3"></path>
<path d="M796.9 271l2.9 0l0 -1.2l-2.9 0Z" fill="rgb(227,73,2)" fill-opacity="0.3"></path>
<path d="M801.1 271l2.9 0l0 -1.1l-2.9 0Z" fill="rgb(227,73,2)" fill-opacity="0.3"></path>
<path d="M805.3 271l2.9 0l0 -0.9l-2.9 0Z" fill="rgb(227,73,2)" fill-opacity="0.3"></path>
<path d="M809.4 271l2.9 0l0 -0.8l-2.9 0Z" fill="rgb(227,73,2)" fill-opacity="0.3"></path>
<path d="M813.6 271l2.9 0l0 -0.7l-2.9 0Z" fill="rgb(227,73,2)" fill-opacity="0.3"></path>
<path d="M817.8 271l2.9 0l0 -0.7l-2.9 0Z" fill="rgb(227,73,2)" fill-opacity="0.3"></path>
<path d="M822 271l2.9 0l0 -0.6l-2.9 0Z" fill="rgb(227,73,2)" fill-opacity="0.3"></path>
<path d="M826.2 271l2.9 0l0 -0.6l-2.9 0Z" fill="rgb(227,73,2)" fill-opacity="0.3"></path>
<path d="M830.4 271l2.9 0l0 -0.6l-2.9 0Z" fill="rgb(227,73,2)" fill-opacity="0.3"></path>
<path d="M834.5 271l2.9 0l0 -0.6l-2.9 0Z" fill="rgb(227,73,2)" fill-opacity="0.3"></path>
<path d="M838.7 271l2.9 0l0 -0.6l-2.9 0Z" fill="rgb(227,73,2)" fill-opacity="0.3"></path>
<path d="M842.9 271l2.9 0l0 -0.5l-2.9 0Z" fill="rgb(227,73,2)" fill-opacity="0.3"></path>
<path d="M847.1 271l2.9 0l0 -0.5l-2.9 0Z" fill="rgb(227,73,2)" fill-opacity="0.3"></path>
<path d="M851.3 271l2.9 0l0 -0.3l-2.9 0Z" fill="rgb(227,73,2)" fill-opacity="0.3"></path>
<path d="M855.5 271l2.9 0l0 -0.3l-2.9 0Z" fill="rgb(227,73,2)" fill-opacity="0.3"></path>
<path d="M859.6 271l2.9 0l0 -0.3l-2.9 0Z" fill="rgb(227,73,2)" fill-opacity="0.3"></path>
<path d="M863.8 271l2.9 0l0 -0.3l-2.9 0Z" fill="rgb(227,73,2)" fill-opacity="0.3"></path>
<path d="M868 271l2.9 0l0 -0.3l-2.9 0Z" fill="rgb(227,73,2)" fill-opacity="0.3"></path>
<path d="M872.2 271l2.9 0l0 -0.2l-2.9 0Z" fill="rgb(227,73,2)" fill-opacity="0.3"></path>
<path d="M876.4 271l2.9 0l0 -0.2l-2.9 0Z" fill="rgb(227,73,2)" fill-opacity="0.3"></path>
<path d="M880.6 271l2.9 0l0 -0.1l-2.9 0Z" fill="rgb(227,73,2)" fill-opacity="0.3"></path>
<path d="M884.8 271l2.9 0l0 -0.1l-2.9 0Z" fill="rgb(227,73,2)" fill-opacity="0.3"></path>
<path d="M888.9 271l2.9 0l0 -0.1l-2.9 0Z" fill="rgb(227,73,2)" fill-opacity="0.3"></path>
<path d="M893.1 271l2.9 0l0 -0.1l-2.9 0Z" fill="rgb(227,73,2)" fill-opacity="0.3"></path>
<path d="M897.3 271l2.9 0l0 -0.1l-2.9 0Z" fill="rgb(227,73,2)" fill-opacity="0.3"></path>
<path d="M901.5 271l2.9 0l0 -0.1l-2.9 0Z" fill="rgb(227,73,2)" fill-opacity="0.3"></path>
<path d="M905.7 271l2.9 0l0 -0.1l-2.9 0Z" fill="rgb(227,73,2)" fill-opacity="0.3"></path>
<path d="M909.9 271l2.9 0l0 -0.1l-2.9 0Z" fill="rgb(227,73,2)" fill-opacity="0.3"></path>
<path d="M914 271l2.9 0l0 -0.1l-2.9 0Z" fill="rgb(227,73,2)" fill-opacity="0.3"></path>
<path d="M918.2 271l2.9 0l0 -0.1l-2.9 0Z" fill="rgb(227,73,2)" fill-opacity="0.3"></path>
<path d="M-5 -5l226.9 0l0 24l-226.9 0Z" transform="translate(391.54 5)" fill="rgb(0,0,0)" fill-opacity="0" stroke="#ccc" stroke-width="0"></path>
<path d="M3.5 0L21.5 0A3.5 3.5 0 0 1 25 3.5L25 10.5A3.5 3.5 0 0 1 21.5 14L3.5 14A3.5 3.5 0 0 1 0 10.5L0 3.5A3.5 3.5 0 0 1 3.5 0" transform="translate(391.54 5)" fill="rgb(227,73,2)" fill-opacity="0.3"></path>
<text dominant-baseline="central" text-anchor="start" style="font-size:12px;font-family:sans-serif;" xml:space="preserve" x="30" y="7" transform="translate(391.54 5)" fill="#333">Times completed</text>
<path d="M0 7L25 7" transform="translate(524.1 5)" fill="#000" stroke="#E34902" stroke-width="2" stroke-linecap="butt" stroke-miterlimit="10"></path>
<path d="M18.1 7A5.6 5.6 0 1 1 18.1 6.4A5.6 5.6 0 0 1 18.1 7" transform="translate(524.1 5)" fill="#fff" stroke="#E34902" stroke-width="2" stroke-linecap="butt" stroke-miterlimit="10"></path>
<text dominant-baseline="central" text-anchor="start" style="font-size:12px;font-family:sans-serif;" x="30" y="7" transform="translate(524.1 5)" fill="#333">Eddington</text>
<path d="M-0.54 -0.89A0.6 0.6 0 1 1 0.54 -0.89C0.39 -0.56 0 -0.42 0 0C0 -0.42 -0.39 -0.56 -0.54 -0.89Z" transform="matrix(25,0,0,25,559.8508,252.7274)" fill="rgb(227,73,2)" fill-opacity="0.8"></path>
<text dominant-baseline="central" text-anchor="middle" style="font-size:12px;font-family:sans-serif;" transform="translate(559.8508 226.5846)" fill="#eee" stroke="rgb(227,73,2)" stroke-width="2" paint-order="stroke" stroke-opacity="0.8" stroke-miterlimit="2">118</text>
<g clip-path="url(#zr0-c0)">
<path d="M70.3 270.9L74.5 270.8L78.7 270.7L82.9 270.5L87.1 270.4L91.3 270.3L95.4 270.2L99.6 270.1L103.8 270L108 269.9L112.2 269.8L116.4 269.6L120.5 269.5L124.7 269.4L128.9 269.3L133.1 269.2L137.3 269.1L141.5 269L145.6 268.8L149.8 268.7L154 268.6L158.2 268.5L162.4 268.4L166.6 268.3L170.7 268.2L174.9 268.1L179.1 267.9L183.3 267.8L187.5 267.7L191.7 267.6L195.8 267.5L200 267.4L204.2 267.3L208.4 267.1L212.6 267L216.8 266.9L221 266.8L225.1 266.7L229.3 266.6L233.5 266.5L237.7 266.3L241.9 266.2L246.1 266.1L250.2 266L254.4 265.9L258.6 265.8L262.8 265.7L267 265.6L271.2 265.4L275.3 265.3L279.5 265.2L283.7 265.1L287.9 265L292.1 264.9L296.3 264.8L300.4 264.6L304.6 264.5L308.8 264.4L313 264.3L317.2 264.2L321.4 264.1L325.6 264L329.7 263.9L333.9 263.7L338.1 263.6L342.3 263.5L346.5 263.4L350.7 263.3L354.8 263.2L359 263.1L363.2 262.9L367.4 262.8L371.6 262.7L375.8 262.6L379.9 262.5L384.1 262.4L388.3 262.3L392.5 262.2L396.7 262L400.9 261.9L405 261.8L409.2 261.7L413.4 261.6L417.6 261.5L421.8 261.4L426 261.2L430.1 261.1L434.3 261L438.5 260.9L442.7 260.8L446.9 260.7L451.1 260.6L455.3 260.5L459.4 260.3L463.6 260.2L467.8 260.1L472 260L476.2 259.9L480.4 259.8L484.5 259.7L488.7 259.5L492.9 259.4L497.1 259.3L501.3 259.2L505.5 259.1L509.6 259L513.8 258.9L518 258.7L522.2 258.6L526.4 258.5L530.6 258.4L534.7 258.3L538.9 258.2L543.1 258.1L547.3 258L551.5 257.8L555.7 257.7L559.9 257.6L564 257.5L568.2 257.4L572.4 257.3L576.6 257.2L580.8 257L585 256.9L589.1 256.8L593.3 256.7L597.5 256.6L601.7 256.5L605.9 256.4L610.1 256.3L614.2 256.1L618.4 256L622.6 255.9L626.8 255.8L631 255.7L635.2 255.6L639.3 255.5L643.5 255.3L647.7 255.2L651.9 255.1L656.1 255L660.3 254.9L664.4 254.8L668.6 254.7L672.8 254.6L677 254.4L681.2 254.3L685.4 254.2L689.6 254.1L693.7 254L697.9 253.9L702.1 253.8L706.3 253.6L710.5 253.5L714.7 253.4L718.8 253.3L723 253.2L727.2 253.1L731.4 253L735.6 252.8L739.8 252.7L743.9 252.6L748.1 252.5L752.3 252.4L756.5 252.3L760.7 252.2L764.9 252.1L769 251.9L773.2 251.8L777.4 251.7L781.6 251.6L785.8 251.5L790 251.4L794.2 251.3L798.3 251.1L802.5 251L806.7 250.9L810.9 250.8L815.1 250.7L819.3 250.6L823.4 250.5L827.6 250.4L831.8 250.2L836 250.1L840.2 250L844.4 249.9L848.5 249.8L852.7 249.7L856.9 249.6L861.1 249.4L865.3 249.3L869.5 249.2L873.6 249.1L877.8 249L882 248.9L886.2 248.8L890.4 248.7L894.6 248.5L898.7 248.4L902.9 248.3L907.1 248.2L911.3 248.1L915.5 248L919.7 247.9" fill="none" stroke="#E34902" stroke-width="2" stroke-linejoin="bevel"></path>
</g>
<defs >
<clipPath id="zr0-c0">
<path d="M67 59l856 0l0 213l-856 0Z" fill="#000"></path>
</clipPath>
</defs>
</svg>