<svg width="1000" height="300" xmlns="http://www.w3.org/2000/svg" xmlns:xlink="http://www.w3.org/1999/xlink" version="1.1" baseProfile="full" viewBox="0 0 1000 300">
<rect width="1000" height="300" x="0" y="0" id="0" fill="#ffffff"></rect>
<path d="M68.2 271.5L921.8 271.5" fill="none" stroke="#E0E6F1"></path>
<path d="M68.2 229.5L921.8 229.5" fill="none" stroke="#E0E6F1"></path>
<path d="M68.2 186.5L921.8 186.5" fill="none" stroke="#E0E6F1"></path>
<path d="M68.2 144.5L921.8 144.5" fill="none" stroke="#E0E6F1"></path>
<path d="M68.2 102.5L921.8 102.5" fill="none" stroke="#E0E6F1"></path>
<path d="M68.2 60.5L921.8 60.5" fill="none" stroke="#E0E6F1"></path>
<path d="M68.2 271.5L921.8 271.5" fill="none" stroke="#6E7079" stroke-linecap="round"></path>
<path d="M70.5 271L70.5 276" fill="none" stroke="#6E7079"></path>
<path d="M120.5 271L120.5 276" fill="none" stroke="#6E7079"></path>
<path d="M170.5 271L170.5 276" fill="none" stroke="#6E7079"></path>
<path d="M221.5 271L221.5 276" fill="none" stroke="#6E7079"></path>
<path d="M271.5 271L271.5 276" fill="none" stroke="#6E7079"></path>
<path d="M321.5 271L321.5 276" fill="none" stroke="#6E7079"></path>
<path d="M371.5 271L371.5 276" fill="none" stroke="#6E7079"></path>
<path d="M422.5 271L422.5 276" fill="none" stroke="#6E7079"></path>
<path d="M472.5 271L472.5 276" fill="none" stroke="#6E7079"></path>
<path d="M522.5 271L522.5 276" fill="none" stroke="#6E7079"></path>
<path d="M572.5 271L572.5 276" fill="none" stroke="#6E7079"></path>
<path d="M622.5 271L622.5 276" fill="none" stroke="#6E7079"></path>
<path d="M673.5 271L673.5 276" fill="none" stroke="#6E7079"></path>
<path d="M723.5 271L723.5 276" fill="none" stroke="#6E7079"></path>
<path d="M773.5 271L773.5 276" fill="none" stroke="#6E7079"></path>
<path d="M823.5 271L823.5 276" fill="none" stroke="#6E7079"></path>
<path d="M873.5 271L873.5 276" fill="none" stroke="#6E7079"></path>
<text dominant-baseline="central" text-anchor="end" style="font-size:12px;font-family:sans-serif;" transform="translate(60.24 271)" fill="#6E7079">0</text>
<text dominant-baseline="central" text-anchor="end" style="font-size:12px;font-family:sans-serif;" transform="translate(60.24 228.8)" fill="#6E7079">360</text>
<text dominant-baseline="central" text-anchor="end" style="font-size:12px;font-family:sans-serif;" transform="translate(60.24 186.6)" fill="#6E7079">720</text>
<text dominant-baseline="central" text-anchor="end" style="font-size:12px;font-family:sans-serif;" transform="translate(60.24 144.4)" fill="#6E7079">1,080</text>
<text dominant-baseline="central" text-anchor="end" style="font-size:12px;font-family:sans-serif;" transform="translate(60.24 102.2)" fill="#6E7079">1,440</text>
<text dominant-baseline="central" text-anchor="end" style="font-size:12px;font-family:sans-serif;" transform="translate(60.24 60)" fill="#6E7079">1,800</text>
<text dominant-baseline="central" text-anchor="start" style="font-size:12px;font-family:sans-serif;" transform="translate(929.76 271)" fill="#6E7079">0</text>
<text dominant-baseline="central" text-anchor="start" style="font-size:12px;font-family:sans-serif;" transform="translate(929.76 228.8)" fill="#6E7079">360</text>
<text dominant-baseline="central" text-anchor="start" style="font-size:12px;font-family:sans-serif;" transform="translate(929.76 186.6)" fill="#6E7079">720</text>
<text dominant-baseline="central" text-anchor="start" style="font-size:12px;font-family:sans-serif;" transform="translate(929.76 144.4)" fill="#6E7079">1,080</text>
<text dominant-baseline="central" text-anchor="start" style="font-size:12px;font-family:sans-serif;" transform="translate(929.76 102.2)" fill="#6E7079">1,440</text>
<text dominant-baseline="central" text-anchor="start" style="font-size:12px;font-family:sans-serif;" transform="translate(929.76 60)" fill="#6E7079">1,800</text>
<text dominant-baseline="central" text-anchor="middle" style="font-size:12px;font-family:sans-serif;" y="6" transform="translate(70.332 279)" fill="#6E7079">1km</text>
<text dominant-baseline="central" text-anchor="middle" style="font-size:12px;font-family:sans-serif;" y="6" transform="translate(120.539 279)" fill="#6E7079">13km</text>
<text dominant-baseline="central" text-anchor="middle" style="font-size:12px;font-family:sans-serif;" y="6" transform="translate(170.7461 279)" fill="#6E7079">25km</text>
<text dominant-baseline="central" text-anchor="middle" style="font-size:12px;font-family:sans-serif;" y="6" transform="translate(220.9531 279)" fill="#6E7079">37km</text>
<text dominant-baseline="central" text-anchor="middle" style="font-size:12px;font-family:sans-serif;" y="6" transform="translate(271.1602 279)" fill="#6E7079">49km</text>
<text dominant-baseline="central" text-anchor="middle" style="font-size:12px;font-family:sans-serif;" y="6" transform="translate(321.3673 279)" fill="#6E7079">61km</text>
<text dominant-baseline="central" text-anchor="middle" style="font-size:12px;font-family:sans-serif;" y="6" transform="translate(371.5743 279)" fill="#6E7079">73km</text>
<text dominant-baseline="central" text-anchor="middle" style="font-size:12px;font-family:sans-serif;" y="6" transform="translate(421.7814 279)" fill="#6E7079">85km</text>
<text dominant-baseline="central" text-anchor="middle" style="font-size:12px;font-family:sans-serif;" y="6" transform="translate(471.9884 279)" fill="#6E7079">97km</text>
<text dominant-baseline="central" text-anchor="middle" style="font-size:12px;font-family:sans-serif;" y="6" transform="translate(522.1955 279)" fill="#6E7079">109km</text>
<text dominant-baseline="central" text-anchor="middle" style="font-size:12px;font-family:sans-serif;" y="6" transform="translate(572.4025 279)" fill="#6E7079">121km</text>
<text dominant-baseline="central" text-anchor="middle" style="font-size:12px;font-family:sans-serif;" y="6" transform="translate(622.6096 279)" fill="#6E7079">133km</text>
<text dominant-baseline="central" text-anchor="middle" style="font-size:12px;font-family:sans-serif;" y="6" transform="translate(672.8167 279)" fill="#6E7079">145km</text>
<text dominant-baseline="central" text-anchor="middle" style="font-size:12px;font-family:sans-serif;" y="6" transform="translate(723.0237 279)" fill="#6E7079">157km</text>
<text dominant-baseline="central" text-anchor="middle" style="font-size:12px;font-family:sans-serif;" y="6" transform="translate(773.2308 279)" fill="#6E7079">169km</text>
<text dominant-baseline="central" text-anchor="middle" style="font-size:12px;font-family:sans-serif;" y="6" transform="translate(823.4378 279)" fill="#6E7079">181km</text>
<text dominant-baseline="central" text-anchor="middle" style="font-size:12px;font-family:sans-serif;" y="6" transform="translate(873.6449 279)" fill="#6E7079">193km</text>
<path d="M68.9 271l2.9 0l0 -209.9l-2.9 0Z" fill="rgb(227,73,2)" fill-opacity="0.3"></path>
<path d="M73.1 271l2.9 0l0 -209.5l-2.9 0Z" fill="rgb(227,73,2)" fill-opacity="0.3"></path>
<path d="M77.3 271l2.9 0l0 -208.7l-2.9 0Z" fill="rgb(227,73,2)" fill-opacity="0.3"></path>
<path d="M81.4 271l2.9 0l0 -206.5l-2.9 0Z" fill="rgb(227,73,2)" fill-opacity="0.3"></path>
<path d="M85.6 271l2.9 0l0 -204.9l-2.9 0Z" fill="rgb(227,73,2)" fill-opacity="0.3"></path>
<path d="M89.8 271l2.9 0l0 -201.3l-2.9 0Z" fill="rgb(227,73,2)" fill-opacity="0.3"></path>
<path d="M94 271l2.9 0l0 -196.2l-2.9 0Z" fill="rgb(227,73,2)" fill-opacity="0.3"></path>
<path d="M98.2 271l2.9 0l0 -195.5l-2.9 0Z" fill="rgb(227,73,2)" fill-opacity="0.3"></path>
<path d="M102.4 271l2.9 0l0 -194.9l-2.9 0Z" fill="rgb(227,73,2)" fill-opacity="0.3"></path>
<path d="M106.5 271l2.9 0l0 -194l-2.9 0Z" fill="rgb(227,73,2)" fill-opacity="0.3"></path>
<path d="M110.7 271l2.9 0l0 -192.8l-2.9 0Z" fill="rgb(227,73,2)" fill-opacity="0.3"></path>
<path d="M114.9 271l2.9 0l0 -191.8l-2.9 0Z" fill="rgb(227,73,2)" fill-opacity="0.3"></path>
<path d="M119.1 271l2.9 0l0 -171.7l-2.9 0Z" fill="rgb(227,73,2)" fill-opacity="0.3"></path>
<path d="M123.3 271l2.9 0l0 -164.6l-2.9 0Z" fill="rgb(227,73,2)" fill-opacity="0.3"></path>
<path d="M127.5 271l2.9 0l0 -164l-2.9 0Z" fill="rgb(227,73,2)" fill-opacity="0.3"></path>
<path d="M131.6 271l2.9 0l0 -162.7l-2.9 0Z" fill="rgb(227,73,2)" fill-opacity="0.3"></path>
<path d="M135.8 271l2.9 0l0 -161.4l-2.9 0Z" fill="rgb(227,73,2)" fill-opacity="0.3"></path>
<path d="M140 271l2.9 0l0 -160.5l-2.9 0Z" fill="rgb(227,73,2)" fill-opacity="0.3"></path>
<path d="M144.2 271l2.9 0l0 -159.5l-2.9 0Z" fill="rgb(227,73,2)" fill-opacity="0.3"></path>
<path d="M148.4 271l2.9 0l0 -158.7l-2.9 0Z" fill="rgb(227,73,2)" fill-opacity="0.3"></path>
<path d="M152.6 271l2.9 0l0 -157.8l-2.9 0Z" fill="rgb(227,73,2)" fill-opacity="0.3"></path>
<path d="M156.8 271l2.9 0l0 -157.7l-2.9 0Z" fill="rgb(227,73,2)" fill-opacity="0.3"></path>
<path d="M160.9 271l2.9 0l0 -156.8l-2.9 0Z" fill="rgb(227,73,2)" fill-opacity="0.3"></path>
<path d="M165.1 271l2.9 0l0 -155.3l-2.9 0Z" fill="rgb(227,73,2)" fill-opacity="0.3"></path>
<path d="M169.3 271l2.9 0l0 -154l-2.9 0Z" fill="rgb(227,73,2)" fill-opacity="0.3"></path>
<path d="M173.5 271l2.9 0l0 -152.7l-2.9 0Z" fill="rgb(227,73,2)" fill-opacity="0.3"></path>
<path d="M177.7 271l2.9 0l0 -151.8l-2.9 0Z" fill="rgb(227,73,2)" fill-opacity="0.3"></path>
<path d="M181.9 271l2.9 0l0 -150.3l-2.9 0Z" fill="rgb(227,73,2)" fill-opacity="0.3"></path>
<path d="M186 271l2.9 0l0 -149.7l-2.9 0Z" fill="rgb(227,73,2)" fill-opacity="0.3"></path>
<path d="M190.2 271l2.9 0l0 -148.1l-2.9 0Z" fill="rgb(227,73,2)" fill-opacity="0.3"></path>
<path d="M194.4 271l2.9 0l0 -145.5l-2.9 0Z" fill="rgb(227,73,2)" fill-opacity="0.3"></path>
<path d="M198.6 271l2.9 0l0 -143.6l-2.9 0Z" fill="rgb(227,73,2)" fill-opacity="0.3"></path>
<path d="M202.8 271l2.9 0l0 -140.1l-2.9 0Z" fill="rgb(227,73,2)" fill-opacity="0.3"></path>
<path d="M207 271l2.9 0l0 -137.7l-2.9 0Z" fill="rgb(227,73,2)" fill-opacity="0.3"></path>
<path d="M211.1 271l2.9 0l0 -133.3l-2.9 0Z" fill="rgb(227,73,2)" fill-opacity="0.3"></path>
<path d="M215.3 271l2.9 0l0 -128.7l-2.9 0Z" fill="rgb(227,73,2)" fill-opacity="0.3"></path>
<path d="M219.5 271l2.9 0l0 -126l-2.9 0Z" fill="rgb(227,73,2)" fill-opacity="0.3"></path>
<path d="M223.7 271l2.9 0l0 -122.6l-2.9 0Z" fill="rgb(227,73,2)" fill-opacity="0.3"></path>
<path d="M227.9 271l2.9 0l0 -119.3l-2.9 0Z" fill="rgb(227,73,2)" fill-opacity="0.3"></path>
<path d="M232.1 271l2.9 0l0 -116.9l-2.9 0Z" fill="rgb(227,73,2)" fill-opacity="0.3"></path>
<path d="M236.2 271l2.9 0l0 -113.1l-2.9 0Z" fill="rgb(227,73,2)" fill-opacity="0.3"></path>
<path d="M240.4 271l2.9 0l0 -110.2l-2.9 0Z" fill="rgb(227,73,2)" fill-opacity="0.3"></path>
<path d="M244.6 271l2.9 0l0 -106.1l-2.9 0Z" fill="rgb(227,73,2)" fill-opacity="0.3"></path>
<path d="M248.8 271l2.9 0l0 -103.9l-2.9 0Z" fill="rgb(227,73,2)" fill-opacity="0.3"></path>
<path d="M253 271l2.9 0l0 -102.2l-2.9 0Z" fill="rgb(227,73,2)" fill-opacity="0.3"></path>
<path d="M257.2 271l2.9 0l0 -101l-2.9 0Z" fill="rgb(227,73,2)" fill-opacity="0.3"></path>
<path d="M261.3 271l2.9 0l0 -99.3l-2.9 0Z" fill="rgb(227,73,2)" fill-opacity="0.3"></path>
<path d="M265.5 271l2.9 0l0 -98.2l-2.9 0Z" fill="rgb(227,73,2)" fill-opacity="0.3"></path>
<path d="M269.7 271l2.9 0l0 -94.7l-2.9 0Z" fill="rgb(227,73,2)" fill-opacity="0.3"></path>
<path d="M273.9 271l2.9 0l0 -93.2l-2.9 0Z" fill="rgb(227,73,2)" fill-opacity="0.3"></path>
<path d="M278.1 271l2.9 0l0 -90.7l-2.9 0Z" fill="rgb(227,73,2)" fill-opacity="0.3"></path>
<path d="M282.3 271l2.9 0l0 -89.4l-2.9 0Z" fill="rgb(227,73,2)" fill-opacity="0.3"></path>
<path d="M286.5 271l2.9 0l0 -88.2l-2.9 0Z" fill="rgb(227,73,2)" fill-opacity="0.3"></path>
<path d="M290.6 271l2.9 0l0 -85.7l-2.9 0Z" fill="rgb(227,73,2)" fill-opacity="0.3"></path>
<path d="M294.8 271l2.9 0l0 -83.8l-2.9 0Z" fill="rgb(227,73,2)" fill-opacity="0.3"></path>
<path d="M299 271l2.9 0l0 -82.2l-2.9 0Z" fill="rgb(227,73,2)" fill-opacity="0.3"></path>
<path d="M303.2 271l2.9 0l0 -80.8l-2.9 0Z" fill="rgb(227,73,2)" fill-opacity="0.3"></path>
<path d="M307.4 271l2.9 0l0 -79.9l-2.9 0Z" fill="rgb(227,73,2)" fill-opacity="0.3"></path>
<path d="M311.6 271l2.9 0l0 -78.8l-2.9 0Z" fill="rgb(227,73,2)" fill-opacity="0.3"></path>
<path d="M315.7 271l2.9 0l0 -76.9l-2.9 0Z" fill="rgb(227,73,2)" fill-opacity="0.3"></path>
<path d="M319.9 271l2.9 0l0 -76l-2.9 0Z" fill="rgb(227,73,2)" fill-opacity="0.3"></path>
<path d="M324.1 271l2.9 0l0 -74.4l-2.9 0Z" fill="rgb(227,73,2)" fill-opacity="0.3"></path>
<path d="M328.3 271l2.9 0l0 -73.6l-2.9 0Z" fill="rgb(227,73,2)" fill-opacity="0.3"></path>
<path d="M332.5 271l2.9 0l0 -72.2l-2.9 0Z" fill="rgb(227,73,2)" fill-opacity="0.3"></path>
<path d="M336.7 271l2.9 0l0 -70.6l-2.9 0Z" fill="rgb(227,73,2)" fill-opacity="0.3"></path>
<path d="M340.8 271l2.9 0l0 -68.9l-2.9 0Z" fill="rgb(227,73,2)" fill-opacity="0.3"></path>
<path d="M345 271l2.9 0l0 -66.8l-2.9 0Z" fill="rgb(227,73,2)" fill-opacity="0.3"></path>
<path d="M349.2 271l2.9 0l0 -64.6l-2.9 0Z" fill="rgb(227,73,2)" fill-opacity="0.3"></path>
<path d="M353.4 271l2.9 0l0 -63.7l-2.9 0Z" fill="rgb(227,73,2)" fill-opacity="0.3"></path>
<path d="M357.6 271l2.9 0l0 -61.3l-2.9 0Z" fill="rgb(227,73,2)" fill-opacity="0.3"></path>
<path d="M361.8 271l2.9 0l0 -59.2l-2.9 0Z" fill="rgb(227,73,2)" fill-opacity="0.3"></path>
<path d="M365.9 271l2.9 0l0 -57.6l-2.9 0Z" fill="rgb(227,73,2)" fill-opacity="0.3"></path>
<path d="M370.1 271l2.9 0l0 -56l-2.9 0Z" fill="rgb(227,73,2)" fill-opacity="0.3"></path>
<path d="M374.3 271l2.9 0l0 -55.1l-2.9 0Z" fill="rgb(227,73,2)" fill-opacity="0.3"></path>
<path d="M378.5 271l2.9 0l0 -53.1l-2.9 0Z" fill="rgb(227,73,2)" fill-opacity="0.3"></path>
<path d="M382.7 271l2.9 0l0 -51.6l-2.9 0Z" fill="rgb(227,73,2)" fill-opacity="0.3"></path>
<path d="M386.9 271l2.9 0l0 -50.5l-2.9 0Z" fill="rgb(227,73,2)" fill-opacity="0.3"></path>
<path d="M391.1 271l2.9 0l0 -49.2l-2.9 0Z" fill="rgb(227,73,2)" fill-opacity="0.3"></path>
<path d="M395.2 271l2.9 0l0 -48.2l-2.9 0Z" fill="rgb(227,73,2)" fill-opacity="0.3"></path>
<path d="M399.4 271l2.9 0l0 -46.9l-2.9 0Z" fill="rgb(227,73,2)" fill-opacity="0.3"></path>
<path d="M403.6 271l2.9 0l0 -44.8l-2.9 0Z" fill="rgb(227,73,2)" fill-opacity="0.3"></path>
<path d="M407.8 271l2.9 0l0 -43.5l-2.9 0Z" fill="rgb(227,73,2)" fill-opacity="0.3"></path>
<path d="M412 271l2.9 0l0 -42.6l-2.9 0Z" fill="rgb(227,73,2)" fill-opacity="0.3"></path>
<path d="M416.2 271l2.9 0l0 -40.9l-2.9 0Z" fill="rgb(227,73,2)" fill-opacity="0.3"></path>
<path d="M420.3 271l2.9 0l0 -39.9l-2.9 0Z" fill="rgb(227,73,2)" fill-opacity="0.3"></path>
<path d="M424.5 271l2.9 0l0 -38.7l-2.9 0Z" fill="rgb(227,73,2)" fill-opacity="0.3"></path>
<path d="M428.7 271l2.9 0l0 -37.6l-2.9 0Z" fill="rgb(227,73,2)" fill-opacity="0.3"></path>
<path d="M432.9 271l2.9 0l0 -36.2l-2.9 0Z" fill="rgb(227,73,2)" fill-opacity="0.3"></path>
<path d="M437.1 271l2.9 0l0 -35l-2.9 0Z" fill="rgb(227,73,2)" fill-opacity="0.3"></path>
<path d="M441.3 271l2.9 0l0 -33.6l-2.9 0Z" fill="rgb(227,73,2)" fill-opacity="0.3"></path>
<path d="M445.4 271l2.9 0l0 -31.8l-2.9 0Z" fill="rgb(227,73,2)" fill-opacity="0.3"></path>
<path d="M449.6 271l2.9 0l0 -30.2l-2.9 0Z" fill="rgb(227,73,2)" fill-opacity="0.3"></path>
<path d="M453.8 271l2.9 0l0 -29.1l-2.9 0Z" fill="rgb(227,73,2)" fill-opacity="0.3"></path>
<path d="M458 271l2.9 0l0 -27.8l-2.9 0Z" fill="rgb(227,73,2)" fill-opacity="0.3"></path>
<path d="M462.2 271l2.9 0l0 -27.3l-2.9 0Z" fill="rgb(227,73,2)" fill-opacity="0.3"></path>
<path d="M466.4 271l2.9 0l0 -27l-2.9 0Z" fill="rgb(227,73,2)" fill-opacity="0.3"></path>
<path d="M470.5 271l2.9 0l0 -26.1l-2.9 0Z" fill="rgb(227,73,2)" fill-opacity="0.3"></path>
<path d="M474.7 271l2.9 0l0 -25.6l-2.9 0Z" fill="rgb(227,73,2)" fill-opacity="0.3"></path>
<path d="M478.9 271l2.9 0l0 -25.1l-2.9 0Z" fill="rgb(227,73,2)" fill-opacity="0.3"></path>
<path d="M483.1 271l2.9 0l0 -24.6l-2.9 0Z" fill="rgb(227,73,2)" fill-opacity="0.3"></path>
<path d="M487.3 271l2.9 0l0 -23.4l-2.9 0Z" fill="rgb(227,73,2)" fill-opacity="0.3"></path>
<path d="M491.5 271l2.9 0l0 -21.7l-2.9 0Z" fill="rgb(227,73,2)" fill-opacity="0.3"></path>
<path d="M495.6 271l2.9 0l0 -21.2l-2.9 0Z" fill="rgb(227,73,2)" fill-opacity="0.3"></path>
<path d="M499.8 271l2.9 0l0 -20.2l-2.9 0Z" fill="rgb(227,73,2)" fill-opacity="0.3"></path>
<path d="M504 271l2.9 0l0 -19.3l-2.9 0Z" fill="rgb(227,73,2)" fill-opacity="0.3"></path>
<path d="M508.2 271l2.9 0l0 -18.8l-2.9 0Z" fill="rgb(227,73,2)" fill-opacity="0.3"></path>
<path d="M512.4 271l2.9 0l0 -18.2l-2.9 0Z" fill="rgb(227,73,2)" fill-opacity="0.3"></path>
<path d="M516.6 271l2.9 0l0 -17.9l-2.9 0Z" fill="rgb(227,73,2)" fill-opacity="0.3"></path>
<path d="M520.8 271l2.9 0l0 -17.2l-2.9 0Z" fill="rgb(227,73,2)" fill-opacity="0.3"></path>
<path d="M524.9 271l2.9 0l0 -16.8l-2.9 0Z" fill="rgb(227,73,2)" fill-opacity="0.3"></path>
<path d="M529.1 271l2.9 0l0 -16.4l-2.9 0Z" fill="rgb(227,73,2)" fill-opacity="0.3"></path>
<path d="M533.3 271l2.9 0l0 -15.8l-2.9 0Z" fill="rgb(227,73,2)" fill-opacity="0.3"></path>
<path d="M537.5 271l2.9 0l0 -15l-2.9 0Z" fill="rgb(227,73,2)" fill-opacity="0.3"></path>
<path d="M541.7 271l2.9 0l0 -14.2l-2.9 0Z" fill="rgb(227,73,2)" fill-opacity="0.3"></path>
<path d="M545.9 271l2.9 0l0 -13.8l-2.9 0Z" fill="rgb(227,73,2)" fill-opacity="0.3"></path>
<path d="M550 271l2.9 0l0 -13.7l-2.9 0Z" fill="rgb(227,73,2)" fill-opacity="0.8"></path>
<path d="M554.2 271l2.9 0l0 -13l-2.9 0Z" fill="rgb(227,73,2)" fill-opacity="0.3"></path>
<path d="M558.4 271l2.9 0l0 -13l-2.9 0Z" fill="rgb(227,73,2)" fill-opacity="0.3"></path>
<path d="M562.6 271l2.9 0l0 -12.7l-2.9 0Z" fill="rgb(227,73,2)" fill-opacity="0.3"></path>
<path d="M566.8 271l2.9 0l0 -12.4l-2.9 0Z" fill="rgb(227,73,2)" fill-opacity="0.3"></path>
<path d="M571 271l2.9 0l0 -12.2l-2.9 0Z" fill="rgb(227,73,2)" fill-opacity="0.3"></path>
<path d="M575.1 271l2.9 0l0 -12l-2.9 0Z" fill="rgb(227,73,2)" fill-opacity="0.3"></path>
<path d="M579.3 271l2.9 0l0 -11.7l-2.9 0Z" fill="rgb(227,73,2)" fill-opacity="0.3"></path>
<path d="M583.5 271l2.9 0l0 -11.5l-2.9 0Z" fill="rgb(227,73,2)" fill-opacity="0.3"></path>
<path d="M587.7 271l2.9 0l0 -11.1l-2.9 0Z" fill="rgb(227,73,2)" fill-opacity="0.3"></path>
<path d="M591.9 271l2.9 0l0 -10.9l-2.9 0Z" fill="rgb(227,73,2)" fill-opacity="0.3"></path>
<path d="M596.1 271l2.9 0l0 -10.2l-2.9 0Z" fill="rgb(227,73,2)" fill-opacity="0.3"></path>
<path d="M600.2 271l2.9 0l0 -9.4l-2.9 0Z" fill="rgb(227,73,2)" fill-opacity="0.3"></path>
<path d="M604.4 271l2.9 0l0 -9.1l-2.9 0Z" fill="rgb(227,73,2)" fill-opacity="0.3"></path>
<path d="M608.6 271l2.9 0l0 -8.9l-2.9 0Z" fill="rgb(227,73,2)" fill-opacity="0.3"></path>
<path d="M612.8 271l2.9 0l0 -8.4l-2.9 0Z" fill="rgb(227,73,2)" fill-opacity="0.3"></path>
<path d="M617 271l2.9 0l0 -8.2l-2.9 0Z" fill="rgb(227,73,2)" fill-opacity="0.3"></path>
<path d="M621.2 271l2.9 0l0 -7.7l-2.9 0Z" fill="rgb(227,73,2)" fill-opacity="0.3"></path>
<path d="M625.4 271l2.9 0l0 -7.4l-2.9 0Z" fill="rgb(227,73,2)" fill-opacity="0.3"></path>
<path d="M629.5 271l2.9 0l0 -7l-2.9 0Z" fill="rgb(227,73,2)" fill-opacity="0.3"></path>
<path d="M633.7 271l2.9 0l0 -6.4l-2.9 0Z" fill="rgb(227,73,2)" fill-opacity="0.3"></path>
<path d="M637.9 271l2.9 0l0 -6.2l-2.9 0Z" fill="rgb(227,73,2)" fill-opacity="0.3"></path>
<path d="M642.1 271l2.9 0l0 -6.1l-2.9 0Z" fill="rgb(227,73,2)" fill-opacity="0.3"></path>
<path d="M646.3 271l2.9 0l0 -5.9l-2.9 0Z" fill="rgb(227,73,2)" fill-opacity="0.3"></path>
<path d="M650.5 271l2.9 0l0 -5.5l-2.9 0Z" fill="rgb(227,73,2)" fill-opacity="0.3"></path>
<path d="M654.6 271l2.9 0l0 -5.2l-2.9 0Z" fill="rgb(227,73,2)" fill-opacity="0.3"></path>
<path d="M658.8 271l2.9 0l0 -5l-2.9 0Z" fill="rgb(227,73,2)" fill-opacity="0.3"></path>
<path d="M663 271l2.9 0l0 -5l-2.9 0Z" fill="rgb(227,73,2)" fill-opacity="0.3"></path>
<path d="M667.2 271l2.9 0l0 -4.9l-2.9 0Z" fill="rgb(227,73,2)" fill-opacity="0.3"></path>
<path d="M671.4 271l2.9 0l0 -4.9l-2.9 0Z" fill="rgb(227,73,2)" fill-opacity="0.3"></path>
<path d="M675.6 271l2.9 0l0 -4.7l-2.9 0Z" fill="rgb(227,73,2)" fill-opacity="0.3"></path>
<path d="M679.7 271l2.9 0l0 -4.7l-2.9 0Z" fill="rgb(227,73,2)" fill-opacity="0.3"></path>
<path d="M683.9 271l2.9 0l0 -4.7l-2.9 0Z" fill="rgb(227,73,2)" fill-opacity="0.3"></path>
<path d="M688.1 271l2.9 0l0 -4.6l-2.9 0Z" fill="rgb(227,73,2)" fill-opacity="0.3"></path>
<path d="M692.3 271l2.9 0l0 -4.6l-2.9 0Z" fill="rgb(227,73,2)" fill-opacity="0.3"></path>
<path d="M696.5 271l2.9 0l0 -4.6l-2.9 0Z" fill="rgb(227,73,2)" fill-opacity="0.3"></path>
<path d="M700.7 271l2.9 0l0 -4.6l-2.9 0Z" fill="rgb(227,73,2)" fill-opacity="0.3"></path>
<path d="M704.8 271l2.9 0l0 -4.5l-2.9 0Z" fill="rgb(227,73,2)" fill-opacity="0.3"></path>
<path d="M709 271l2.9 0l0 -4.5l-2.9 0Z" fill="rgb(227,73,2)" fill-opacity="0.3"></path>
<path d="M713.2 271l2.9 0l0 -4l-2.9 0Z" fill="rgb(227,73,2)" fill-opacity="0.3"></path>
<path d="M717.4 271l2.9 0l0 -4l-2.9 0Z" fill="rgb(227,73,2)" fill-opacity="0.3"></path>
<path d="M721.6 271l2.9 0l0 -3.9l-2.9 0Z" fill="rgb(227,73,2)" fill-opacity="0.3"></path>
<path d="M725.8 271l2.9 0l0 -3.9l-2.9 0Z" fill="rgb(227,73,2)" fill-opacity="0.3"></path>
<path d="M729.9 271l2.9 0l0 -3.8l-2.9 0Z" fill="rgb(227,73,2)" fill-opacity="0.3"></path>
<path d="M734.1 271l2.9 0l0 -3.8l-2.9 0Z" fill="rgb(227,73,2)" fill-opacity="0.3"></path>
<path d="M738.3 271l2.9 0l0 -3.8l-2.9 0Z" fill="rgb(227,73,2)" fill-opacity="0.3"></path>
<path d="M742.5 271l2.9 0l0 -2.9l-2.9 0Z" fill="rgb(227,73,2)" fill-opacity="0.3"></path>
<path d="M746.7 271l2.9 0l0 -2.5l-2.9 0Z" fill="rgb(227,73,2)" fill-opacity="0.3"></path>
<path d="M750.9 271l2.9 0l0 -2.5l-2.9 0Z" fill="rgb(227,73,2)" fill-opacity="0.3"></path>
<path d="M755.1 271l2.9 0l0 -2.2l-2.9 0Z" fill="rgb(227,73,2)" fill-opacity="0.3"></path>
<path d="M759.2 271l2.9 0l0 -2.2l-2.9 0Z" fill="rgb(227,73,2)" fill-opacity="0.3"></path>
<path d="M763.4 271l2.9 0l0 -2.2l-2.9 0Z" fill="rgb(227,73,2)" fill-opacity="0.3"></path>
<path d="M767.6 271l2.9 0l0 -2.2l-2.9 0Z" fill="rgb(227,73,2)" fill-opacity="0.3"></path>
<path d="M771.8 271l2.9 0l0 -1.9l-2.9 0Z" fill="rgb(227,73,2)" fill-opacity="0.3"></path>
<path d="M776 271l2.9 0l0 -1.8l-2.9 0Z" fill="rgb(227,73,2)" fill-opacity="0.3"></path>
<path d="M780.2 271l2.9 0l0 -1.8l-2.9 0Z" fill="rgb(227,73,2)" fill-opacity="0.3"></path>
<path d="M784.3 271l2.9 0l0 -1.8l-2.9 0Z" fill="rgb(227,73,2)" fill-opacity="0.3"></path>
<path d="M788.5 271l2.9 0l0 -1.6l-2.9 0Z" fill="rgb(227,73,2)" fill-opacity="0.3"></path>
<path d="M792.7 271l2.9 0l0 -1.2l-2.9 0Z" fill="rgb(227,73,2)" fill-opacity="0.3"></path>
<path d="M796.9 271l2.9 0l0 -1.2l-2.9 0Z" fill="rgb(227,73,2)" fill-opacity="0.3"></path>
<path d="M801.1 271l2.9 0l0 -1.1l-2.9 0Z" fill="rgb(227,73,2)" fill-opacity="0.3"></path>
<path d="M805.3 271l2.9 0l0 -0.8l-2.9 0Z" fill="rgb(227,73,2)" fill-opacity="0.3"></path>
<path d="M809.4 271l2.9 0l0 -0.7l-2.9 0Z" fill="rgb(227,73,2)" fill-opacity="0.3"></path>
<path d="M813.6 271l2.9 0l0 -0.6l-2.9 0Z" fill="rgb(227,73,2)" fill-opacity="0.3"></path>
<path d="M817.8 271l2.9 0l0 -0.6l-2.9 0Z" fill="rgb(227,73,2)" fill-opacity="0.3"></path>
<path d="M822 271l2.9 0l0 -0.5l-2.9 0Z" fill="rgb(227,73,2)" fill-opacity="0.3"></path>
<path d="M826.2 271l2.9 0l0 -0.5l-2.9 0Z" fill="rgb(227,73,2)" fill-opacity="0.3"></path>
<path d="M830.4 271l2.9 0l0 -0.5l-2.9 0Z" fill="rgb(227,73,2)" fill-opacity="0.3"></path>
<path d="M834.5 271l2.9 0l0 -0.5l-2.9 0Z" fill="rgb(227,73,2)" fill-opacity="0.3"></path>
<path d="M838.7 271l2.9 0l0 -0.5l-2.9 0Z" fill="rgb(227,73,2)" fill-opacity="0.3"></path>
<path d="M842.9 271l2.9 0l0 -0.4l-2.9 0Z" fill="rgb(227,73,2)" fill-opacity="0.3"></path>
<path d="M847.1 271l2.9 0l0 -0.4l-2.9 0Z" fill="rgb(227,73,2)" fill-opacity="0.3"></path>
<path d="M851.3 271l2.9 0l0 -0.2l-2.9 0Z" fill="rgb(227,73,2)" fill-opacity="0.3"></path>
<path d="M855.5 271l2.9 0l0 -0.2l-2.9 0Z" fill="rgb(227,73,2)" fill-opacity="0.3"></path>
<path d="M859.6 271l2.9 0l0 -0.2l-2.9 0Z" fill="rgb(227,73,2)" fill-opacity="0.3"></path>
<path d="M863.8 271l2.9 0l0 -0.2l-2.9 0Z" fill="rgb(227,73,2)" fill-opacity="0.3"></path>
<path d="M868 271l2.9 0l0 -0.2l-2.9 0Z" fill="rgb(227,73,2)" fill-opacity="0.3"></path>
<path d="M872.2 271l2.9 0l0 -0.1l-2.9 0Z" fill="rgb(227,73,2)" fill-opacity="0.3"></path>
<path d="M876.4 271l2.9 0l0 -0.1l-2.9 0Z" fill="rgb(227,73,2)" fill-opacity="0.3"></path>
<path d="M880.6 271l2.9 0l0 -0.1l-2.9 0Z" fill="rgb(227,73,2)" fill-opacity="0.3"></path>
<path d="M884.8 271l2.9 0l0 -0.1l-2.9 0Z" fill="rgb(227,73,2)" fill-opacity="0.3"></path>
<path d="M888.9 271l2.9 0l0 -0.1l-2.9 0Z" fill="rgb(227,73,2)" fill-opacity="0.3"></path>
<path d="M893.1 271l2.9 0l0 -0.1l-2.9 0Z" fill="rgb(227,73,2)" fill-opacity="0.3"></path>
<path d="M897.3 271l2.9 0l0 -0.1l-2.9 0Z" fill="rgb(227,73,2)" fill-opacity="0.3"></path>
<path d="M901.5 271l2.9 0l0 -0.1l-2.9 0Z" fill="rgb(227,73,2)" fill-opacity="0.3"></path>
<path d="M905.7 271l2.9 0l0 -0.1l-2.9 0Z" fill="rgb(227,73,2)" fill-opacity="0.3"></path>
<path d="M909.9 271l2.9 0l0 -0.1l-2.9 0Z" fill="rgb(227,73,2)" fill-opacity="0.3"></path>
<path d="M914 271l2.9 0l0 -0.1l-2.9 0Z" fill="rgb(227,73,2)" fill-opacity="0.3"></path>
<path d="M918.2 271l2.9 0l0 -0.1l-2.9 0Z" fill="rgb(227,73,2)" fill-opacity="0.3"></path>
<path d="M-5 -5l226.9 0l0 24l-226.9 0Z" transform="translate(391.54 5)" fill="rgb(0,0,0)" fill-opacity="0" stroke="#ccc" stroke-width="0"></path>
<path d="M3.5 0L21.5 0A3.5 3.5 0 0 1 25 3.5L25 10.5A3.5 3.5 0 0 1 21.5 14L3.5 14A3.5 3.5 0 0 1 0 10.5L0 3.5A3.5 3.5 0 0 1 3.5 0" transform="translate(391.54 5)" fill="rgb(227,73,2)" fill-opacity="0.3"></path>
<text dominant-baseline="central" text-anchor="start" style="font-size:12px;font-family:sans-serif;" xml:space="preserve" x="30" y="7" transform="translate(391.54 5)" fill="#333">Times completed</text>
<path d="M0 7L25 7" transform="translate(524.1 5)" fill="#000" stroke="#E34902" stroke-width="2" stroke-linecap="butt" stroke-miterlimit="10"></path>
<path d="M18.1 7A5.6 5.6 0 1 1 18.1 6.4A5.6 5.6 0 0 1 18.1 7" transform="translate(524.1 5)" fill="#fff" stroke="#E34902" stroke-width="2" stroke-linecap="butt" stroke-miterlimit="10"></path>
<text dominant-baseline="central" text-anchor="start" style="font-size:12px;font-family:sans-serif;" x="30" y="7" transform="translate(524.1 5)" fill="#333">Eddington</text>
<path d="M-0.54 -0.89A0.6 0.6 0 1 1 0.54 -0.89C0.39 -0.56 0 -0.42 0 0C0 -0.42 -0.39 -0.56 -0.54 -0.89Z" transform="matrix(25,0,0,25,551.4829,252.4022)" fill="rgb(227,73,2)" fill-opacity="0.8"></path>
<text dominant-baseline="central" text-anchor="middle" style="font-size:12px;font-family:sans-serif;" transform="translate(551.4829 226.2594)" fill="#eee" stroke="rgb(227,73,2)" stroke-width="2" paint-order="stroke" stroke-opacity="0.8" stroke-miterlimit="2">116</text>
<g clip-path="url(#zr0-c0)">
<path d="M70.3 270.9L74.5 270.8L78.7 270.6L82.9 270.5L87.1 270.4L91.3 270.3L95.4 270.2L99.6 270.1L103.8 269.9L108 269.8L112.2 269.7L116.4 269.6L120.5 269.5L124.7 269.4L128.9 269.2L133.1 269.1L137.3 269L141.5 268.9L145.6 268.8L149.8 268.7L154 268.5L158.2 268.4L162.4 268.3L166.6 268.2L170.7 268.1L174.9 268L179.1 267.8L183.3 267.7L187.5 267.6L191.7 267.5L195.8 267.4L200 267.2L204.2 267.1L208.4 267L212.6 266.9L216.8 266.8L221 266.7L225.1 266.5L229.3 266.4L233.5 266.3L237.7 266.2L241.9 266.1L246.1 266L250.2 265.8L254.4 265.7L258.6 265.6L262.8 265.5L267 265.4L271.2 265.3L275.3 265.1L279.5 265L283.7 264.9L287.9 264.8L292.1 264.7L296.3 264.6L300.4 264.4L304.6 264.3L308.8 264.2L313 264.1L317.2 264L321.4 263.8L325.6 263.7L329.7 263.6L333.9 263.5L338.1 263.4L342.3 263.3L346.5 263.1L350.7 263L354.8 262.9L359 262.8L363.2 262.7L367.4 262.6L371.6 262.4L375.8 262.3L379.9 262.2L384.1 262.1L388.3 262L392.5 261.9L396.7 261.7L400.9 261.6L405 261.5L409.2 261.4L413.4 261.3L417.6 261.2L421.8 261L426 260.9L430.1 260.8L434.3 260.7L438.5 260.6L442.7 260.5L446.9 260.3L451.1 260.2L455.3 260.1L459.4 260L463.6 259.9L467.8 259.7L472 259.6L476.2 259.5L480.4 259.4L484.5 259.3L488.7 259.2L492.9 259L497.1 258.9L501.3 258.8L505.5 258.7L509.6 258.6L513.8 258.5L518 258.3L522.2 258.2L526.4 258.1L530.6 258L534.7 257.9L538.9 257.8L543.1 257.6L547.3 257.5L551.5 257.4L555.7 257.3L559.9 257.2L564 257.1L568.2 256.9L572.4 256.8L576.6 256.7L580.8 256.6L585 256.5L589.1 256.3L593.3 256.2L597.5 256.1L601.7 256L605.9 255.9L610.1 255.8L614.2 255.6L618.4 255.5L622.6 255.4L626.8 255.3L631 255.2L635.2 255.1L639.3 254.9L643.5 254.8L647.7 254.7L651.9 254.6L656.1 254.5L660.3 254.4L664.4 254.2L668.6 254.1L672.8 254L677 253.9L681.2 253.8L685.4 253.7L689.6 253.5L693.7 253.4L697.9 253.3L702.1 253.2L706.3 253.1L710.5 252.9L714.7 252.8L718.8 252.7L723 252.6L727.2 252.5L731.4 252.4L735.6 252.2L739.8 252.1L743.9 252L748.1 251.9L752.3 251.8L756.5 251.7L760.7 251.5L764.9 251.4L769 251.3L773.2 251.2L777.4 251.1L781.6 251L785.8 250.8L790 250.7L794.2 250.6L798.3 250.5L802.5 250.4L806.7 250.3L810.9 250.1L815.1 250L819.3 249.9L823.4 249.8L827.6 249.7L831.8 249.5L836 249.4L840.2 249.3L844.4 249.2L848.5 249.1L852.7 249L856.9 248.8L861.1 248.7L865.3 248.6L869.5 248.5L873.6 248.4L877.8 248.3L882 248.1L886.2 248L890.4 247.9L894.6 247.8L898.7 247.7L902.9 247.6L907.1 247.4L911.3 247.3L915.5 247.2L919.7 247.1" fill="none" stroke="#E34902" stroke-width="2" stroke-linejoin="bevel"></path>
</g>
<defs >
<clipPath id="zr0-c0">
<path d="M67 59l856 0l0 213l-856 0Z" fill="#000"></path>
</clipPath>
</defs>
</svg>