<svg width="1000" height="300" xmlns="http://www.w3.org/2000/svg" xmlns:xlink="http://www.w3.org/1999/xlink" version="1.1" baseProfile="full" viewBox="0 0 1000 300">
<rect width="1000" height="300" x="0" y="0" id="0" fill="#ffffff"></rect>
<path d="M68.2 271.5L921.8 271.5" fill="none" stroke="#E0E6F1"></path>
<path d="M68.2 226.5L921.8 226.5" fill="none" stroke="#E0E6F1"></path>
<path d="M68.2 181.5L921.8 181.5" fill="none" stroke="#E0E6F1"></path>
<path d="M68.2 136.5L921.8 136.5" fill="none" stroke="#E0E6F1"></path>
<path d="M68.2 91.5L921.8 91.5" fill="none" stroke="#E0E6F1"></path>
<path d="M68.2 60.5L921.8 60.5" fill="none" stroke="#E0E6F1"></path>
<path d="M68.2 271.5L921.8 271.5" fill="none" stroke="#6E7079" stroke-linecap="round"></path>
<path d="M70.5 271L70.5 276" fill="none" stroke="#6E7079"></path>
<path d="M120.5 271L120.5 276" fill="none" stroke="#6E7079"></path>
<path d="M170.5 271L170.5 276" fill="none" stroke="#6E7079"></path>
<path d="M221.5 271L221.5 276" fill="none" stroke="#6E7079"></path>
<path d="M271.5 271L271.5 276" fill="none" stroke="#6E7079"></path>
<path d="M321.5 271L321.5 276" fill="none" stroke="#6E7079"></path>
<path d="M371.5 271L371.5 276" fill="none" stroke="#6E7079"></path>
<path d="M422.5 271L422.5 276" fill="none" stroke="#6E7079"></path>
<path d="M472.5 271L472.5 276" fill="none" stroke="#6E7079"></path>
<path d="M522.5 271L522.5 276" fill="none" stroke="#6E7079"></path>
<path d="M572.5 271L572.5 276" fill="none" stroke="#6E7079"></path>
<path d="M622.5 271L622.5 276" fill="none" stroke="#6E7079"></path>
<path d="M673.5 271L673.5 276" fill="none" stroke="#6E7079"></path>
<path d="M723.5 271L723.5 276" fill="none" stroke="#6E7079"></path>
<path d="M773.5 271L773.5 276" fill="none" stroke="#6E7079"></path>
<path d="M823.5 271L823.5 276" fill="none" stroke="#6E7079"></path>
<path d="M873.5 271L873.5 276" fill="none" stroke="#6E7079"></path>
<text dominant-baseline="central" text-anchor="end" style="font-size:12px;font-family:sans-serif;" transform="translate(60.24 271)" fill="#6E7079">0</text>
<text dominant-baseline="central" text-anchor="end" style="font-size:12px;font-family:sans-serif;" transform="translate(60.24 226.0328)" fill="#6E7079">390</text>
<text dominant-baseline="central" text-anchor="end" style="font-size:12px;font-family:sans-serif;" transform="translate(60.24 181.0656)" fill="#6E7079">780</text>
<text dominant-baseline="central" text-anchor="end" style="font-size:12px;font-family:sans-serif;" transform="translate(60.24 136.0984)" fill="#6E7079">1,170</text>
<text dominant-baseline="central" text-anchor="end" style="font-size:12px;font-family:sans-serif;" transform="translate(60.24 91.1311)" fill="#6E7079">1,560</text>
<text dominant-baseline="central" text-anchor="end" style="font-size:12px;font-family:sans-serif;" transform="translate(60.24 60)" fill="#6E7079">1,830</text>
<text dominant-baseline="central" text-anchor="start" style="font-size:12px;font-family:sans-serif;" transform="translate(929.76 271)" fill="#6E7079">0</text>
<text dominant-baseline="central" text-anchor="start" style="font-size:12px;font-family:sans-serif;" transform="translate(929.76 226.0328)" fill="#6E7079">390</text>
<text dominant-baseline="central" text-anchor="start" style="font-size:12px;font-family:sans-serif;" transform="translate(929.76 181.0656)" fill="#6E7079">780</text>
<text dominant-baseline="central" text-anchor="start" style="font-size:12px;font-family:sans-serif;" transform="translate(929.76 136.0984)" fill="#6E7079">1,170</text>
<text dominant-baseline="central" text-anchor="start" style="font-size:12px;font-family:sans-serif;" transform="translate(929.76 91.1311)" fill="#6E7079">1,560</text>
<text dominant-baseline="central" text-anchor="start" style="font-size:12px;font-family:sans-serif;" transform="translate(929.76 60)" fill="#6E7079">1,830</text>
<text dominant-baseline="central" text-anchor="middle" style="font-size:12px;font-family:sans-serif;" y="6" transform="translate(70.332 279)" fill="#6E7079">1km</text>
<text dominant-baseline="central" text-anchor="middle" style="font-size:12px;font-family:sans-serif;" y="6" transform="translate(120.539 279)" fill="#6E7079">13km</text>
<text dominant-baseline="central" text-anchor="middle" style="font-size:12px;font-family:sans-serif;" y="6" transform="translate(170.7461 279)" fill="#6E7079">25km</text>
<text dominant-baseline="central" text-anchor="middle" style="font-size:12px;font-family:sans-serif;" y="6" transform="translate(220.9531 279)" fill="#6E7079">37km</text>
<text dominant-baseline="central" text-anchor="middle" style="font-size:12px;font-family:sans-serif;" y="6" transform="translate(271.1602 279)" fill="#6E7079">49km</text>
<text dominant-baseline="central" text-anchor="middle" style="font-size:12px;font-family:sans-serif;" y="6" transform="translate(321.3673 279)" fill="#6E7079">61km</text>
<text dominant-baseline="central" text-anchor="middle" style="font-size:12px;font-family:sans-serif;" y="6" transform="translate(371.5743 279)" fill="#6E7079">73km</text>
<text dominant-baseline="central" text-anchor="middle" style="font-size:12px;font-family:sans-serif;" y="6" transform="translate(421.7814 279)" fill="#6E7079">85km</text>
<text dominant-baseline="central" text-anchor="middle" style="font-size:12px;font-family:sans-serif;" y="6" transform="translate(471.9884 279)" fill="#6E7079">97km</text>
<text dominant-baseline="central" text-anchor="middle" style="font-size:12px;font-family:sans-serif;" y="6" transform="translate(522.1955 279)" fill="#6E7079">109km</text>
<text dominant-baseline="central" text-anchor="middle" style="font-size:12px;font-family:sans-serif;" y="6" transform="translate(572.4025 279)" fill="#6E7079">121km</text>
<text dominant-baseline="central" text-anchor="middle" style="font-size:12px;font-family:sans-serif;" y="6" transform="translate(622.6096 279)" fill="#6E7079">133km</text>
<text dominant-baseline="central" text-anchor="middle" style="font-size:12px;font-family:sans-serif;" y="6" transform="translate(672.8167 279)" fill="#6E7079">145km</text>
<text dominant-baseline="central" text-anchor="middle" style="font-size:12px;font-family:sans-serif;" y="6" transform="translate(723.0237 279)" fill="#6E7079">157km</text>
<text dominant-baseline="central" text-anchor="middle" style="font-size:12px;font-family:sans-serif;" y="6" transform="translate(773.2308 279)" fill="#6E7079">169km</text>
<text dominant-baseline="central" text-anchor="middle" style="font-size:12px;font-family:sans-serif;" y="6" transform="translate(823.4378 279)" fill="#6E7079">181km</text>
<text dominant-baseline="central" text-anchor="middle" style="font-size:12px;font-family:sans-serif;" y="6" transform="translate(873.6449 279)" fill="#6E7079">193km</text>
<path d="M68.9 271l2.9 0l0 -208.7l-2.9 0Z" fill="rgb(227,73,2)" fill-opacity="0.3"></path>
<path d="M73.1 271l2.9 0l0 -208.2l-2.9 0Z" fill="rgb(227,73,2)" fill-opacity="0.3"></path>
<path d="M77.3 271l2.9 0l0 -207.4l-2.9 0Z" fill="rgb(227,73,2)" fill-opacity="0.3"></path>
<path d="M81.4 271l2.9 0l0 -205.4l-2.9 0Z" fill="rgb(227,73,2)" fill-opacity="0.3"></path>
<path d="M85.6 271l2.9 0l0 -203.7l-2.9 0Z" fill="rgb(227,73,2)" fill-opacity="0.3"></path>
<path d="M89.8 271l2.9 0l0 -200.2l-2.9 0Z" fill="rgb(227,73,2)" fill-opacity="0.3"></path>
<path d="M94 271l2.9 0l0 -195.2l-2.9 0Z" fill="rgb(227,73,2)" fill-opacity="0.3"></path>
<path d="M98.2 271l2.9 0l0 -194.5l-2.9 0Z" fill="rgb(227,73,2)" fill-opacity="0.3"></path>
<path d="M102.4 271l2.9 0l0 -193.9l-2.9 0Z" fill="rgb(227,73,2)" fill-opacity="0.3"></path>
<path d="M106.5 271l2.9 0l0 -193l-2.9 0Z" fill="rgb(227,73,2)" fill-opacity="0.3"></path>
<path d="M110.7 271l2.9 0l0 -191.9l-2.9 0Z" fill="rgb(227,73,2)" fill-opacity="0.3"></path>
<path d="M114.9 271l2.9 0l0 -190.8l-2.9 0Z" fill="rgb(227,73,2)" fill-opacity="0.3"></path>
<path d="M119.1 271l2.9 0l0 -171.1l-2.9 0Z" fill="rgb(227,73,2)" fill-opacity="0.3"></path>
<path d="M123.3 271l2.9 0l0 -164.1l-2.9 0Z" fill="rgb(227,73,2)" fill-opacity="0.3"></path>
<path d="M127.5 271l2.9 0l0 -163.5l-2.9 0Z" fill="rgb(227,73,2)" fill-opacity="0.3"></path>
<path d="M131.6 271l2.9 0l0 -162.2l-2.9 0Z" fill="rgb(227,73,2)" fill-opacity="0.3"></path>
<path d="M135.8 271l2.9 0l0 -161l-2.9 0Z" fill="rgb(227,73,2)" fill-opacity="0.3"></path>
<path d="M140 271l2.9 0l0 -160l-2.9 0Z" fill="rgb(227,73,2)" fill-opacity="0.3"></path>
<path d="M144.2 271l2.9 0l0 -159.1l-2.9 0Z" fill="rgb(227,73,2)" fill-opacity="0.3"></path>
<path d="M148.4 271l2.9 0l0 -158.3l-2.9 0Z" fill="rgb(227,73,2)" fill-opacity="0.3"></path>
<path d="M152.6 271l2.9 0l0 -157.4l-2.9 0Z" fill="rgb(227,73,2)" fill-opacity="0.3"></path>
<path d="M156.8 271l2.9 0l0 -157.3l-2.9 0Z" fill="rgb(227,73,2)" fill-opacity="0.3"></path>
<path d="M160.9 271l2.9 0l0 -156.5l-2.9 0Z" fill="rgb(227,73,2)" fill-opacity="0.3"></path>
<path d="M165.1 271l2.9 0l0 -155l-2.9 0Z" fill="rgb(227,73,2)" fill-opacity="0.3"></path>
<path d="M169.3 271l2.9 0l0 -153.7l-2.9 0Z" fill="rgb(227,73,2)" fill-opacity="0.3"></path>
<path d="M173.5 271l2.9 0l0 -152.4l-2.9 0Z" fill="rgb(227,73,2)" fill-opacity="0.3"></path>
<path d="M177.7 271l2.9 0l0 -151.5l-2.9 0Z" fill="rgb(227,73,2)" fill-opacity="0.3"></path>
<path d="M181.9 271l2.9 0l0 -150l-2.9 0Z" fill="rgb(227,73,2)" fill-opacity="0.3"></path>
<path d="M186 271l2.9 0l0 -149.4l-2.9 0Z" fill="rgb(227,73,2)" fill-opacity="0.3"></path>
<path d="M190.2 271l2.9 0l0 -147.8l-2.9 0Z" fill="rgb(227,73,2)" fill-opacity="0.3"></path>
<path d="M194.4 271l2.9 0l0 -145.3l-2.9 0Z" fill="rgb(227,73,2)" fill-opacity="0.3"></path>
<path d="M198.6 271l2.9 0l0 -143.4l-2.9 0Z" fill="rgb(227,73,2)" fill-opacity="0.3"></path>
<path d="M202.8 271l2.9 0l0 -140l-2.9 0Z" fill="rgb(227,73,2)" fill-opacity="0.3"></path>
<path d="M207 271l2.9 0l0 -137.7l-2.9 0Z" fill="rgb(227,73,2)" fill-opacity="0.3"></path>
<path d="M211.1 271l2.9 0l0 -133.3l-2.9 0Z" fill="rgb(227,73,2)" fill-opacity="0.3"></path>
<path d="M215.3 271l2.9 0l0 -128.8l-2.9 0Z" fill="rgb(227,73,2)" fill-opacity="0.3"></path>
<path d="M219.5 271l2.9 0l0 -126.1l-2.9 0Z" fill="rgb(227,73,2)" fill-opacity="0.3"></path>
<path d="M223.7 271l2.9 0l0 -122.8l-2.9 0Z" fill="rgb(227,73,2)" fill-opacity="0.3"></path>
<path d="M227.9 271l2.9 0l0 -119.6l-2.9 0Z" fill="rgb(227,73,2)" fill-opacity="0.3"></path>
<path d="M232.1 271l2.9 0l0 -117.1l-2.9 0Z" fill="rgb(227,73,2)" fill-opacity="0.3"></path>
<path d="M236.2 271l2.9 0l0 -113.5l-2.9 0Z" fill="rgb(227,73,2)" fill-opacity="0.3"></path>
<path d="M240.4 271l2.9 0l0 -110.6l-2.9 0Z" fill="rgb(227,73,2)" fill-opacity="0.3"></path>
<path d="M244.6 271l2.9 0l0 -106.5l-2.9 0Z" fill="rgb(227,73,2)" fill-opacity="0.3"></path>
<path d="M248.8 271l2.9 0l0 -104.3l-2.9 0Z" fill="rgb(227,73,2)" fill-opacity="0.3"></path>
<path d="M253 271l2.9 0l0 -102.7l-2.9 0Z" fill="rgb(227,73,2)" fill-opacity="0.3"></path>
<path d="M257.2 271l2.9 0l0 -101.6l-2.9 0Z" fill="rgb(227,73,2)" fill-opacity="0.3"></path>
<path d="M261.3 271l2.9 0l0 -99.9l-2.9 0Z" fill="rgb(227,73,2)" fill-opacity="0.3"></path>
<path d="M265.5 271l2.9 0l0 -98.8l-2.9 0Z" fill="rgb(227,73,2)" fill-opacity="0.3"></path>
<path d="M269.7 271l2.9 0l0 -95.4l-2.9 0Z" fill="rgb(227,73,2)" fill-opacity="0.3"></path>
<path d="M273.9 271l2.9 0l0 -93.7l-2.9 0Z" fill="rgb(227,73,2)" fill-opacity="0.3"></path>
<path d="M278.1 271l2.9 0l0 -91.1l-2.9 0Z" fill="rgb(227,73,2)" fill-opacity="0.3"></path>
<path d="M282.3 271l2.9 0l0 -89.8l-2.9 0Z" fill="rgb(227,73,2)" fill-opacity="0.3"></path>
<path d="M286.5 271l2.9 0l0 -88.4l-2.9 0Z" fill="rgb(227,73,2)" fill-opacity="0.3"></path>
<path d="M290.6 271l2.9 0l0 -85.8l-2.9 0Z" fill="rgb(227,73,2)" fill-opacity="0.3"></path>
<path d="M294.8 271l2.9 0l0 -83.9l-2.9 0Z" fill="rgb(227,73,2)" fill-opacity="0.3"></path>
<path d="M299 271l2.9 0l0 -82.3l-2.9 0Z" fill="rgb(227,73,2)" fill-opacity="0.3"></path>
<path d="M303.2 271l2.9 0l0 -80.9l-2.9 0Z" fill="rgb(227,73,2)" fill-opacity="0.3"></path>
<path d="M307.4 271l2.9 0l0 -80.1l-2.9 0Z" fill="rgb(227,73,2)" fill-opacity="0.3"></path>
<path d="M311.6 271l2.9 0l0 -78.9l-2.9 0Z" fill="rgb(227,73,2)" fill-opacity="0.3"></path>
<path d="M315.7 271l2.9 0l0 -77l-2.9 0Z" fill="rgb(227,73,2)" fill-opacity="0.3"></path>
<path d="M319.9 271l2.9 0l0 -76.1l-2.9 0Z" fill="rgb(227,73,2)" fill-opacity="0.3"></path>
<path d="M324.1 271l2.9 0l0 -74.6l-2.9 0Z" fill="rgb(227,73,2)" fill-opacity="0.3"></path>
<path d="M328.3 271l2.9 0l0 -73.8l-2.9 0Z" fill="rgb(227,73,2)" fill-opacity="0.3"></path>
<path d="M332.5 271l2.9 0l0 -72.4l-2.9 0Z" fill="rgb(227,73,2)" fill-opacity="0.3"></path>
<path d="M336.7 271l2.9 0l0 -70.7l-2.9 0Z" fill="rgb(227,73,2)" fill-opacity="0.3"></path>
<path d="M340.8 271l2.9 0l0 -69.1l-2.9 0Z" fill="rgb(227,73,2)" fill-opacity="0.3"></path>
<path d="M345 271l2.9 0l0 -67l-2.9 0Z" fill="rgb(227,73,2)" fill-opacity="0.3"></path>
<path d="M349.2 271l2.9 0l0 -64.8l-2.9 0Z" fill="rgb(227,73,2)" fill-opacity="0.3"></path>
<path d="M353.4 271l2.9 0l0 -63.6l-2.9 0Z" fill="rgb(227,73,2)" fill-opacity="0.3"></path>
<path d="M357.6 271l2.9 0l0 -61.3l-2.9 0Z" fill="rgb(227,73,2)" fill-opacity="0.3"></path>
<path d="M361.8 271l2.9 0l0 -59.1l-2.9 0Z" fill="rgb(227,73,2)" fill-opacity="0.3"></path>
<path d="M365.9 271l2.9 0l0 -57.5l-2.9 0Z" fill="rgb(227,73,2)" fill-opacity="0.3"></path>
<path d="M370.1 271l2.9 0l0 -55.9l-2.9 0Z" fill="rgb(227,73,2)" fill-opacity="0.3"></path>
<path d="M374.3 271l2.9 0l0 -54.9l-2.9 0Z" fill="rgb(227,73,2)" fill-opacity="0.3"></path>
<path d="M378.5 271l2.9 0l0 -52.8l-2.9 0Z" fill="rgb(227,73,2)" fill-opacity="0.3"></path>
<path d="M382.7 271l2.9 0l0 -51.2l-2.9 0Z" fill="rgb(227,73,2)" fill-opacity="0.3"></path>
<path d="M386.9 271l2.9 0l0 -50.2l-2.9 0Z" fill="rgb(227,73,2)" fill-opacity="0.3"></path>
<path d="M391.1 271l2.9 0l0 -48.9l-2.9 0Z" fill="rgb(227,73,2)" fill-opacity="0.3"></path>
<path d="M395.2 271l2.9 0l0 -47.8l-2.9 0Z" fill="rgb(227,73,2)" fill-opacity="0.3"></path>
<path d="M399.4 271l2.9 0l0 -46.6l-2.9 0Z" fill="rgb(227,73,2)" fill-opacity="0.3"></path>
<path d="M403.6 271l2.9 0l0 -44.5l-2.9 0Z" fill="rgb(227,73,2)" fill-opacity="0.3"></path>
<path d="M407.8 271l2.9 0l0 -43.2l-2.9 0Z" fill="rgb(227,73,2)" fill-opacity="0.3"></path>
<path d="M412 271l2.9 0l0 -42.3l-2.9 0Z" fill="rgb(227,73,2)" fill-opacity="0.3"></path>
<path d="M416.2 271l2.9 0l0 -40.7l-2.9 0Z" fill="rgb(227,73,2)" fill-opacity="0.3"></path>
<path d="M420.3 271l2.9 0l0 -39.7l-2.9 0Z" fill="rgb(227,73,2)" fill-opacity="0.3"></path>
<path d="M424.5 271l2.9 0l0 -38.5l-2.9 0Z" fill="rgb(227,73,2)" fill-opacity="0.3"></path>
<path d="M428.7 271l2.9 0l0 -37.5l-2.9 0Z" fill="rgb(227,73,2)" fill-opacity="0.3"></path>
<path d="M432.9 271l2.9 0l0 -36.1l-2.9 0Z" fill="rgb(227,73,2)" fill-opacity="0.3"></path>
<path d="M437.1 271l2.9 0l0 -34.9l-2.9 0Z" fill="rgb(227,73,2)" fill-opacity="0.3"></path>
<path d="M441.3 271l2.9 0l0 -33.6l-2.9 0Z" fill="rgb(227,73,2)" fill-opacity="0.3"></path>
<path d="M445.4 271l2.9 0l0 -31.7l-2.9 0Z" fill="rgb(227,73,2)" fill-opacity="0.3"></path>
<path d="M449.6 271l2.9 0l0 -30.2l-2.9 0Z" fill="rgb(227,73,2)" fill-opacity="0.3"></path>
<path d="M453.8 271l2.9 0l0 -28.9l-2.9 0Z" fill="rgb(227,73,2)" fill-opacity="0.3"></path>
<path d="M458 271l2.9 0l0 -27.7l-2.9 0Z" fill="rgb(227,73,2)" fill-opacity="0.3"></path>
<path d="M462.2 271l2.9 0l0 -27.2l-2.9 0Z" fill="rgb(227,73,2)" fill-opacity="0.3"></path>
<path d="M466.4 271l2.9 0l0 -26.9l-2.9 0Z" fill="rgb(227,73,2)" fill-opacity="0.3"></path>
<path d="M470.5 271l2.9 0l0 -26.1l-2.9 0Z" fill="rgb(227,73,2)" fill-opacity="0.3"></path>
<path d="M474.7 271l2.9 0l0 -25.5l-2.9 0Z" fill="rgb(227,73,2)" fill-opacity="0.3"></path>
<path d="M478.9 271l2.9 0l0 -25l-2.9 0Z" fill="rgb(227,73,2)" fill-opacity="0.3"></path>
<path d="M483.1 271l2.9 0l0 -24.6l-2.9 0Z" fill="rgb(227,73,2)" fill-opacity="0.3"></path>
<path d="M487.3 271l2.9 0l0 -23.4l-2.9 0Z" fill="rgb(227,73,2)" fill-opacity="0.3"></path>
<path d="M491.5 271l2.9 0l0 -21.6l-2.9 0Z" fill="rgb(227,73,2)" fill-opacity="0.3"></path>
<path d="M495.6 271l2.9 0l0 -21l-2.9 0Z" fill="rgb(227,73,2)" fill-opacity="0.3"></path>
<path d="M499.8 271l2.9 0l0 -19.9l-2.9 0Z" fill="rgb(227,73,2)" fill-opacity="0.3"></path>
<path d="M504 271l2.9 0l0 -19l-2.9 0Z" fill="rgb(227,73,2)" fill-opacity="0.3"></path>
<path d="M508.2 271l2.9 0l0 -18.4l-2.9 0Z" fill="rgb(227,73,2)" fill-opacity="0.3"></path>
<path d="M512.4 271l2.9 0l0 -17.9l-2.9 0Z" fill="rgb(227,73,2)" fill-opacity="0.3"></path>
<path d="M516.6 271l2.9 0l0 -17.6l-2.9 0Z" fill="rgb(227,73,2)" fill-opacity="0.3"></path>
<path d="M520.8 271l2.9 0l0 -16.9l-2.9 0Z" fill="rgb(227,73,2)" fill-opacity="0.3"></path>
<path d="M524.9 271l2.9 0l0 -16.5l-2.9 0Z" fill="rgb(227,73,2)" fill-opacity="0.3"></path>
<path d="M529.1 271l2.9 0l0 -16.1l-2.9 0Z" fill="rgb(227,73,2)" fill-opacity="0.3"></path>
<path d="M533.3 271l2.9 0l0 -15.6l-2.9 0Z" fill="rgb(227,73,2)" fill-opacity="0.3"></path>
<path d="M537.5 271l2.9 0l0 -14.8l-2.9 0Z" fill="rgb(227,73,2)" fill-opacity="0.3"></path>
<path d="M541.7 271l2.9 0l0 -14l-2.9 0Z" fill="rgb(227,73,2)" fill-opacity="0.3"></path>
<path d="M545.9 271l2.9 0l0 -13.6l-2.9 0Z" fill="rgb(227,73,2)" fill-opacity="0.3"></path>
<path d="M550 271l2.9 0l0 -13.5l-2.9 0Z" fill="rgb(227,73,2)" fill-opacity="0.8"></path>
<path d="M554.2 271l2.9 0l0 -12.8l-2.9 0Z" fill="rgb(227,73,2)" fill-opacity="0.3"></path>
<path d="M558.4 271l2.9 0l0 -12.8l-2.9 0Z" fill="rgb(227,73,2)" fill-opacity="0.3"></path>
<path d="M562.6 271l2.9 0l0 -12.5l-2.9 0Z" fill="rgb(227,73,2)" fill-opacity="0.3"></path>
<path d="M566.8 271l2.9 0l0 -12.2l-2.9 0Z" fill="rgb(227,73,2)" fill-opacity="0.3"></path>
<path d="M571 271l2.9 0l0 -12l-2.9 0Z" fill="rgb(227,73,2)" fill-opacity="0.3"></path>
<path d="M575.1 271l2.9 0l0 -11.8l-2.9 0Z" fill="rgb(227,73,2)" fill-opacity="0.3"></path>
<path d="M579.3 271l2.9 0l0 -11.5l-2.9 0Z" fill="rgb(227,73,2)" fill-opacity="0.3"></path>
<path d="M583.5 271l2.9 0l0 -11.3l-2.9 0Z" fill="rgb(227,73,2)" fill-opacity="0.3"></path>
<path d="M587.7 271l2.9 0l0 -11l-2.9 0Z" fill="rgb(227,73,2)" fill-opacity="0.3"></path>
<path d="M591.9 271l2.9 0l0 -10.7l-2.9 0Z" fill="rgb(227,73,2)" fill-opacity="0.3"></path>
<path d="M596.1 271l2.9 0l0 -10l-2.9 0Z" fill="rgb(227,73,2)" fill-opacity="0.3"></path>
<path d="M600.2 271l2.9 0l0 -9.2l-2.9 0Z" fill="rgb(227,73,2)" fill-opacity="0.3"></path>
<path d="M604.4 271l2.9 0l0 -9l-2.9 0Z" fill="rgb(227,73,2)" fill-opacity="0.3"></path>
<path d="M608.6 271l2.9 0l0 -8.8l-2.9 0Z" fill="rgb(227,73,2)" fill-opacity="0.3"></path>
<path d="M612.8 271l2.9 0l0 -8.3l-2.9 0Z" fill="rgb(227,73,2)" fill-opacity="0.3"></path>
<path d="M617 271l2.9 0l0 -8.1l-2.9 0Z" fill="rgb(227,73,2)" fill-opacity="0.3"></path>
<path d="M621.2 271l2.9 0l0 -7.6l-2.9 0Z" fill="rgb(227,73,2)" fill-opacity="0.3"></path>
<path d="M625.4 271l2.9 0l0 -7.3l-2.9 0Z" fill="rgb(227,73,2)" fill-opacity="0.3"></path>
<path d="M629.5 271l2.9 0l0 -6.9l-2.9 0Z" fill="rgb(227,73,2)" fill-opacity="0.3"></path>
<path d="M633.7 271l2.9 0l0 -6.3l-2.9 0Z" fill="rgb(227,73,2)" fill-opacity="0.3"></path>
<path d="M637.9 271l2.9 0l0 -6.1l-2.9 0Z" fill="rgb(227,73,2)" fill-opacity="0.3"></path>
<path d="M642.1 271l2.9 0l0 -6l-2.9 0Z" fill="rgb(227,73,2)" fill-opacity="0.3"></path>
<path d="M646.3 271l2.9 0l0 -5.8l-2.9 0Z" fill="rgb(227,73,2)" fill-opacity="0.3"></path>
<path d="M650.5 271l2.9 0l0 -5.4l-2.9 0Z" fill="rgb(227,73,2)" fill-opacity="0.3"></path>
<path d="M654.6 271l2.9 0l0 -5.1l-2.9 0Z" fill="rgb(227,73,2)" fill-opacity="0.3"></path>
<path d="M658.8 271l2.9 0l0 -5l-2.9 0Z" fill="rgb(227,73,2)" fill-opacity="0.3"></path>
<path d="M663 271l2.9 0l0 -5l-2.9 0Z" fill="rgb(227,73,2)" fill-opacity="0.3"></path>
<path d="M667.2 271l2.9 0l0 -4.8l-2.9 0Z" fill="rgb(227,73,2)" fill-opacity="0.3"></path>
<path d="M671.4 271l2.9 0l0 -4.8l-2.9 0Z" fill="rgb(227,73,2)" fill-opacity="0.3"></path>
<path d="M675.6 271l2.9 0l0 -4.6l-2.9 0Z" fill="rgb(227,73,2)" fill-opacity="0.3"></path>
<path d="M679.7 271l2.9 0l0 -4.6l-2.9 0Z" fill="rgb(227,73,2)" fill-opacity="0.3"></path>
<path d="M683.9 271l2.9 0l0 -4.6l-2.9 0Z" fill="rgb(227,73,2)" fill-opacity="0.3"></path>
<path d="M688.1 271l2.9 0l0 -4.5l-2.9 0Z" fill="rgb(227,73,2)" fill-opacity="0.3"></path>
<path d="M692.3 271l2.9 0l0 -4.5l-2.9 0Z" fill="rgb(227,73,2)" fill-opacity="0.3"></path>
<path d="M696.5 271l2.9 0l0 -4.5l-2.9 0Z" fill="rgb(227,73,2)" fill-opacity="0.3"></path>
<path d="M700.7 271l2.9 0l0 -4.5l-2.9 0Z" fill="rgb(227,73,2)" fill-opacity="0.3"></path>
<path d="M704.8 271l2.9 0l0 -4.4l-2.9 0Z" fill="rgb(227,73,2)" fill-opacity="0.3"></path>
<path d="M709 271l2.9 0l0 -4.4l-2.9 0Z" fill="rgb(227,73,2)" fill-opacity="0.3"></path>
<path d="M713.2 271l2.9 0l0 -3.9l-2.9 0Z" fill="rgb(227,73,2)" fill-opacity="0.3"></path>
<path d="M717.4 271l2.9 0l0 -3.9l-2.9 0Z" fill="rgb(227,73,2)" fill-opacity="0.3"></path>
<path d="M721.6 271l2.9 0l0 -3.8l-2.9 0Z" fill="rgb(227,73,2)" fill-opacity="0.3"></path>
<path d="M725.8 271l2.9 0l0 -3.8l-2.9 0Z" fill="rgb(227,73,2)" fill-opacity="0.3"></path>
<path d="M729.9 271l2.9 0l0 -3.7l-2.9 0Z" fill="rgb(227,73,2)" fill-opacity="0.3"></path>
<path d="M734.1 271l2.9 0l0 -3.7l-2.9 0Z" fill="rgb(227,73,2)" fill-opacity="0.3"></path>
<path d="M738.3 271l2.9 0l0 -3.7l-2.9 0Z" fill="rgb(227,73,2)" fill-opacity="0.3"></path>
<path d="M742.5 271l2.9 0l0 -2.9l-2.9 0Z" fill="rgb(227,73,2)" fill-opacity="0.3"></path>
<path d="M746.7 271l2.9 0l0 -2.4l-2.9 0Z" fill="rgb(227,73,2)" fill-opacity="0.3"></path>
<path d="M750.9 271l2.9 0l0 -2.4l-2.9 0Z" fill="rgb(227,73,2)" fill-opacity="0.3"></path>
<path d="M755.1 271l2.9 0l0 -2.2l-2.9 0Z" fill="rgb(227,73,2)" fill-opacity="0.3"></path>
<path d="M759.2 271l2.9 0l0 -2.2l-2.9 0Z" fill="rgb(227,73,2)" fill-opacity="0.3"></path>
<path d="M763.4 271l2.9 0l0 -2.2l-2.9 0Z" fill="rgb(227,73,2)" fill-opacity="0.3"></path>
<path d="M767.6 271l2.9 0l0 -2.2l-2.9 0Z" fill="rgb(227,73,2)" fill-opacity="0.3"></path>
<path d="M771.8 271l2.9 0l0 -1.8l-2.9 0Z" fill="rgb(227,73,2)" fill-opacity="0.3"></path>
<path d="M776 271l2.9 0l0 -1.7l-2.9 0Z" fill="rgb(227,73,2)" fill-opacity="0.3"></path>
<path d="M780.2 271l2.9 0l0 -1.7l-2.9 0Z" fill="rgb(227,73,2)" fill-opacity="0.3"></path>
<path d="M784.3 271l2.9 0l0 -1.7l-2.9 0Z" fill="rgb(227,73,2)" fill-opacity="0.3"></path>
<path d="M788.5 271l2.9 0l0 -1.6l-2.9 0Z" fill="rgb(227,73,2)" fill-opacity="0.3"></path>
<path d="M792.7 271l2.9 0l0 -1.2l-2.9 0Z" fill="rgb(227,73,2)" fill-opacity="0.3"></path>
<path d="M796.9 271l2.9 0l0 -1.2l-2.9 0Z" fill="rgb(227,73,2)" fill-opacity="0.3"></path>
<path d="M801.1 271l2.9 0l0 -1l-2.9 0Z" fill="rgb(227,73,2)" fill-opacity="0.3"></path>
<path d="M805.3 271l2.9 0l0 -0.8l-2.9 0Z" fill="rgb(227,73,2)" fill-opacity="0.3"></path>
<path d="M809.4 271l2.9 0l0 -0.7l-2.9 0Z" fill="rgb(227,73,2)" fill-opacity="0.3"></path>
<path d="M813.6 271l2.9 0l0 -0.6l-2.9 0Z" fill="rgb(227,73,2)" fill-opacity="0.3"></path>
<path d="M817.8 271l2.9 0l0 -0.6l-2.9 0Z" fill="rgb(227,73,2)" fill-opacity="0.3"></path>
<path d="M822 271l2.9 0l0 -0.5l-2.9 0Z" fill="rgb(227,73,2)" fill-opacity="0.3"></path>
<path d="M826.2 271l2.9 0l0 -0.5l-2.9 0Z" fill="rgb(227,73,2)" fill-opacity="0.3"></path>
<path d="M830.4 271l2.9 0l0 -0.5l-2.9 0Z" fill="rgb(227,73,2)" fill-opacity="0.3"></path>
<path d="M834.5 271l2.9 0l0 -0.5l-2.9 0Z" fill="rgb(227,73,2)" fill-opacity="0.3"></path>
<path d="M838.7 271l2.9 0l0 -0.5l-2.9 0Z" fill="rgb(227,73,2)" fill-opacity="0.3"></path>
<path d="M842.9 271l2.9 0l0 -0.3l-2.9 0Z" fill="rgb(227,73,2)" fill-opacity="0.3"></path>
<path d="M847.1 271l2.9 0l0 -0.3l-2.9 0Z" fill="rgb(227,73,2)" fill-opacity="0.3"></path>
<path d="M851.3 271l2.9 0l0 -0.2l-2.9 0Z" fill="rgb(227,73,2)" fill-opacity="0.3"></path>
<path d="M855.5 271l2.9 0l0 -0.2l-2.9 0Z" fill="rgb(227,73,2)" fill-opacity="0.3"></path>
<path d="M859.6 271l2.9 0l0 -0.2l-2.9 0Z" fill="rgb(227,73,2)" fill-opacity="0.3"></path>
<path d="M863.8 271l2.9 0l0 -0.2l-2.9 0Z" fill="rgb(227,73,2)" fill-opacity="0.3"></path>
<path d="M868 271l2.9 0l0 -0.2l-2.9 0Z" fill="rgb(227,73,2)" fill-opacity="0.3"></path>
<path d="M872.2 271l2.9 0l0 -0.1l-2.9 0Z" fill="rgb(227,73,2)" fill-opacity="0.3"></path>
<path d="M876.4 271l2.9 0l0 -0.1l-2.9 0Z" fill="rgb(227,73,2)" fill-opacity="0.3"></path>
<path d="M880.6 271l2.9 0l0 -0.1l-2.9 0Z" fill="rgb(227,73,2)" fill-opacity="0.3"></path>
<path d="M884.8 271l2.9 0l0 -0.1l-2.9 0Z" fill="rgb(227,73,2)" fill-opacity="0.3"></path>
<path d="M888.9 271l2.9 0l0 -0.1l-2.9 0Z" fill="rgb(227,73,2)" fill-opacity="0.3"></path>
<path d="M893.1 271l2.9 0l0 -0.1l-2.9 0Z" fill="rgb(227,73,2)" fill-opacity="0.3"></path>
<path d="M897.3 271l2.9 0l0 -0.1l-2.9 0Z" fill="rgb(227,73,2)" fill-opacity="0.3"></path>
<path d="M901.5 271l2.9 0l0 -0.1l-2.9 0Z" fill="rgb(227,73,2)" fill-opacity="0.3"></path>
<path d="M905.7 271l2.9 0l0 -0.1l-2.9 0Z" fill="rgb(227,73,2)" fill-opacity="0.3"></path>
<path d="M909.9 271l2.9 0l0 -0.1l-2.9 0Z" fill="rgb(227,73,2)" fill-opacity="0.3"></path>
<path d="M914 271l2.9 0l0 -0.1l-2.9 0Z" fill="rgb(227,73,2)" fill-opacity="0.3"></path>
<path d="M918.2 271l2.9 0l0 -0.1l-2.9 0Z" fill="rgb(227,73,2)" fill-opacity="0.3"></path>
<path d="M-5 -5l226.9 0l0 24l-226.9 0Z" transform="translate(391.54 5)" fill="rgb(0,0,0)" fill-opacity="0" stroke="#ccc" stroke-width="0"></path>
<path d="M3.5 0L21.5 0A3.5 3.5 0 0 1 25 3.5L25 10.5A3.5 3.5 0 0 1 21.5 14L3.5 14A3.5 3.5 0 0 1 0 10.5L0 3.5A3.5 3.5 0 0 1 3.5 0" transform="translate(391.54 5)" fill="rgb(227,73,2)" fill-opacity="0.3"></path>
<text dominant-baseline="central" text-anchor="start" style="font-size:12px;font-family:sans-serif;" xml:space="preserve" x="30" y="7" transform="translate(391.54 5)" fill="#333">Times completed</text>
<path d="M0 7L25 7" transform="translate(524.1 5)" fill="#000" stroke="#E34902" stroke-width="2" stroke-linecap="butt" stroke-miterlimit="10"></path>
<path d="M18.1 7A5.6 5.6 0 1 1 18.1 6.4A5.6 5.6 0 0 1 18.1 7" transform="translate(524.1 5)" fill="#fff" stroke="#E34902" stroke-width="2" stroke-linecap="butt" stroke-miterlimit="10"></path>
<text dominant-baseline="central" text-anchor="start" style="font-size:12px;font-family:sans-serif;" x="30" y="7" transform="translate(524.1 5)" fill="#333">Eddington</text>
<path d="M-0.54 -0.89A0.6 0.6 0 1 1 0.54 -0.89C0.39 -0.56 0 -0.42 0 0C0 -0.42 -0.39 -0.56 -0.54 -0.89Z" transform="matrix(25,0,0,25,551.4829,252.6251)" fill="rgb(227,73,2)" fill-opacity="0.8"></path>
<text dominant-baseline="central" text-anchor="middle" style="font-size:12px;font-family:sans-serif;" transform="translate(551.4829 226.4823)" fill="#eee" stroke="rgb(227,73,2)" stroke-width="2" paint-order="stroke" stroke-opacity="0.8" stroke-miterlimit="2">116</text>
<g clip-path="url(#zr0-c0)">
<path d="M70.3 270.9L74.5 270.8L78.7 270.7L82.9 270.5L87.1 270.4L91.3 270.3L95.4 270.2L99.6 270.1L103.8 270L108 269.8L112.2 269.7L116.4 269.6L120.5 269.5L124.7 269.4L128.9 269.3L133.1 269.2L137.3 269L141.5 268.9L145.6 268.8L149.8 268.7L154 268.6L158.2 268.5L162.4 268.3L166.6 268.2L170.7 268.1L174.9 268L179.1 267.9L183.3 267.8L187.5 267.7L191.7 267.5L195.8 267.4L200 267.3L204.2 267.2L208.4 267.1L212.6 267L216.8 266.8L221 266.7L225.1 266.6L229.3 266.5L233.5 266.4L237.7 266.3L241.9 266.2L246.1 266L250.2 265.9L254.4 265.8L258.6 265.7L262.8 265.6L267 265.5L271.2 265.4L275.3 265.2L279.5 265.1L283.7 265L287.9 264.9L292.1 264.8L296.3 264.7L300.4 264.5L304.6 264.4L308.8 264.3L313 264.2L317.2 264.1L321.4 264L325.6 263.9L329.7 263.7L333.9 263.6L338.1 263.5L342.3 263.4L346.5 263.3L350.7 263.2L354.8 263L359 262.9L363.2 262.8L367.4 262.7L371.6 262.6L375.8 262.5L379.9 262.4L384.1 262.2L388.3 262.1L392.5 262L396.7 261.9L400.9 261.8L405 261.7L409.2 261.5L413.4 261.4L417.6 261.3L421.8 261.2L426 261.1L430.1 261L434.3 260.9L438.5 260.7L442.7 260.6L446.9 260.5L451.1 260.4L455.3 260.3L459.4 260.2L463.6 260L467.8 259.9L472 259.8L476.2 259.7L480.4 259.6L484.5 259.5L488.7 259.4L492.9 259.2L497.1 259.1L501.3 259L505.5 258.9L509.6 258.8L513.8 258.7L518 258.5L522.2 258.4L526.4 258.3L530.6 258.2L534.7 258.1L538.9 258L543.1 257.9L547.3 257.7L551.5 257.6L555.7 257.5L559.9 257.4L564 257.3L568.2 257.2L572.4 257L576.6 256.9L580.8 256.8L585 256.7L589.1 256.6L593.3 256.5L597.5 256.4L601.7 256.2L605.9 256.1L610.1 256L614.2 255.9L618.4 255.8L622.6 255.7L626.8 255.5L631 255.4L635.2 255.3L639.3 255.2L643.5 255.1L647.7 255L651.9 254.9L656.1 254.7L660.3 254.6L664.4 254.5L668.6 254.4L672.8 254.3L677 254.2L681.2 254.1L685.4 253.9L689.6 253.8L693.7 253.7L697.9 253.6L702.1 253.5L706.3 253.4L710.5 253.2L714.7 253.1L718.8 253L723 252.9L727.2 252.8L731.4 252.7L735.6 252.6L739.8 252.4L743.9 252.3L748.1 252.2L752.3 252.1L756.5 252L760.7 251.9L764.9 251.7L769 251.6L773.2 251.5L777.4 251.4L781.6 251.3L785.8 251.2L790 251.1L794.2 250.9L798.3 250.8L802.5 250.7L806.7 250.6L810.9 250.5L815.1 250.4L819.3 250.2L823.4 250.1L827.6 250L831.8 249.9L836 249.8L840.2 249.7L844.4 249.6L848.5 249.4L852.7 249.3L856.9 249.2L861.1 249.1L865.3 249L869.5 248.9L873.6 248.7L877.8 248.6L882 248.5L886.2 248.4L890.4 248.3L894.6 248.2L898.7 248.1L902.9 247.9L907.1 247.8L911.3 247.7L915.5 247.6L919.7 247.5" fill="none" stroke="#E34902" stroke-width="2" stroke-linejoin="bevel"></path>
</g>
<defs >
<clipPath id="zr0-c0">
<path d="M67 59l856 0l0 213l-856 0Z" fill="#000"></path>
</clipPath>
</defs>
</svg>