<svg width="1000" height="300" xmlns="http://www.w3.org/2000/svg" xmlns:xlink="http://www.w3.org/1999/xlink" version="1.1" baseProfile="full" viewBox="0 0 1000 300">
<rect width="1000" height="300" x="0" y="0" id="0" fill="#ffffff"></rect>
<path d="M68.2 271.5L921.8 271.5" fill="none" stroke="#E0E6F1"></path>
<path d="M68.2 227.5L921.8 227.5" fill="none" stroke="#E0E6F1"></path>
<path d="M68.2 183.5L921.8 183.5" fill="none" stroke="#E0E6F1"></path>
<path d="M68.2 140.5L921.8 140.5" fill="none" stroke="#E0E6F1"></path>
<path d="M68.2 96.5L921.8 96.5" fill="none" stroke="#E0E6F1"></path>
<path d="M68.2 60.5L921.8 60.5" fill="none" stroke="#E0E6F1"></path>
<path d="M68.2 271.5L921.8 271.5" fill="none" stroke="#6E7079" stroke-linecap="round"></path>
<path d="M70.5 271L70.5 276" fill="none" stroke="#6E7079"></path>
<path d="M120.5 271L120.5 276" fill="none" stroke="#6E7079"></path>
<path d="M170.5 271L170.5 276" fill="none" stroke="#6E7079"></path>
<path d="M221.5 271L221.5 276" fill="none" stroke="#6E7079"></path>
<path d="M271.5 271L271.5 276" fill="none" stroke="#6E7079"></path>
<path d="M321.5 271L321.5 276" fill="none" stroke="#6E7079"></path>
<path d="M371.5 271L371.5 276" fill="none" stroke="#6E7079"></path>
<path d="M422.5 271L422.5 276" fill="none" stroke="#6E7079"></path>
<path d="M472.5 271L472.5 276" fill="none" stroke="#6E7079"></path>
<path d="M522.5 271L522.5 276" fill="none" stroke="#6E7079"></path>
<path d="M572.5 271L572.5 276" fill="none" stroke="#6E7079"></path>
<path d="M622.5 271L622.5 276" fill="none" stroke="#6E7079"></path>
<path d="M673.5 271L673.5 276" fill="none" stroke="#6E7079"></path>
<path d="M723.5 271L723.5 276" fill="none" stroke="#6E7079"></path>
<path d="M773.5 271L773.5 276" fill="none" stroke="#6E7079"></path>
<path d="M823.5 271L823.5 276" fill="none" stroke="#6E7079"></path>
<path d="M873.5 271L873.5 276" fill="none" stroke="#6E7079"></path>
<text dominant-baseline="central" text-anchor="end" style="font-size:12px;font-family:sans-serif;" transform="translate(60.24 271)" fill="#6E7079">0</text>
<text dominant-baseline="central" text-anchor="end" style="font-size:12px;font-family:sans-serif;" transform="translate(60.24 227.3448)" fill="#6E7079">360</text>
<text dominant-baseline="central" text-anchor="end" style="font-size:12px;font-family:sans-serif;" transform="translate(60.24 183.6897)" fill="#6E7079">720</text>
<text dominant-baseline="central" text-anchor="end" style="font-size:12px;font-family:sans-serif;" transform="translate(60.24 140.0345)" fill="#6E7079">1,080</text>
<text dominant-baseline="central" text-anchor="end" style="font-size:12px;font-family:sans-serif;" transform="translate(60.24 96.3793)" fill="#6E7079">1,440</text>
<text dominant-baseline="central" text-anchor="end" style="font-size:12px;font-family:sans-serif;" transform="translate(60.24 60)" fill="#6E7079">1,740</text>
<text dominant-baseline="central" text-anchor="start" style="font-size:12px;font-family:sans-serif;" transform="translate(929.76 271)" fill="#6E7079">0</text>
<text dominant-baseline="central" text-anchor="start" style="font-size:12px;font-family:sans-serif;" transform="translate(929.76 227.3448)" fill="#6E7079">360</text>
<text dominant-baseline="central" text-anchor="start" style="font-size:12px;font-family:sans-serif;" transform="translate(929.76 183.6897)" fill="#6E7079">720</text>
<text dominant-baseline="central" text-anchor="start" style="font-size:12px;font-family:sans-serif;" transform="translate(929.76 140.0345)" fill="#6E7079">1,080</text>
<text dominant-baseline="central" text-anchor="start" style="font-size:12px;font-family:sans-serif;" transform="translate(929.76 96.3793)" fill="#6E7079">1,440</text>
<text dominant-baseline="central" text-anchor="start" style="font-size:12px;font-family:sans-serif;" transform="translate(929.76 60)" fill="#6E7079">1,740</text>
<text dominant-baseline="central" text-anchor="middle" style="font-size:12px;font-family:sans-serif;" y="6" transform="translate(70.332 279)" fill="#6E7079">1km</text>
<text dominant-baseline="central" text-anchor="middle" style="font-size:12px;font-family:sans-serif;" y="6" transform="translate(120.539 279)" fill="#6E7079">13km</text>
<text dominant-baseline="central" text-anchor="middle" style="font-size:12px;font-family:sans-serif;" y="6" transform="translate(170.7461 279)" fill="#6E7079">25km</text>
<text dominant-baseline="central" text-anchor="middle" style="font-size:12px;font-family:sans-serif;" y="6" transform="translate(220.9531 279)" fill="#6E7079">37km</text>
<text dominant-baseline="central" text-anchor="middle" style="font-size:12px;font-family:sans-serif;" y="6" transform="translate(271.1602 279)" fill="#6E7079">49km</text>
<text dominant-baseline="central" text-anchor="middle" style="font-size:12px;font-family:sans-serif;" y="6" transform="translate(321.3673 279)" fill="#6E7079">61km</text>
<text dominant-baseline="central" text-anchor="middle" style="font-size:12px;font-family:sans-serif;" y="6" transform="translate(371.5743 279)" fill="#6E7079">73km</text>
<text dominant-baseline="central" text-anchor="middle" style="font-size:12px;font-family:sans-serif;" y="6" transform="translate(421.7814 279)" fill="#6E7079">85km</text>
<text dominant-baseline="central" text-anchor="middle" style="font-size:12px;font-family:sans-serif;" y="6" transform="translate(471.9884 279)" fill="#6E7079">97km</text>
<text dominant-baseline="central" text-anchor="middle" style="font-size:12px;font-family:sans-serif;" y="6" transform="translate(522.1955 279)" fill="#6E7079">109km</text>
<text dominant-baseline="central" text-anchor="middle" style="font-size:12px;font-family:sans-serif;" y="6" transform="translate(572.4025 279)" fill="#6E7079">121km</text>
<text dominant-baseline="central" text-anchor="middle" style="font-size:12px;font-family:sans-serif;" y="6" transform="translate(622.6096 279)" fill="#6E7079">133km</text>
<text dominant-baseline="central" text-anchor="middle" style="font-size:12px;font-family:sans-serif;" y="6" transform="translate(672.8167 279)" fill="#6E7079">145km</text>
<text dominant-baseline="central" text-anchor="middle" style="font-size:12px;font-family:sans-serif;" y="6" transform="translate(723.0237 279)" fill="#6E7079">157km</text>
<text dominant-baseline="central" text-anchor="middle" style="font-size:12px;font-family:sans-serif;" y="6" transform="translate(773.2308 279)" fill="#6E7079">169km</text>
<text dominant-baseline="central" text-anchor="middle" style="font-size:12px;font-family:sans-serif;" y="6" transform="translate(823.4378 279)" fill="#6E7079">181km</text>
<text dominant-baseline="central" text-anchor="middle" style="font-size:12px;font-family:sans-serif;" y="6" transform="translate(873.6449 279)" fill="#6E7079">193km</text>
<path d="M68.9 271l2.9 0l0 -208.5l-2.9 0Z" fill="rgb(227,73,2)" fill-opacity="0.3"></path>
<path d="M73.1 271l2.9 0l0 -208l-2.9 0Z" fill="rgb(227,73,2)" fill-opacity="0.3"></path>
<path d="M77.3 271l2.9 0l0 -207.2l-2.9 0Z" fill="rgb(227,73,2)" fill-opacity="0.3"></path>
<path d="M81.4 271l2.9 0l0 -205.1l-2.9 0Z" fill="rgb(227,73,2)" fill-opacity="0.3"></path>
<path d="M85.6 271l2.9 0l0 -203.4l-2.9 0Z" fill="rgb(227,73,2)" fill-opacity="0.3"></path>
<path d="M89.8 271l2.9 0l0 -199.6l-2.9 0Z" fill="rgb(227,73,2)" fill-opacity="0.3"></path>
<path d="M94 271l2.9 0l0 -194.4l-2.9 0Z" fill="rgb(227,73,2)" fill-opacity="0.3"></path>
<path d="M98.2 271l2.9 0l0 -193.7l-2.9 0Z" fill="rgb(227,73,2)" fill-opacity="0.3"></path>
<path d="M102.4 271l2.9 0l0 -193.1l-2.9 0Z" fill="rgb(227,73,2)" fill-opacity="0.3"></path>
<path d="M106.5 271l2.9 0l0 -192.1l-2.9 0Z" fill="rgb(227,73,2)" fill-opacity="0.3"></path>
<path d="M110.7 271l2.9 0l0 -191l-2.9 0Z" fill="rgb(227,73,2)" fill-opacity="0.3"></path>
<path d="M114.9 271l2.9 0l0 -189.9l-2.9 0Z" fill="rgb(227,73,2)" fill-opacity="0.3"></path>
<path d="M119.1 271l2.9 0l0 -169.2l-2.9 0Z" fill="rgb(227,73,2)" fill-opacity="0.3"></path>
<path d="M123.3 271l2.9 0l0 -161.8l-2.9 0Z" fill="rgb(227,73,2)" fill-opacity="0.3"></path>
<path d="M127.5 271l2.9 0l0 -161.2l-2.9 0Z" fill="rgb(227,73,2)" fill-opacity="0.3"></path>
<path d="M131.6 271l2.9 0l0 -159.8l-2.9 0Z" fill="rgb(227,73,2)" fill-opacity="0.3"></path>
<path d="M135.8 271l2.9 0l0 -158.5l-2.9 0Z" fill="rgb(227,73,2)" fill-opacity="0.3"></path>
<path d="M140 271l2.9 0l0 -157.5l-2.9 0Z" fill="rgb(227,73,2)" fill-opacity="0.3"></path>
<path d="M144.2 271l2.9 0l0 -156.6l-2.9 0Z" fill="rgb(227,73,2)" fill-opacity="0.3"></path>
<path d="M148.4 271l2.9 0l0 -155.7l-2.9 0Z" fill="rgb(227,73,2)" fill-opacity="0.3"></path>
<path d="M152.6 271l2.9 0l0 -154.7l-2.9 0Z" fill="rgb(227,73,2)" fill-opacity="0.3"></path>
<path d="M156.8 271l2.9 0l0 -154.6l-2.9 0Z" fill="rgb(227,73,2)" fill-opacity="0.3"></path>
<path d="M160.9 271l2.9 0l0 -153.9l-2.9 0Z" fill="rgb(227,73,2)" fill-opacity="0.3"></path>
<path d="M165.1 271l2.9 0l0 -152.3l-2.9 0Z" fill="rgb(227,73,2)" fill-opacity="0.3"></path>
<path d="M169.3 271l2.9 0l0 -151l-2.9 0Z" fill="rgb(227,73,2)" fill-opacity="0.3"></path>
<path d="M173.5 271l2.9 0l0 -149.8l-2.9 0Z" fill="rgb(227,73,2)" fill-opacity="0.3"></path>
<path d="M177.7 271l2.9 0l0 -148.8l-2.9 0Z" fill="rgb(227,73,2)" fill-opacity="0.3"></path>
<path d="M181.9 271l2.9 0l0 -147.2l-2.9 0Z" fill="rgb(227,73,2)" fill-opacity="0.3"></path>
<path d="M186 271l2.9 0l0 -146.6l-2.9 0Z" fill="rgb(227,73,2)" fill-opacity="0.3"></path>
<path d="M190.2 271l2.9 0l0 -145l-2.9 0Z" fill="rgb(227,73,2)" fill-opacity="0.3"></path>
<path d="M194.4 271l2.9 0l0 -142.5l-2.9 0Z" fill="rgb(227,73,2)" fill-opacity="0.3"></path>
<path d="M198.6 271l2.9 0l0 -140.5l-2.9 0Z" fill="rgb(227,73,2)" fill-opacity="0.3"></path>
<path d="M202.8 271l2.9 0l0 -136.9l-2.9 0Z" fill="rgb(227,73,2)" fill-opacity="0.3"></path>
<path d="M207 271l2.9 0l0 -134.7l-2.9 0Z" fill="rgb(227,73,2)" fill-opacity="0.3"></path>
<path d="M211.1 271l2.9 0l0 -130.1l-2.9 0Z" fill="rgb(227,73,2)" fill-opacity="0.3"></path>
<path d="M215.3 271l2.9 0l0 -125.4l-2.9 0Z" fill="rgb(227,73,2)" fill-opacity="0.3"></path>
<path d="M219.5 271l2.9 0l0 -122.6l-2.9 0Z" fill="rgb(227,73,2)" fill-opacity="0.3"></path>
<path d="M223.7 271l2.9 0l0 -119.3l-2.9 0Z" fill="rgb(227,73,2)" fill-opacity="0.3"></path>
<path d="M227.9 271l2.9 0l0 -116l-2.9 0Z" fill="rgb(227,73,2)" fill-opacity="0.3"></path>
<path d="M232.1 271l2.9 0l0 -113.6l-2.9 0Z" fill="rgb(227,73,2)" fill-opacity="0.3"></path>
<path d="M236.2 271l2.9 0l0 -109.7l-2.9 0Z" fill="rgb(227,73,2)" fill-opacity="0.3"></path>
<path d="M240.4 271l2.9 0l0 -106.7l-2.9 0Z" fill="rgb(227,73,2)" fill-opacity="0.3"></path>
<path d="M244.6 271l2.9 0l0 -102.6l-2.9 0Z" fill="rgb(227,73,2)" fill-opacity="0.3"></path>
<path d="M248.8 271l2.9 0l0 -100.3l-2.9 0Z" fill="rgb(227,73,2)" fill-opacity="0.3"></path>
<path d="M253 271l2.9 0l0 -98.6l-2.9 0Z" fill="rgb(227,73,2)" fill-opacity="0.3"></path>
<path d="M257.2 271l2.9 0l0 -97.4l-2.9 0Z" fill="rgb(227,73,2)" fill-opacity="0.3"></path>
<path d="M261.3 271l2.9 0l0 -95.7l-2.9 0Z" fill="rgb(227,73,2)" fill-opacity="0.3"></path>
<path d="M265.5 271l2.9 0l0 -94.6l-2.9 0Z" fill="rgb(227,73,2)" fill-opacity="0.3"></path>
<path d="M269.7 271l2.9 0l0 -91.1l-2.9 0Z" fill="rgb(227,73,2)" fill-opacity="0.3"></path>
<path d="M273.9 271l2.9 0l0 -89.6l-2.9 0Z" fill="rgb(227,73,2)" fill-opacity="0.3"></path>
<path d="M278.1 271l2.9 0l0 -87.2l-2.9 0Z" fill="rgb(227,73,2)" fill-opacity="0.3"></path>
<path d="M282.3 271l2.9 0l0 -86l-2.9 0Z" fill="rgb(227,73,2)" fill-opacity="0.3"></path>
<path d="M286.5 271l2.9 0l0 -84.6l-2.9 0Z" fill="rgb(227,73,2)" fill-opacity="0.3"></path>
<path d="M290.6 271l2.9 0l0 -82.3l-2.9 0Z" fill="rgb(227,73,2)" fill-opacity="0.3"></path>
<path d="M294.8 271l2.9 0l0 -80.5l-2.9 0Z" fill="rgb(227,73,2)" fill-opacity="0.3"></path>
<path d="M299 271l2.9 0l0 -78.9l-2.9 0Z" fill="rgb(227,73,2)" fill-opacity="0.3"></path>
<path d="M303.2 271l2.9 0l0 -77.5l-2.9 0Z" fill="rgb(227,73,2)" fill-opacity="0.3"></path>
<path d="M307.4 271l2.9 0l0 -76.6l-2.9 0Z" fill="rgb(227,73,2)" fill-opacity="0.3"></path>
<path d="M311.6 271l2.9 0l0 -75.5l-2.9 0Z" fill="rgb(227,73,2)" fill-opacity="0.3"></path>
<path d="M315.7 271l2.9 0l0 -73.6l-2.9 0Z" fill="rgb(227,73,2)" fill-opacity="0.3"></path>
<path d="M319.9 271l2.9 0l0 -72.8l-2.9 0Z" fill="rgb(227,73,2)" fill-opacity="0.3"></path>
<path d="M324.1 271l2.9 0l0 -71.4l-2.9 0Z" fill="rgb(227,73,2)" fill-opacity="0.3"></path>
<path d="M328.3 271l2.9 0l0 -70.6l-2.9 0Z" fill="rgb(227,73,2)" fill-opacity="0.3"></path>
<path d="M332.5 271l2.9 0l0 -69.1l-2.9 0Z" fill="rgb(227,73,2)" fill-opacity="0.3"></path>
<path d="M336.7 271l2.9 0l0 -67.7l-2.9 0Z" fill="rgb(227,73,2)" fill-opacity="0.3"></path>
<path d="M340.8 271l2.9 0l0 -66l-2.9 0Z" fill="rgb(227,73,2)" fill-opacity="0.3"></path>
<path d="M345 271l2.9 0l0 -63.8l-2.9 0Z" fill="rgb(227,73,2)" fill-opacity="0.3"></path>
<path d="M349.2 271l2.9 0l0 -62l-2.9 0Z" fill="rgb(227,73,2)" fill-opacity="0.3"></path>
<path d="M353.4 271l2.9 0l0 -61.1l-2.9 0Z" fill="rgb(227,73,2)" fill-opacity="0.3"></path>
<path d="M357.6 271l2.9 0l0 -58.8l-2.9 0Z" fill="rgb(227,73,2)" fill-opacity="0.3"></path>
<path d="M361.8 271l2.9 0l0 -56.6l-2.9 0Z" fill="rgb(227,73,2)" fill-opacity="0.3"></path>
<path d="M365.9 271l2.9 0l0 -55.1l-2.9 0Z" fill="rgb(227,73,2)" fill-opacity="0.3"></path>
<path d="M370.1 271l2.9 0l0 -53.5l-2.9 0Z" fill="rgb(227,73,2)" fill-opacity="0.3"></path>
<path d="M374.3 271l2.9 0l0 -52.5l-2.9 0Z" fill="rgb(227,73,2)" fill-opacity="0.3"></path>
<path d="M378.5 271l2.9 0l0 -50.4l-2.9 0Z" fill="rgb(227,73,2)" fill-opacity="0.3"></path>
<path d="M382.7 271l2.9 0l0 -49l-2.9 0Z" fill="rgb(227,73,2)" fill-opacity="0.3"></path>
<path d="M386.9 271l2.9 0l0 -48l-2.9 0Z" fill="rgb(227,73,2)" fill-opacity="0.3"></path>
<path d="M391.1 271l2.9 0l0 -46.8l-2.9 0Z" fill="rgb(227,73,2)" fill-opacity="0.3"></path>
<path d="M395.2 271l2.9 0l0 -45.8l-2.9 0Z" fill="rgb(227,73,2)" fill-opacity="0.3"></path>
<path d="M399.4 271l2.9 0l0 -44.6l-2.9 0Z" fill="rgb(227,73,2)" fill-opacity="0.3"></path>
<path d="M403.6 271l2.9 0l0 -42.4l-2.9 0Z" fill="rgb(227,73,2)" fill-opacity="0.3"></path>
<path d="M407.8 271l2.9 0l0 -41.2l-2.9 0Z" fill="rgb(227,73,2)" fill-opacity="0.3"></path>
<path d="M412 271l2.9 0l0 -40.3l-2.9 0Z" fill="rgb(227,73,2)" fill-opacity="0.3"></path>
<path d="M416.2 271l2.9 0l0 -38.7l-2.9 0Z" fill="rgb(227,73,2)" fill-opacity="0.3"></path>
<path d="M420.3 271l2.9 0l0 -37.6l-2.9 0Z" fill="rgb(227,73,2)" fill-opacity="0.3"></path>
<path d="M424.5 271l2.9 0l0 -36.5l-2.9 0Z" fill="rgb(227,73,2)" fill-opacity="0.3"></path>
<path d="M428.7 271l2.9 0l0 -36l-2.9 0Z" fill="rgb(227,73,2)" fill-opacity="0.3"></path>
<path d="M432.9 271l2.9 0l0 -34.6l-2.9 0Z" fill="rgb(227,73,2)" fill-opacity="0.3"></path>
<path d="M437.1 271l2.9 0l0 -33.3l-2.9 0Z" fill="rgb(227,73,2)" fill-opacity="0.3"></path>
<path d="M441.3 271l2.9 0l0 -32.1l-2.9 0Z" fill="rgb(227,73,2)" fill-opacity="0.3"></path>
<path d="M445.4 271l2.9 0l0 -30.3l-2.9 0Z" fill="rgb(227,73,2)" fill-opacity="0.3"></path>
<path d="M449.6 271l2.9 0l0 -28.7l-2.9 0Z" fill="rgb(227,73,2)" fill-opacity="0.3"></path>
<path d="M453.8 271l2.9 0l0 -27.9l-2.9 0Z" fill="rgb(227,73,2)" fill-opacity="0.3"></path>
<path d="M458 271l2.9 0l0 -26.6l-2.9 0Z" fill="rgb(227,73,2)" fill-opacity="0.3"></path>
<path d="M462.2 271l2.9 0l0 -26.1l-2.9 0Z" fill="rgb(227,73,2)" fill-opacity="0.3"></path>
<path d="M466.4 271l2.9 0l0 -25.7l-2.9 0Z" fill="rgb(227,73,2)" fill-opacity="0.3"></path>
<path d="M470.5 271l2.9 0l0 -24.9l-2.9 0Z" fill="rgb(227,73,2)" fill-opacity="0.3"></path>
<path d="M474.7 271l2.9 0l0 -24.3l-2.9 0Z" fill="rgb(227,73,2)" fill-opacity="0.3"></path>
<path d="M478.9 271l2.9 0l0 -23.8l-2.9 0Z" fill="rgb(227,73,2)" fill-opacity="0.3"></path>
<path d="M483.1 271l2.9 0l0 -23.3l-2.9 0Z" fill="rgb(227,73,2)" fill-opacity="0.3"></path>
<path d="M487.3 271l2.9 0l0 -22.3l-2.9 0Z" fill="rgb(227,73,2)" fill-opacity="0.3"></path>
<path d="M491.5 271l2.9 0l0 -20.9l-2.9 0Z" fill="rgb(227,73,2)" fill-opacity="0.3"></path>
<path d="M495.6 271l2.9 0l0 -20.5l-2.9 0Z" fill="rgb(227,73,2)" fill-opacity="0.3"></path>
<path d="M499.8 271l2.9 0l0 -19.5l-2.9 0Z" fill="rgb(227,73,2)" fill-opacity="0.3"></path>
<path d="M504 271l2.9 0l0 -18.8l-2.9 0Z" fill="rgb(227,73,2)" fill-opacity="0.3"></path>
<path d="M508.2 271l2.9 0l0 -18.2l-2.9 0Z" fill="rgb(227,73,2)" fill-opacity="0.3"></path>
<path d="M512.4 271l2.9 0l0 -17.6l-2.9 0Z" fill="rgb(227,73,2)" fill-opacity="0.3"></path>
<path d="M516.6 271l2.9 0l0 -17.3l-2.9 0Z" fill="rgb(227,73,2)" fill-opacity="0.3"></path>
<path d="M520.8 271l2.9 0l0 -16.6l-2.9 0Z" fill="rgb(227,73,2)" fill-opacity="0.3"></path>
<path d="M524.9 271l2.9 0l0 -16.1l-2.9 0Z" fill="rgb(227,73,2)" fill-opacity="0.3"></path>
<path d="M529.1 271l2.9 0l0 -15.8l-2.9 0Z" fill="rgb(227,73,2)" fill-opacity="0.3"></path>
<path d="M533.3 271l2.9 0l0 -15.2l-2.9 0Z" fill="rgb(227,73,2)" fill-opacity="0.3"></path>
<path d="M537.5 271l2.9 0l0 -14.3l-2.9 0Z" fill="rgb(227,73,2)" fill-opacity="0.8"></path>
<path d="M541.7 271l2.9 0l0 -13.5l-2.9 0Z" fill="rgb(227,73,2)" fill-opacity="0.3"></path>
<path d="M545.9 271l2.9 0l0 -13.1l-2.9 0Z" fill="rgb(227,73,2)" fill-opacity="0.3"></path>
<path d="M550 271l2.9 0l0 -13l-2.9 0Z" fill="rgb(227,73,2)" fill-opacity="0.3"></path>
<path d="M554.2 271l2.9 0l0 -12.4l-2.9 0Z" fill="rgb(227,73,2)" fill-opacity="0.3"></path>
<path d="M558.4 271l2.9 0l0 -12.4l-2.9 0Z" fill="rgb(227,73,2)" fill-opacity="0.3"></path>
<path d="M562.6 271l2.9 0l0 -12l-2.9 0Z" fill="rgb(227,73,2)" fill-opacity="0.3"></path>
<path d="M566.8 271l2.9 0l0 -11.8l-2.9 0Z" fill="rgb(227,73,2)" fill-opacity="0.3"></path>
<path d="M571 271l2.9 0l0 -11.6l-2.9 0Z" fill="rgb(227,73,2)" fill-opacity="0.3"></path>
<path d="M575.1 271l2.9 0l0 -11.4l-2.9 0Z" fill="rgb(227,73,2)" fill-opacity="0.3"></path>
<path d="M579.3 271l2.9 0l0 -11.2l-2.9 0Z" fill="rgb(227,73,2)" fill-opacity="0.3"></path>
<path d="M583.5 271l2.9 0l0 -10.9l-2.9 0Z" fill="rgb(227,73,2)" fill-opacity="0.3"></path>
<path d="M587.7 271l2.9 0l0 -10.6l-2.9 0Z" fill="rgb(227,73,2)" fill-opacity="0.3"></path>
<path d="M591.9 271l2.9 0l0 -10.4l-2.9 0Z" fill="rgb(227,73,2)" fill-opacity="0.3"></path>
<path d="M596.1 271l2.9 0l0 -9.8l-2.9 0Z" fill="rgb(227,73,2)" fill-opacity="0.3"></path>
<path d="M600.2 271l2.9 0l0 -9l-2.9 0Z" fill="rgb(227,73,2)" fill-opacity="0.3"></path>
<path d="M604.4 271l2.9 0l0 -8.7l-2.9 0Z" fill="rgb(227,73,2)" fill-opacity="0.3"></path>
<path d="M608.6 271l2.9 0l0 -8.5l-2.9 0Z" fill="rgb(227,73,2)" fill-opacity="0.3"></path>
<path d="M612.8 271l2.9 0l0 -8l-2.9 0Z" fill="rgb(227,73,2)" fill-opacity="0.3"></path>
<path d="M617 271l2.9 0l0 -7.8l-2.9 0Z" fill="rgb(227,73,2)" fill-opacity="0.3"></path>
<path d="M621.2 271l2.9 0l0 -7.3l-2.9 0Z" fill="rgb(227,73,2)" fill-opacity="0.3"></path>
<path d="M625.4 271l2.9 0l0 -7l-2.9 0Z" fill="rgb(227,73,2)" fill-opacity="0.3"></path>
<path d="M629.5 271l2.9 0l0 -6.7l-2.9 0Z" fill="rgb(227,73,2)" fill-opacity="0.3"></path>
<path d="M633.7 271l2.9 0l0 -6.1l-2.9 0Z" fill="rgb(227,73,2)" fill-opacity="0.3"></path>
<path d="M637.9 271l2.9 0l0 -5.8l-2.9 0Z" fill="rgb(227,73,2)" fill-opacity="0.3"></path>
<path d="M642.1 271l2.9 0l0 -5.7l-2.9 0Z" fill="rgb(227,73,2)" fill-opacity="0.3"></path>
<path d="M646.3 271l2.9 0l0 -5.5l-2.9 0Z" fill="rgb(227,73,2)" fill-opacity="0.3"></path>
<path d="M650.5 271l2.9 0l0 -5.1l-2.9 0Z" fill="rgb(227,73,2)" fill-opacity="0.3"></path>
<path d="M654.6 271l2.9 0l0 -4.7l-2.9 0Z" fill="rgb(227,73,2)" fill-opacity="0.3"></path>
<path d="M658.8 271l2.9 0l0 -4.6l-2.9 0Z" fill="rgb(227,73,2)" fill-opacity="0.3"></path>
<path d="M663 271l2.9 0l0 -4.6l-2.9 0Z" fill="rgb(227,73,2)" fill-opacity="0.3"></path>
<path d="M667.2 271l2.9 0l0 -4.5l-2.9 0Z" fill="rgb(227,73,2)" fill-opacity="0.3"></path>
<path d="M671.4 271l2.9 0l0 -4.5l-2.9 0Z" fill="rgb(227,73,2)" fill-opacity="0.3"></path>
<path d="M675.6 271l2.9 0l0 -4.2l-2.9 0Z" fill="rgb(227,73,2)" fill-opacity="0.3"></path>
<path d="M679.7 271l2.9 0l0 -4.2l-2.9 0Z" fill="rgb(227,73,2)" fill-opacity="0.3"></path>
<path d="M683.9 271l2.9 0l0 -4.2l-2.9 0Z" fill="rgb(227,73,2)" fill-opacity="0.3"></path>
<path d="M688.1 271l2.9 0l0 -4.1l-2.9 0Z" fill="rgb(227,73,2)" fill-opacity="0.3"></path>
<path d="M692.3 271l2.9 0l0 -4.1l-2.9 0Z" fill="rgb(227,73,2)" fill-opacity="0.3"></path>
<path d="M696.5 271l2.9 0l0 -4.1l-2.9 0Z" fill="rgb(227,73,2)" fill-opacity="0.3"></path>
<path d="M700.7 271l2.9 0l0 -4.1l-2.9 0Z" fill="rgb(227,73,2)" fill-opacity="0.3"></path>
<path d="M704.8 271l2.9 0l0 -4l-2.9 0Z" fill="rgb(227,73,2)" fill-opacity="0.3"></path>
<path d="M709 271l2.9 0l0 -4l-2.9 0Z" fill="rgb(227,73,2)" fill-opacity="0.3"></path>
<path d="M713.2 271l2.9 0l0 -3.5l-2.9 0Z" fill="rgb(227,73,2)" fill-opacity="0.3"></path>
<path d="M717.4 271l2.9 0l0 -3.5l-2.9 0Z" fill="rgb(227,73,2)" fill-opacity="0.3"></path>
<path d="M721.6 271l2.9 0l0 -3.4l-2.9 0Z" fill="rgb(227,73,2)" fill-opacity="0.3"></path>
<path d="M725.8 271l2.9 0l0 -3.4l-2.9 0Z" fill="rgb(227,73,2)" fill-opacity="0.3"></path>
<path d="M729.9 271l2.9 0l0 -3.3l-2.9 0Z" fill="rgb(227,73,2)" fill-opacity="0.3"></path>
<path d="M734.1 271l2.9 0l0 -3.3l-2.9 0Z" fill="rgb(227,73,2)" fill-opacity="0.3"></path>
<path d="M738.3 271l2.9 0l0 -3.3l-2.9 0Z" fill="rgb(227,73,2)" fill-opacity="0.3"></path>
<path d="M742.5 271l2.9 0l0 -2.5l-2.9 0Z" fill="rgb(227,73,2)" fill-opacity="0.3"></path>
<path d="M746.7 271l2.9 0l0 -2.1l-2.9 0Z" fill="rgb(227,73,2)" fill-opacity="0.3"></path>
<path d="M750.9 271l2.9 0l0 -2.1l-2.9 0Z" fill="rgb(227,73,2)" fill-opacity="0.3"></path>
<path d="M755.1 271l2.9 0l0 -1.8l-2.9 0Z" fill="rgb(227,73,2)" fill-opacity="0.3"></path>
<path d="M759.2 271l2.9 0l0 -1.8l-2.9 0Z" fill="rgb(227,73,2)" fill-opacity="0.3"></path>
<path d="M763.4 271l2.9 0l0 -1.8l-2.9 0Z" fill="rgb(227,73,2)" fill-opacity="0.3"></path>
<path d="M767.6 271l2.9 0l0 -1.8l-2.9 0Z" fill="rgb(227,73,2)" fill-opacity="0.3"></path>
<path d="M771.8 271l2.9 0l0 -1.5l-2.9 0Z" fill="rgb(227,73,2)" fill-opacity="0.3"></path>
<path d="M776 271l2.9 0l0 -1.3l-2.9 0Z" fill="rgb(227,73,2)" fill-opacity="0.3"></path>
<path d="M780.2 271l2.9 0l0 -1.3l-2.9 0Z" fill="rgb(227,73,2)" fill-opacity="0.3"></path>
<path d="M784.3 271l2.9 0l0 -1.3l-2.9 0Z" fill="rgb(227,73,2)" fill-opacity="0.3"></path>
<path d="M788.5 271l2.9 0l0 -1.3l-2.9 0Z" fill="rgb(227,73,2)" fill-opacity="0.3"></path>
<path d="M792.7 271l2.9 0l0 -0.8l-2.9 0Z" fill="rgb(227,73,2)" fill-opacity="0.3"></path>
<path d="M796.9 271l2.9 0l0 -0.8l-2.9 0Z" fill="rgb(227,73,2)" fill-opacity="0.3"></path>
<path d="M801.1 271l2.9 0l0 -0.8l-2.9 0Z" fill="rgb(227,73,2)" fill-opacity="0.3"></path>
<path d="M805.3 271l2.9 0l0 -0.7l-2.9 0Z" fill="rgb(227,73,2)" fill-opacity="0.3"></path>
<path d="M809.4 271l2.9 0l0 -0.6l-2.9 0Z" fill="rgb(227,73,2)" fill-opacity="0.3"></path>
<path d="M813.6 271l2.9 0l0 -0.6l-2.9 0Z" fill="rgb(227,73,2)" fill-opacity="0.3"></path>
<path d="M817.8 271l2.9 0l0 -0.6l-2.9 0Z" fill="rgb(227,73,2)" fill-opacity="0.3"></path>
<path d="M822 271l2.9 0l0 -0.5l-2.9 0Z" fill="rgb(227,73,2)" fill-opacity="0.3"></path>
<path d="M826.2 271l2.9 0l0 -0.5l-2.9 0Z" fill="rgb(227,73,2)" fill-opacity="0.3"></path>
<path d="M830.4 271l2.9 0l0 -0.5l-2.9 0Z" fill="rgb(227,73,2)" fill-opacity="0.3"></path>
<path d="M834.5 271l2.9 0l0 -0.5l-2.9 0Z" fill="rgb(227,73,2)" fill-opacity="0.3"></path>
<path d="M838.7 271l2.9 0l0 -0.5l-2.9 0Z" fill="rgb(227,73,2)" fill-opacity="0.3"></path>
<path d="M842.9 271l2.9 0l0 -0.4l-2.9 0Z" fill="rgb(227,73,2)" fill-opacity="0.3"></path>
<path d="M847.1 271l2.9 0l0 -0.4l-2.9 0Z" fill="rgb(227,73,2)" fill-opacity="0.3"></path>
<path d="M851.3 271l2.9 0l0 -0.2l-2.9 0Z" fill="rgb(227,73,2)" fill-opacity="0.3"></path>
<path d="M855.5 271l2.9 0l0 -0.2l-2.9 0Z" fill="rgb(227,73,2)" fill-opacity="0.3"></path>
<path d="M859.6 271l2.9 0l0 -0.2l-2.9 0Z" fill="rgb(227,73,2)" fill-opacity="0.3"></path>
<path d="M863.8 271l2.9 0l0 -0.2l-2.9 0Z" fill="rgb(227,73,2)" fill-opacity="0.3"></path>
<path d="M868 271l2.9 0l0 -0.2l-2.9 0Z" fill="rgb(227,73,2)" fill-opacity="0.3"></path>
<path d="M872.2 271l2.9 0l0 -0.1l-2.9 0Z" fill="rgb(227,73,2)" fill-opacity="0.3"></path>
<path d="M876.4 271l2.9 0l0 -0.1l-2.9 0Z" fill="rgb(227,73,2)" fill-opacity="0.3"></path>
<path d="M880.6 271l2.9 0l0 -0.1l-2.9 0Z" fill="rgb(227,73,2)" fill-opacity="0.3"></path>
<path d="M884.8 271l2.9 0l0 -0.1l-2.9 0Z" fill="rgb(227,73,2)" fill-opacity="0.3"></path>
<path d="M888.9 271l2.9 0l0 -0.1l-2.9 0Z" fill="rgb(227,73,2)" fill-opacity="0.3"></path>
<path d="M893.1 271l2.9 0l0 -0.1l-2.9 0Z" fill="rgb(227,73,2)" fill-opacity="0.3"></path>
<path d="M897.3 271l2.9 0l0 -0.1l-2.9 0Z" fill="rgb(227,73,2)" fill-opacity="0.3"></path>
<path d="M901.5 271l2.9 0l0 -0.1l-2.9 0Z" fill="rgb(227,73,2)" fill-opacity="0.3"></path>
<path d="M905.7 271l2.9 0l0 -0.1l-2.9 0Z" fill="rgb(227,73,2)" fill-opacity="0.3"></path>
<path d="M909.9 271l2.9 0l0 -0.1l-2.9 0Z" fill="rgb(227,73,2)" fill-opacity="0.3"></path>
<path d="M914 271l2.9 0l0 -0.1l-2.9 0Z" fill="rgb(227,73,2)" fill-opacity="0.3"></path>
<path d="M918.2 271l2.9 0l0 -0.1l-2.9 0Z" fill="rgb(227,73,2)" fill-opacity="0.3"></path>
<path d="M-5 -5l226.9 0l0 24l-226.9 0Z" transform="translate(391.54 5)" fill="rgb(0,0,0)" fill-opacity="0" stroke="#ccc" stroke-width="0"></path>
<path d="M3.5 0L21.5 0A3.5 3.5 0 0 1 25 3.5L25 10.5A3.5 3.5 0 0 1 21.5 14L3.5 14A3.5 3.5 0 0 1 0 10.5L0 3.5A3.5 3.5 0 0 1 3.5 0" transform="translate(391.54 5)" fill="rgb(227,73,2)" fill-opacity="0.3"></path>
<text dominant-baseline="central" text-anchor="start" style="font-size:12px;font-family:sans-serif;" xml:space="preserve" x="30" y="7" transform="translate(391.54 5)" fill="#333">Times completed</text>
<path d="M0 7L25 7" transform="translate(524.1 5)" fill="#000" stroke="#E34902" stroke-width="2" stroke-linecap="butt" stroke-miterlimit="10"></path>
<path d="M18.1 7A5.6 5.6 0 1 1 18.1 6.4A5.6 5.6 0 0 1 18.1 7" transform="translate(524.1 5)" fill="#fff" stroke="#E34902" stroke-width="2" stroke-linecap="butt" stroke-miterlimit="10"></path>
<text dominant-baseline="central" text-anchor="start" style="font-size:12px;font-family:sans-serif;" x="30" y="7" transform="translate(524.1 5)" fill="#333">Eddington</text>
<path d="M-0.54 -0.89A0.6 0.6 0 1 1 0.54 -0.89C0.39 -0.56 0 -0.42 0 0C0 -0.42 -0.39 -0.56 -0.54 -0.89Z" transform="matrix(25,0,0,25,538.9312,251.8121)" fill="rgb(227,73,2)" fill-opacity="0.8"></path>
<text dominant-baseline="central" text-anchor="middle" style="font-size:12px;font-family:sans-serif;" transform="translate(538.9312 225.6692)" fill="#eee" stroke="rgb(227,73,2)" stroke-width="2" paint-order="stroke" stroke-opacity="0.8" stroke-miterlimit="2">113</text>
<g clip-path="url(#zr0-c0)">
<path d="M70.3 270.9L74.5 270.8L78.7 270.6L82.9 270.5L87.1 270.4L91.3 270.3L95.4 270.2L99.6 270L103.8 269.9L108 269.8L112.2 269.7L116.4 269.5L120.5 269.4L124.7 269.3L128.9 269.2L133.1 269.1L137.3 268.9L141.5 268.8L145.6 268.7L149.8 268.6L154 268.5L158.2 268.3L162.4 268.2L166.6 268.1L170.7 268L174.9 267.8L179.1 267.7L183.3 267.6L187.5 267.5L191.7 267.4L195.8 267.2L200 267.1L204.2 267L208.4 266.9L212.6 266.8L216.8 266.6L221 266.5L225.1 266.4L229.3 266.3L233.5 266.1L237.7 266L241.9 265.9L246.1 265.8L250.2 265.7L254.4 265.5L258.6 265.4L262.8 265.3L267 265.2L271.2 265.1L275.3 264.9L279.5 264.8L283.7 264.7L287.9 264.6L292.1 264.5L296.3 264.3L300.4 264.2L304.6 264.1L308.8 264L313 263.8L317.2 263.7L321.4 263.6L325.6 263.5L329.7 263.4L333.9 263.2L338.1 263.1L342.3 263L346.5 262.9L350.7 262.8L354.8 262.6L359 262.5L363.2 262.4L367.4 262.3L371.6 262.1L375.8 262L379.9 261.9L384.1 261.8L388.3 261.7L392.5 261.5L396.7 261.4L400.9 261.3L405 261.2L409.2 261.1L413.4 260.9L417.6 260.8L421.8 260.7L426 260.6L430.1 260.5L434.3 260.3L438.5 260.2L442.7 260.1L446.9 260L451.1 259.8L455.3 259.7L459.4 259.6L463.6 259.5L467.8 259.4L472 259.2L476.2 259.1L480.4 259L484.5 258.9L488.7 258.8L492.9 258.6L497.1 258.5L501.3 258.4L505.5 258.3L509.6 258.1L513.8 258L518 257.9L522.2 257.8L526.4 257.7L530.6 257.5L534.7 257.4L538.9 257.3L543.1 257.2L547.3 257.1L551.5 256.9L555.7 256.8L559.9 256.7L564 256.6L568.2 256.4L572.4 256.3L576.6 256.2L580.8 256.1L585 256L589.1 255.8L593.3 255.7L597.5 255.6L601.7 255.5L605.9 255.4L610.1 255.2L614.2 255.1L618.4 255L622.6 254.9L626.8 254.8L631 254.6L635.2 254.5L639.3 254.4L643.5 254.3L647.7 254.1L651.9 254L656.1 253.9L660.3 253.8L664.4 253.7L668.6 253.5L672.8 253.4L677 253.3L681.2 253.2L685.4 253.1L689.6 252.9L693.7 252.8L697.9 252.7L702.1 252.6L706.3 252.4L710.5 252.3L714.7 252.2L718.8 252.1L723 252L727.2 251.8L731.4 251.7L735.6 251.6L739.8 251.5L743.9 251.4L748.1 251.2L752.3 251.1L756.5 251L760.7 250.9L764.9 250.7L769 250.6L773.2 250.5L777.4 250.4L781.6 250.3L785.8 250.1L790 250L794.2 249.9L798.3 249.8L802.5 249.7L806.7 249.5L810.9 249.4L815.1 249.3L819.3 249.2L823.4 249.1L827.6 248.9L831.8 248.8L836 248.7L840.2 248.6L844.4 248.4L848.5 248.3L852.7 248.2L856.9 248.1L861.1 248L865.3 247.8L869.5 247.7L873.6 247.6L877.8 247.5L882 247.4L886.2 247.2L890.4 247.1L894.6 247L898.7 246.9L902.9 246.7L907.1 246.6L911.3 246.5L915.5 246.4L919.7 246.3" fill="none" stroke="#E34902" stroke-width="2" stroke-linejoin="bevel"></path>
</g>
<defs >
<clipPath id="zr0-c0">
<path d="M67 59l856 0l0 213l-856 0Z" fill="#000"></path>
</clipPath>
</defs>
</svg>