<svg width="1000" height="300" xmlns="http://www.w3.org/2000/svg" xmlns:xlink="http://www.w3.org/1999/xlink" version="1.1" baseProfile="full" viewBox="0 0 1000 300">
<rect width="1000" height="300" x="0" y="0" id="0" fill="#ffffff"></rect>
<path d="M68.2 271.5L921.8 271.5" fill="none" stroke="#E0E6F1"></path>
<path d="M68.2 228.5L921.8 228.5" fill="none" stroke="#E0E6F1"></path>
<path d="M68.2 185.5L921.8 185.5" fill="none" stroke="#E0E6F1"></path>
<path d="M68.2 142.5L921.8 142.5" fill="none" stroke="#E0E6F1"></path>
<path d="M68.2 99.5L921.8 99.5" fill="none" stroke="#E0E6F1"></path>
<path d="M68.2 60.5L921.8 60.5" fill="none" stroke="#E0E6F1"></path>
<path d="M68.2 271.5L921.8 271.5" fill="none" stroke="#6E7079" stroke-linecap="round"></path>
<path d="M70.5 271L70.5 276" fill="none" stroke="#6E7079"></path>
<path d="M120.5 271L120.5 276" fill="none" stroke="#6E7079"></path>
<path d="M170.5 271L170.5 276" fill="none" stroke="#6E7079"></path>
<path d="M221.5 271L221.5 276" fill="none" stroke="#6E7079"></path>
<path d="M271.5 271L271.5 276" fill="none" stroke="#6E7079"></path>
<path d="M321.5 271L321.5 276" fill="none" stroke="#6E7079"></path>
<path d="M371.5 271L371.5 276" fill="none" stroke="#6E7079"></path>
<path d="M422.5 271L422.5 276" fill="none" stroke="#6E7079"></path>
<path d="M472.5 271L472.5 276" fill="none" stroke="#6E7079"></path>
<path d="M522.5 271L522.5 276" fill="none" stroke="#6E7079"></path>
<path d="M572.5 271L572.5 276" fill="none" stroke="#6E7079"></path>
<path d="M622.5 271L622.5 276" fill="none" stroke="#6E7079"></path>
<path d="M673.5 271L673.5 276" fill="none" stroke="#6E7079"></path>
<path d="M723.5 271L723.5 276" fill="none" stroke="#6E7079"></path>
<path d="M773.5 271L773.5 276" fill="none" stroke="#6E7079"></path>
<path d="M823.5 271L823.5 276" fill="none" stroke="#6E7079"></path>
<path d="M873.5 271L873.5 276" fill="none" stroke="#6E7079"></path>
<text dominant-baseline="central" text-anchor="end" style="font-size:12px;font-family:sans-serif;" transform="translate(60.24 271)" fill="#6E7079">0</text>
<text dominant-baseline="central" text-anchor="end" style="font-size:12px;font-family:sans-serif;" transform="translate(60.24 228.0847)" fill="#6E7079">360</text>
<text dominant-baseline="central" text-anchor="end" style="font-size:12px;font-family:sans-serif;" transform="translate(60.24 185.1695)" fill="#6E7079">720</text>
<text dominant-baseline="central" text-anchor="end" style="font-size:12px;font-family:sans-serif;" transform="translate(60.24 142.2542)" fill="#6E7079">1,080</text>
<text dominant-baseline="central" text-anchor="end" style="font-size:12px;font-family:sans-serif;" transform="translate(60.24 99.339)" fill="#6E7079">1,440</text>
<text dominant-baseline="central" text-anchor="end" style="font-size:12px;font-family:sans-serif;" transform="translate(60.24 60)" fill="#6E7079">1,770</text>
<text dominant-baseline="central" text-anchor="start" style="font-size:12px;font-family:sans-serif;" transform="translate(929.76 271)" fill="#6E7079">0</text>
<text dominant-baseline="central" text-anchor="start" style="font-size:12px;font-family:sans-serif;" transform="translate(929.76 228.0847)" fill="#6E7079">360</text>
<text dominant-baseline="central" text-anchor="start" style="font-size:12px;font-family:sans-serif;" transform="translate(929.76 185.1695)" fill="#6E7079">720</text>
<text dominant-baseline="central" text-anchor="start" style="font-size:12px;font-family:sans-serif;" transform="translate(929.76 142.2542)" fill="#6E7079">1,080</text>
<text dominant-baseline="central" text-anchor="start" style="font-size:12px;font-family:sans-serif;" transform="translate(929.76 99.339)" fill="#6E7079">1,440</text>
<text dominant-baseline="central" text-anchor="start" style="font-size:12px;font-family:sans-serif;" transform="translate(929.76 60)" fill="#6E7079">1,770</text>
<text dominant-baseline="central" text-anchor="middle" style="font-size:12px;font-family:sans-serif;" y="6" transform="translate(70.332 279)" fill="#6E7079">1km</text>
<text dominant-baseline="central" text-anchor="middle" style="font-size:12px;font-family:sans-serif;" y="6" transform="translate(120.539 279)" fill="#6E7079">13km</text>
<text dominant-baseline="central" text-anchor="middle" style="font-size:12px;font-family:sans-serif;" y="6" transform="translate(170.7461 279)" fill="#6E7079">25km</text>
<text dominant-baseline="central" text-anchor="middle" style="font-size:12px;font-family:sans-serif;" y="6" transform="translate(220.9531 279)" fill="#6E7079">37km</text>
<text dominant-baseline="central" text-anchor="middle" style="font-size:12px;font-family:sans-serif;" y="6" transform="translate(271.1602 279)" fill="#6E7079">49km</text>
<text dominant-baseline="central" text-anchor="middle" style="font-size:12px;font-family:sans-serif;" y="6" transform="translate(321.3673 279)" fill="#6E7079">61km</text>
<text dominant-baseline="central" text-anchor="middle" style="font-size:12px;font-family:sans-serif;" y="6" transform="translate(371.5743 279)" fill="#6E7079">73km</text>
<text dominant-baseline="central" text-anchor="middle" style="font-size:12px;font-family:sans-serif;" y="6" transform="translate(421.7814 279)" fill="#6E7079">85km</text>
<text dominant-baseline="central" text-anchor="middle" style="font-size:12px;font-family:sans-serif;" y="6" transform="translate(471.9884 279)" fill="#6E7079">97km</text>
<text dominant-baseline="central" text-anchor="middle" style="font-size:12px;font-family:sans-serif;" y="6" transform="translate(522.1955 279)" fill="#6E7079">109km</text>
<text dominant-baseline="central" text-anchor="middle" style="font-size:12px;font-family:sans-serif;" y="6" transform="translate(572.4025 279)" fill="#6E7079">121km</text>
<text dominant-baseline="central" text-anchor="middle" style="font-size:12px;font-family:sans-serif;" y="6" transform="translate(622.6096 279)" fill="#6E7079">133km</text>
<text dominant-baseline="central" text-anchor="middle" style="font-size:12px;font-family:sans-serif;" y="6" transform="translate(672.8167 279)" fill="#6E7079">145km</text>
<text dominant-baseline="central" text-anchor="middle" style="font-size:12px;font-family:sans-serif;" y="6" transform="translate(723.0237 279)" fill="#6E7079">157km</text>
<text dominant-baseline="central" text-anchor="middle" style="font-size:12px;font-family:sans-serif;" y="6" transform="translate(773.2308 279)" fill="#6E7079">169km</text>
<text dominant-baseline="central" text-anchor="middle" style="font-size:12px;font-family:sans-serif;" y="6" transform="translate(823.4378 279)" fill="#6E7079">181km</text>
<text dominant-baseline="central" text-anchor="middle" style="font-size:12px;font-family:sans-serif;" y="6" transform="translate(873.6449 279)" fill="#6E7079">193km</text>
<path d="M68.9 271l2.9 0l0 -207.5l-2.9 0Z" fill="rgb(227,73,2)" fill-opacity="0.3"></path>
<path d="M73.1 271l2.9 0l0 -207.1l-2.9 0Z" fill="rgb(227,73,2)" fill-opacity="0.3"></path>
<path d="M77.3 271l2.9 0l0 -206.2l-2.9 0Z" fill="rgb(227,73,2)" fill-opacity="0.3"></path>
<path d="M81.4 271l2.9 0l0 -204.1l-2.9 0Z" fill="rgb(227,73,2)" fill-opacity="0.3"></path>
<path d="M85.6 271l2.9 0l0 -202.4l-2.9 0Z" fill="rgb(227,73,2)" fill-opacity="0.3"></path>
<path d="M89.8 271l2.9 0l0 -198.7l-2.9 0Z" fill="rgb(227,73,2)" fill-opacity="0.3"></path>
<path d="M94 271l2.9 0l0 -193.6l-2.9 0Z" fill="rgb(227,73,2)" fill-opacity="0.3"></path>
<path d="M98.2 271l2.9 0l0 -192.9l-2.9 0Z" fill="rgb(227,73,2)" fill-opacity="0.3"></path>
<path d="M102.4 271l2.9 0l0 -192.3l-2.9 0Z" fill="rgb(227,73,2)" fill-opacity="0.3"></path>
<path d="M106.5 271l2.9 0l0 -191.3l-2.9 0Z" fill="rgb(227,73,2)" fill-opacity="0.3"></path>
<path d="M110.7 271l2.9 0l0 -190.1l-2.9 0Z" fill="rgb(227,73,2)" fill-opacity="0.3"></path>
<path d="M114.9 271l2.9 0l0 -189.1l-2.9 0Z" fill="rgb(227,73,2)" fill-opacity="0.3"></path>
<path d="M119.1 271l2.9 0l0 -168.7l-2.9 0Z" fill="rgb(227,73,2)" fill-opacity="0.3"></path>
<path d="M123.3 271l2.9 0l0 -161.4l-2.9 0Z" fill="rgb(227,73,2)" fill-opacity="0.3"></path>
<path d="M127.5 271l2.9 0l0 -160.8l-2.9 0Z" fill="rgb(227,73,2)" fill-opacity="0.3"></path>
<path d="M131.6 271l2.9 0l0 -159.5l-2.9 0Z" fill="rgb(227,73,2)" fill-opacity="0.3"></path>
<path d="M135.8 271l2.9 0l0 -158.2l-2.9 0Z" fill="rgb(227,73,2)" fill-opacity="0.3"></path>
<path d="M140 271l2.9 0l0 -157.2l-2.9 0Z" fill="rgb(227,73,2)" fill-opacity="0.3"></path>
<path d="M144.2 271l2.9 0l0 -156.3l-2.9 0Z" fill="rgb(227,73,2)" fill-opacity="0.3"></path>
<path d="M148.4 271l2.9 0l0 -155.4l-2.9 0Z" fill="rgb(227,73,2)" fill-opacity="0.3"></path>
<path d="M152.6 271l2.9 0l0 -154.5l-2.9 0Z" fill="rgb(227,73,2)" fill-opacity="0.3"></path>
<path d="M156.8 271l2.9 0l0 -154.4l-2.9 0Z" fill="rgb(227,73,2)" fill-opacity="0.3"></path>
<path d="M160.9 271l2.9 0l0 -153.7l-2.9 0Z" fill="rgb(227,73,2)" fill-opacity="0.3"></path>
<path d="M165.1 271l2.9 0l0 -152.1l-2.9 0Z" fill="rgb(227,73,2)" fill-opacity="0.3"></path>
<path d="M169.3 271l2.9 0l0 -150.8l-2.9 0Z" fill="rgb(227,73,2)" fill-opacity="0.3"></path>
<path d="M173.5 271l2.9 0l0 -149.5l-2.9 0Z" fill="rgb(227,73,2)" fill-opacity="0.3"></path>
<path d="M177.7 271l2.9 0l0 -148.5l-2.9 0Z" fill="rgb(227,73,2)" fill-opacity="0.3"></path>
<path d="M181.9 271l2.9 0l0 -147l-2.9 0Z" fill="rgb(227,73,2)" fill-opacity="0.3"></path>
<path d="M186 271l2.9 0l0 -146.4l-2.9 0Z" fill="rgb(227,73,2)" fill-opacity="0.3"></path>
<path d="M190.2 271l2.9 0l0 -144.8l-2.9 0Z" fill="rgb(227,73,2)" fill-opacity="0.3"></path>
<path d="M194.4 271l2.9 0l0 -142.3l-2.9 0Z" fill="rgb(227,73,2)" fill-opacity="0.3"></path>
<path d="M198.6 271l2.9 0l0 -140.4l-2.9 0Z" fill="rgb(227,73,2)" fill-opacity="0.3"></path>
<path d="M202.8 271l2.9 0l0 -136.9l-2.9 0Z" fill="rgb(227,73,2)" fill-opacity="0.3"></path>
<path d="M207 271l2.9 0l0 -134.7l-2.9 0Z" fill="rgb(227,73,2)" fill-opacity="0.3"></path>
<path d="M211.1 271l2.9 0l0 -130.2l-2.9 0Z" fill="rgb(227,73,2)" fill-opacity="0.3"></path>
<path d="M215.3 271l2.9 0l0 -125.5l-2.9 0Z" fill="rgb(227,73,2)" fill-opacity="0.3"></path>
<path d="M219.5 271l2.9 0l0 -122.8l-2.9 0Z" fill="rgb(227,73,2)" fill-opacity="0.3"></path>
<path d="M223.7 271l2.9 0l0 -119.6l-2.9 0Z" fill="rgb(227,73,2)" fill-opacity="0.3"></path>
<path d="M227.9 271l2.9 0l0 -116.3l-2.9 0Z" fill="rgb(227,73,2)" fill-opacity="0.3"></path>
<path d="M232.1 271l2.9 0l0 -114l-2.9 0Z" fill="rgb(227,73,2)" fill-opacity="0.3"></path>
<path d="M236.2 271l2.9 0l0 -110.1l-2.9 0Z" fill="rgb(227,73,2)" fill-opacity="0.3"></path>
<path d="M240.4 271l2.9 0l0 -107.2l-2.9 0Z" fill="rgb(227,73,2)" fill-opacity="0.3"></path>
<path d="M244.6 271l2.9 0l0 -103l-2.9 0Z" fill="rgb(227,73,2)" fill-opacity="0.3"></path>
<path d="M248.8 271l2.9 0l0 -100.7l-2.9 0Z" fill="rgb(227,73,2)" fill-opacity="0.3"></path>
<path d="M253 271l2.9 0l0 -99.1l-2.9 0Z" fill="rgb(227,73,2)" fill-opacity="0.3"></path>
<path d="M257.2 271l2.9 0l0 -97.9l-2.9 0Z" fill="rgb(227,73,2)" fill-opacity="0.3"></path>
<path d="M261.3 271l2.9 0l0 -96.2l-2.9 0Z" fill="rgb(227,73,2)" fill-opacity="0.3"></path>
<path d="M265.5 271l2.9 0l0 -95.1l-2.9 0Z" fill="rgb(227,73,2)" fill-opacity="0.3"></path>
<path d="M269.7 271l2.9 0l0 -91.7l-2.9 0Z" fill="rgb(227,73,2)" fill-opacity="0.3"></path>
<path d="M273.9 271l2.9 0l0 -90.1l-2.9 0Z" fill="rgb(227,73,2)" fill-opacity="0.3"></path>
<path d="M278.1 271l2.9 0l0 -87.7l-2.9 0Z" fill="rgb(227,73,2)" fill-opacity="0.3"></path>
<path d="M282.3 271l2.9 0l0 -86.4l-2.9 0Z" fill="rgb(227,73,2)" fill-opacity="0.3"></path>
<path d="M286.5 271l2.9 0l0 -85.1l-2.9 0Z" fill="rgb(227,73,2)" fill-opacity="0.3"></path>
<path d="M290.6 271l2.9 0l0 -82.6l-2.9 0Z" fill="rgb(227,73,2)" fill-opacity="0.3"></path>
<path d="M294.8 271l2.9 0l0 -80.8l-2.9 0Z" fill="rgb(227,73,2)" fill-opacity="0.3"></path>
<path d="M299 271l2.9 0l0 -79.3l-2.9 0Z" fill="rgb(227,73,2)" fill-opacity="0.3"></path>
<path d="M303.2 271l2.9 0l0 -77.8l-2.9 0Z" fill="rgb(227,73,2)" fill-opacity="0.3"></path>
<path d="M307.4 271l2.9 0l0 -77l-2.9 0Z" fill="rgb(227,73,2)" fill-opacity="0.3"></path>
<path d="M311.6 271l2.9 0l0 -75.9l-2.9 0Z" fill="rgb(227,73,2)" fill-opacity="0.3"></path>
<path d="M315.7 271l2.9 0l0 -74l-2.9 0Z" fill="rgb(227,73,2)" fill-opacity="0.3"></path>
<path d="M319.9 271l2.9 0l0 -73.2l-2.9 0Z" fill="rgb(227,73,2)" fill-opacity="0.3"></path>
<path d="M324.1 271l2.9 0l0 -71.9l-2.9 0Z" fill="rgb(227,73,2)" fill-opacity="0.3"></path>
<path d="M328.3 271l2.9 0l0 -71l-2.9 0Z" fill="rgb(227,73,2)" fill-opacity="0.3"></path>
<path d="M332.5 271l2.9 0l0 -69.6l-2.9 0Z" fill="rgb(227,73,2)" fill-opacity="0.3"></path>
<path d="M336.7 271l2.9 0l0 -68.2l-2.9 0Z" fill="rgb(227,73,2)" fill-opacity="0.3"></path>
<path d="M340.8 271l2.9 0l0 -66.5l-2.9 0Z" fill="rgb(227,73,2)" fill-opacity="0.3"></path>
<path d="M345 271l2.9 0l0 -64.4l-2.9 0Z" fill="rgb(227,73,2)" fill-opacity="0.3"></path>
<path d="M349.2 271l2.9 0l0 -62.3l-2.9 0Z" fill="rgb(227,73,2)" fill-opacity="0.3"></path>
<path d="M353.4 271l2.9 0l0 -61.5l-2.9 0Z" fill="rgb(227,73,2)" fill-opacity="0.3"></path>
<path d="M357.6 271l2.9 0l0 -59.2l-2.9 0Z" fill="rgb(227,73,2)" fill-opacity="0.3"></path>
<path d="M361.8 271l2.9 0l0 -57.1l-2.9 0Z" fill="rgb(227,73,2)" fill-opacity="0.3"></path>
<path d="M365.9 271l2.9 0l0 -55.4l-2.9 0Z" fill="rgb(227,73,2)" fill-opacity="0.3"></path>
<path d="M370.1 271l2.9 0l0 -53.9l-2.9 0Z" fill="rgb(227,73,2)" fill-opacity="0.3"></path>
<path d="M374.3 271l2.9 0l0 -52.9l-2.9 0Z" fill="rgb(227,73,2)" fill-opacity="0.3"></path>
<path d="M378.5 271l2.9 0l0 -50.9l-2.9 0Z" fill="rgb(227,73,2)" fill-opacity="0.3"></path>
<path d="M382.7 271l2.9 0l0 -49.5l-2.9 0Z" fill="rgb(227,73,2)" fill-opacity="0.3"></path>
<path d="M386.9 271l2.9 0l0 -48.5l-2.9 0Z" fill="rgb(227,73,2)" fill-opacity="0.3"></path>
<path d="M391.1 271l2.9 0l0 -47.2l-2.9 0Z" fill="rgb(227,73,2)" fill-opacity="0.3"></path>
<path d="M395.2 271l2.9 0l0 -46.3l-2.9 0Z" fill="rgb(227,73,2)" fill-opacity="0.3"></path>
<path d="M399.4 271l2.9 0l0 -44.9l-2.9 0Z" fill="rgb(227,73,2)" fill-opacity="0.3"></path>
<path d="M403.6 271l2.9 0l0 -42.8l-2.9 0Z" fill="rgb(227,73,2)" fill-opacity="0.3"></path>
<path d="M407.8 271l2.9 0l0 -41.5l-2.9 0Z" fill="rgb(227,73,2)" fill-opacity="0.3"></path>
<path d="M412 271l2.9 0l0 -40.5l-2.9 0Z" fill="rgb(227,73,2)" fill-opacity="0.3"></path>
<path d="M416.2 271l2.9 0l0 -38.9l-2.9 0Z" fill="rgb(227,73,2)" fill-opacity="0.3"></path>
<path d="M420.3 271l2.9 0l0 -37.8l-2.9 0Z" fill="rgb(227,73,2)" fill-opacity="0.3"></path>
<path d="M424.5 271l2.9 0l0 -36.7l-2.9 0Z" fill="rgb(227,73,2)" fill-opacity="0.3"></path>
<path d="M428.7 271l2.9 0l0 -35.9l-2.9 0Z" fill="rgb(227,73,2)" fill-opacity="0.3"></path>
<path d="M432.9 271l2.9 0l0 -34.5l-2.9 0Z" fill="rgb(227,73,2)" fill-opacity="0.3"></path>
<path d="M437.1 271l2.9 0l0 -33.3l-2.9 0Z" fill="rgb(227,73,2)" fill-opacity="0.3"></path>
<path d="M441.3 271l2.9 0l0 -32.1l-2.9 0Z" fill="rgb(227,73,2)" fill-opacity="0.3"></path>
<path d="M445.4 271l2.9 0l0 -30.2l-2.9 0Z" fill="rgb(227,73,2)" fill-opacity="0.3"></path>
<path d="M449.6 271l2.9 0l0 -28.6l-2.9 0Z" fill="rgb(227,73,2)" fill-opacity="0.3"></path>
<path d="M453.8 271l2.9 0l0 -27.8l-2.9 0Z" fill="rgb(227,73,2)" fill-opacity="0.3"></path>
<path d="M458 271l2.9 0l0 -26.5l-2.9 0Z" fill="rgb(227,73,2)" fill-opacity="0.3"></path>
<path d="M462.2 271l2.9 0l0 -26l-2.9 0Z" fill="rgb(227,73,2)" fill-opacity="0.3"></path>
<path d="M466.4 271l2.9 0l0 -25.6l-2.9 0Z" fill="rgb(227,73,2)" fill-opacity="0.3"></path>
<path d="M470.5 271l2.9 0l0 -24.8l-2.9 0Z" fill="rgb(227,73,2)" fill-opacity="0.3"></path>
<path d="M474.7 271l2.9 0l0 -24.2l-2.9 0Z" fill="rgb(227,73,2)" fill-opacity="0.3"></path>
<path d="M478.9 271l2.9 0l0 -23.7l-2.9 0Z" fill="rgb(227,73,2)" fill-opacity="0.3"></path>
<path d="M483.1 271l2.9 0l0 -23.2l-2.9 0Z" fill="rgb(227,73,2)" fill-opacity="0.3"></path>
<path d="M487.3 271l2.9 0l0 -22.3l-2.9 0Z" fill="rgb(227,73,2)" fill-opacity="0.3"></path>
<path d="M491.5 271l2.9 0l0 -20.9l-2.9 0Z" fill="rgb(227,73,2)" fill-opacity="0.3"></path>
<path d="M495.6 271l2.9 0l0 -20.5l-2.9 0Z" fill="rgb(227,73,2)" fill-opacity="0.3"></path>
<path d="M499.8 271l2.9 0l0 -19.6l-2.9 0Z" fill="rgb(227,73,2)" fill-opacity="0.3"></path>
<path d="M504 271l2.9 0l0 -18.8l-2.9 0Z" fill="rgb(227,73,2)" fill-opacity="0.3"></path>
<path d="M508.2 271l2.9 0l0 -18.2l-2.9 0Z" fill="rgb(227,73,2)" fill-opacity="0.3"></path>
<path d="M512.4 271l2.9 0l0 -17.6l-2.9 0Z" fill="rgb(227,73,2)" fill-opacity="0.3"></path>
<path d="M516.6 271l2.9 0l0 -17.4l-2.9 0Z" fill="rgb(227,73,2)" fill-opacity="0.3"></path>
<path d="M520.8 271l2.9 0l0 -16.7l-2.9 0Z" fill="rgb(227,73,2)" fill-opacity="0.3"></path>
<path d="M524.9 271l2.9 0l0 -16.2l-2.9 0Z" fill="rgb(227,73,2)" fill-opacity="0.3"></path>
<path d="M529.1 271l2.9 0l0 -15.9l-2.9 0Z" fill="rgb(227,73,2)" fill-opacity="0.3"></path>
<path d="M533.3 271l2.9 0l0 -15.3l-2.9 0Z" fill="rgb(227,73,2)" fill-opacity="0.3"></path>
<path d="M537.5 271l2.9 0l0 -14.4l-2.9 0Z" fill="rgb(227,73,2)" fill-opacity="0.3"></path>
<path d="M541.7 271l2.9 0l0 -13.6l-2.9 0Z" fill="rgb(227,73,2)" fill-opacity="0.8"></path>
<path d="M545.9 271l2.9 0l0 -13.2l-2.9 0Z" fill="rgb(227,73,2)" fill-opacity="0.3"></path>
<path d="M550 271l2.9 0l0 -13.1l-2.9 0Z" fill="rgb(227,73,2)" fill-opacity="0.3"></path>
<path d="M554.2 271l2.9 0l0 -12.4l-2.9 0Z" fill="rgb(227,73,2)" fill-opacity="0.3"></path>
<path d="M558.4 271l2.9 0l0 -12.4l-2.9 0Z" fill="rgb(227,73,2)" fill-opacity="0.3"></path>
<path d="M562.6 271l2.9 0l0 -12l-2.9 0Z" fill="rgb(227,73,2)" fill-opacity="0.3"></path>
<path d="M566.8 271l2.9 0l0 -11.8l-2.9 0Z" fill="rgb(227,73,2)" fill-opacity="0.3"></path>
<path d="M571 271l2.9 0l0 -11.7l-2.9 0Z" fill="rgb(227,73,2)" fill-opacity="0.3"></path>
<path d="M575.1 271l2.9 0l0 -11.4l-2.9 0Z" fill="rgb(227,73,2)" fill-opacity="0.3"></path>
<path d="M579.3 271l2.9 0l0 -11.2l-2.9 0Z" fill="rgb(227,73,2)" fill-opacity="0.3"></path>
<path d="M583.5 271l2.9 0l0 -11l-2.9 0Z" fill="rgb(227,73,2)" fill-opacity="0.3"></path>
<path d="M587.7 271l2.9 0l0 -10.6l-2.9 0Z" fill="rgb(227,73,2)" fill-opacity="0.3"></path>
<path d="M591.9 271l2.9 0l0 -10.5l-2.9 0Z" fill="rgb(227,73,2)" fill-opacity="0.3"></path>
<path d="M596.1 271l2.9 0l0 -9.9l-2.9 0Z" fill="rgb(227,73,2)" fill-opacity="0.3"></path>
<path d="M600.2 271l2.9 0l0 -9.1l-2.9 0Z" fill="rgb(227,73,2)" fill-opacity="0.3"></path>
<path d="M604.4 271l2.9 0l0 -8.8l-2.9 0Z" fill="rgb(227,73,2)" fill-opacity="0.3"></path>
<path d="M608.6 271l2.9 0l0 -8.6l-2.9 0Z" fill="rgb(227,73,2)" fill-opacity="0.3"></path>
<path d="M612.8 271l2.9 0l0 -8.1l-2.9 0Z" fill="rgb(227,73,2)" fill-opacity="0.3"></path>
<path d="M617 271l2.9 0l0 -7.9l-2.9 0Z" fill="rgb(227,73,2)" fill-opacity="0.3"></path>
<path d="M621.2 271l2.9 0l0 -7.4l-2.9 0Z" fill="rgb(227,73,2)" fill-opacity="0.3"></path>
<path d="M625.4 271l2.9 0l0 -7.2l-2.9 0Z" fill="rgb(227,73,2)" fill-opacity="0.3"></path>
<path d="M629.5 271l2.9 0l0 -6.8l-2.9 0Z" fill="rgb(227,73,2)" fill-opacity="0.3"></path>
<path d="M633.7 271l2.9 0l0 -6.2l-2.9 0Z" fill="rgb(227,73,2)" fill-opacity="0.3"></path>
<path d="M637.9 271l2.9 0l0 -6l-2.9 0Z" fill="rgb(227,73,2)" fill-opacity="0.3"></path>
<path d="M642.1 271l2.9 0l0 -5.8l-2.9 0Z" fill="rgb(227,73,2)" fill-opacity="0.3"></path>
<path d="M646.3 271l2.9 0l0 -5.6l-2.9 0Z" fill="rgb(227,73,2)" fill-opacity="0.3"></path>
<path d="M650.5 271l2.9 0l0 -5.2l-2.9 0Z" fill="rgb(227,73,2)" fill-opacity="0.3"></path>
<path d="M654.6 271l2.9 0l0 -4.9l-2.9 0Z" fill="rgb(227,73,2)" fill-opacity="0.3"></path>
<path d="M658.8 271l2.9 0l0 -4.8l-2.9 0Z" fill="rgb(227,73,2)" fill-opacity="0.3"></path>
<path d="M663 271l2.9 0l0 -4.8l-2.9 0Z" fill="rgb(227,73,2)" fill-opacity="0.3"></path>
<path d="M667.2 271l2.9 0l0 -4.6l-2.9 0Z" fill="rgb(227,73,2)" fill-opacity="0.3"></path>
<path d="M671.4 271l2.9 0l0 -4.6l-2.9 0Z" fill="rgb(227,73,2)" fill-opacity="0.3"></path>
<path d="M675.6 271l2.9 0l0 -4.4l-2.9 0Z" fill="rgb(227,73,2)" fill-opacity="0.3"></path>
<path d="M679.7 271l2.9 0l0 -4.4l-2.9 0Z" fill="rgb(227,73,2)" fill-opacity="0.3"></path>
<path d="M683.9 271l2.9 0l0 -4.4l-2.9 0Z" fill="rgb(227,73,2)" fill-opacity="0.3"></path>
<path d="M688.1 271l2.9 0l0 -4.3l-2.9 0Z" fill="rgb(227,73,2)" fill-opacity="0.3"></path>
<path d="M692.3 271l2.9 0l0 -4.3l-2.9 0Z" fill="rgb(227,73,2)" fill-opacity="0.3"></path>
<path d="M696.5 271l2.9 0l0 -4.3l-2.9 0Z" fill="rgb(227,73,2)" fill-opacity="0.3"></path>
<path d="M700.7 271l2.9 0l0 -4.3l-2.9 0Z" fill="rgb(227,73,2)" fill-opacity="0.3"></path>
<path d="M704.8 271l2.9 0l0 -4.2l-2.9 0Z" fill="rgb(227,73,2)" fill-opacity="0.3"></path>
<path d="M709 271l2.9 0l0 -4.2l-2.9 0Z" fill="rgb(227,73,2)" fill-opacity="0.3"></path>
<path d="M713.2 271l2.9 0l0 -3.7l-2.9 0Z" fill="rgb(227,73,2)" fill-opacity="0.3"></path>
<path d="M717.4 271l2.9 0l0 -3.7l-2.9 0Z" fill="rgb(227,73,2)" fill-opacity="0.3"></path>
<path d="M721.6 271l2.9 0l0 -3.6l-2.9 0Z" fill="rgb(227,73,2)" fill-opacity="0.3"></path>
<path d="M725.8 271l2.9 0l0 -3.6l-2.9 0Z" fill="rgb(227,73,2)" fill-opacity="0.3"></path>
<path d="M729.9 271l2.9 0l0 -3.5l-2.9 0Z" fill="rgb(227,73,2)" fill-opacity="0.3"></path>
<path d="M734.1 271l2.9 0l0 -3.5l-2.9 0Z" fill="rgb(227,73,2)" fill-opacity="0.3"></path>
<path d="M738.3 271l2.9 0l0 -3.5l-2.9 0Z" fill="rgb(227,73,2)" fill-opacity="0.3"></path>
<path d="M742.5 271l2.9 0l0 -2.6l-2.9 0Z" fill="rgb(227,73,2)" fill-opacity="0.3"></path>
<path d="M746.7 271l2.9 0l0 -2.1l-2.9 0Z" fill="rgb(227,73,2)" fill-opacity="0.3"></path>
<path d="M750.9 271l2.9 0l0 -2.1l-2.9 0Z" fill="rgb(227,73,2)" fill-opacity="0.3"></path>
<path d="M755.1 271l2.9 0l0 -1.9l-2.9 0Z" fill="rgb(227,73,2)" fill-opacity="0.3"></path>
<path d="M759.2 271l2.9 0l0 -1.9l-2.9 0Z" fill="rgb(227,73,2)" fill-opacity="0.3"></path>
<path d="M763.4 271l2.9 0l0 -1.9l-2.9 0Z" fill="rgb(227,73,2)" fill-opacity="0.3"></path>
<path d="M767.6 271l2.9 0l0 -1.9l-2.9 0Z" fill="rgb(227,73,2)" fill-opacity="0.3"></path>
<path d="M771.8 271l2.9 0l0 -1.5l-2.9 0Z" fill="rgb(227,73,2)" fill-opacity="0.3"></path>
<path d="M776 271l2.9 0l0 -1.4l-2.9 0Z" fill="rgb(227,73,2)" fill-opacity="0.3"></path>
<path d="M780.2 271l2.9 0l0 -1.4l-2.9 0Z" fill="rgb(227,73,2)" fill-opacity="0.3"></path>
<path d="M784.3 271l2.9 0l0 -1.4l-2.9 0Z" fill="rgb(227,73,2)" fill-opacity="0.3"></path>
<path d="M788.5 271l2.9 0l0 -1.4l-2.9 0Z" fill="rgb(227,73,2)" fill-opacity="0.3"></path>
<path d="M792.7 271l2.9 0l0 -1l-2.9 0Z" fill="rgb(227,73,2)" fill-opacity="0.3"></path>
<path d="M796.9 271l2.9 0l0 -1l-2.9 0Z" fill="rgb(227,73,2)" fill-opacity="0.3"></path>
<path d="M801.1 271l2.9 0l0 -1l-2.9 0Z" fill="rgb(227,73,2)" fill-opacity="0.3"></path>
<path d="M805.3 271l2.9 0l0 -0.7l-2.9 0Z" fill="rgb(227,73,2)" fill-opacity="0.3"></path>
<path d="M809.4 271l2.9 0l0 -0.6l-2.9 0Z" fill="rgb(227,73,2)" fill-opacity="0.3"></path>
<path d="M813.6 271l2.9 0l0 -0.6l-2.9 0Z" fill="rgb(227,73,2)" fill-opacity="0.3"></path>
<path d="M817.8 271l2.9 0l0 -0.6l-2.9 0Z" fill="rgb(227,73,2)" fill-opacity="0.3"></path>
<path d="M822 271l2.9 0l0 -0.5l-2.9 0Z" fill="rgb(227,73,2)" fill-opacity="0.3"></path>
<path d="M826.2 271l2.9 0l0 -0.5l-2.9 0Z" fill="rgb(227,73,2)" fill-opacity="0.3"></path>
<path d="M830.4 271l2.9 0l0 -0.5l-2.9 0Z" fill="rgb(227,73,2)" fill-opacity="0.3"></path>
<path d="M834.5 271l2.9 0l0 -0.5l-2.9 0Z" fill="rgb(227,73,2)" fill-opacity="0.3"></path>
<path d="M838.7 271l2.9 0l0 -0.5l-2.9 0Z" fill="rgb(227,73,2)" fill-opacity="0.3"></path>
<path d="M842.9 271l2.9 0l0 -0.4l-2.9 0Z" fill="rgb(227,73,2)" fill-opacity="0.3"></path>
<path d="M847.1 271l2.9 0l0 -0.4l-2.9 0Z" fill="rgb(227,73,2)" fill-opacity="0.3"></path>
<path d="M851.3 271l2.9 0l0 -0.2l-2.9 0Z" fill="rgb(227,73,2)" fill-opacity="0.3"></path>
<path d="M855.5 271l2.9 0l0 -0.2l-2.9 0Z" fill="rgb(227,73,2)" fill-opacity="0.3"></path>
<path d="M859.6 271l2.9 0l0 -0.2l-2.9 0Z" fill="rgb(227,73,2)" fill-opacity="0.3"></path>
<path d="M863.8 271l2.9 0l0 -0.2l-2.9 0Z" fill="rgb(227,73,2)" fill-opacity="0.3"></path>
<path d="M868 271l2.9 0l0 -0.2l-2.9 0Z" fill="rgb(227,73,2)" fill-opacity="0.3"></path>
<path d="M872.2 271l2.9 0l0 -0.1l-2.9 0Z" fill="rgb(227,73,2)" fill-opacity="0.3"></path>
<path d="M876.4 271l2.9 0l0 -0.1l-2.9 0Z" fill="rgb(227,73,2)" fill-opacity="0.3"></path>
<path d="M880.6 271l2.9 0l0 -0.1l-2.9 0Z" fill="rgb(227,73,2)" fill-opacity="0.3"></path>
<path d="M884.8 271l2.9 0l0 -0.1l-2.9 0Z" fill="rgb(227,73,2)" fill-opacity="0.3"></path>
<path d="M888.9 271l2.9 0l0 -0.1l-2.9 0Z" fill="rgb(227,73,2)" fill-opacity="0.3"></path>
<path d="M893.1 271l2.9 0l0 -0.1l-2.9 0Z" fill="rgb(227,73,2)" fill-opacity="0.3"></path>
<path d="M897.3 271l2.9 0l0 -0.1l-2.9 0Z" fill="rgb(227,73,2)" fill-opacity="0.3"></path>
<path d="M901.5 271l2.9 0l0 -0.1l-2.9 0Z" fill="rgb(227,73,2)" fill-opacity="0.3"></path>
<path d="M905.7 271l2.9 0l0 -0.1l-2.9 0Z" fill="rgb(227,73,2)" fill-opacity="0.3"></path>
<path d="M909.9 271l2.9 0l0 -0.1l-2.9 0Z" fill="rgb(227,73,2)" fill-opacity="0.3"></path>
<path d="M914 271l2.9 0l0 -0.1l-2.9 0Z" fill="rgb(227,73,2)" fill-opacity="0.3"></path>
<path d="M918.2 271l2.9 0l0 -0.1l-2.9 0Z" fill="rgb(227,73,2)" fill-opacity="0.3"></path>
<path d="M-5 -5l226.9 0l0 24l-226.9 0Z" transform="translate(391.54 5)" fill="rgb(0,0,0)" fill-opacity="0" stroke="#ccc" stroke-width="0"></path>
<path d="M3.5 0L21.5 0A3.5 3.5 0 0 1 25 3.5L25 10.5A3.5 3.5 0 0 1 21.5 14L3.5 14A3.5 3.5 0 0 1 0 10.5L0 3.5A3.5 3.5 0 0 1 3.5 0" transform="translate(391.54 5)" fill="rgb(227,73,2)" fill-opacity="0.3"></path>
<text dominant-baseline="central" text-anchor="start" style="font-size:12px;font-family:sans-serif;" xml:space="preserve" x="30" y="7" transform="translate(391.54 5)" fill="#333">Times completed</text>
<path d="M0 7L25 7" transform="translate(524.1 5)" fill="#000" stroke="#E34902" stroke-width="2" stroke-linecap="butt" stroke-miterlimit="10"></path>
<path d="M18.1 7A5.6 5.6 0 1 1 18.1 6.4A5.6 5.6 0 0 1 18.1 7" transform="translate(524.1 5)" fill="#fff" stroke="#E34902" stroke-width="2" stroke-linecap="butt" stroke-miterlimit="10"></path>
<text dominant-baseline="central" text-anchor="start" style="font-size:12px;font-family:sans-serif;" x="30" y="7" transform="translate(524.1 5)" fill="#333">Eddington</text>
<path d="M-0.54 -0.89A0.6 0.6 0 1 1 0.54 -0.89C0.39 -0.56 0 -0.42 0 0C0 -0.42 -0.39 -0.56 -0.54 -0.89Z" transform="matrix(25,0,0,25,543.1151,252.5294)" fill="rgb(227,73,2)" fill-opacity="0.8"></path>
<text dominant-baseline="central" text-anchor="middle" style="font-size:12px;font-family:sans-serif;" transform="translate(543.1151 226.3865)" fill="#eee" stroke="rgb(227,73,2)" stroke-width="2" paint-order="stroke" stroke-opacity="0.8" stroke-miterlimit="2">114</text>
<g clip-path="url(#zr0-c0)">
<path d="M70.3 270.9L74.5 270.8L78.7 270.6L82.9 270.5L87.1 270.4L91.3 270.3L95.4 270.2L99.6 270L103.8 269.9L108 269.8L112.2 269.7L116.4 269.6L120.5 269.5L124.7 269.3L128.9 269.2L133.1 269.1L137.3 269L141.5 268.9L145.6 268.7L149.8 268.6L154 268.5L158.2 268.4L162.4 268.3L166.6 268.1L170.7 268L174.9 267.9L179.1 267.8L183.3 267.7L187.5 267.5L191.7 267.4L195.8 267.3L200 267.2L204.2 267.1L208.4 266.9L212.6 266.8L216.8 266.7L221 266.6L225.1 266.5L229.3 266.4L233.5 266.2L237.7 266.1L241.9 266L246.1 265.9L250.2 265.8L254.4 265.6L258.6 265.5L262.8 265.4L267 265.3L271.2 265.2L275.3 265L279.5 264.9L283.7 264.8L287.9 264.7L292.1 264.6L296.3 264.4L300.4 264.3L304.6 264.2L308.8 264.1L313 264L317.2 263.8L321.4 263.7L325.6 263.6L329.7 263.5L333.9 263.4L338.1 263.3L342.3 263.1L346.5 263L350.7 262.9L354.8 262.8L359 262.7L363.2 262.5L367.4 262.4L371.6 262.3L375.8 262.2L379.9 262.1L384.1 261.9L388.3 261.8L392.5 261.7L396.7 261.6L400.9 261.5L405 261.3L409.2 261.2L413.4 261.1L417.6 261L421.8 260.9L426 260.7L430.1 260.6L434.3 260.5L438.5 260.4L442.7 260.3L446.9 260.2L451.1 260L455.3 259.9L459.4 259.8L463.6 259.7L467.8 259.6L472 259.4L476.2 259.3L480.4 259.2L484.5 259.1L488.7 259L492.9 258.8L497.1 258.7L501.3 258.6L505.5 258.5L509.6 258.4L513.8 258.2L518 258.1L522.2 258L526.4 257.9L530.6 257.8L534.7 257.6L538.9 257.5L543.1 257.4L547.3 257.3L551.5 257.2L555.7 257.1L559.9 256.9L564 256.8L568.2 256.7L572.4 256.6L576.6 256.5L580.8 256.3L585 256.2L589.1 256.1L593.3 256L597.5 255.9L601.7 255.7L605.9 255.6L610.1 255.5L614.2 255.4L618.4 255.3L622.6 255.1L626.8 255L631 254.9L635.2 254.8L639.3 254.7L643.5 254.5L647.7 254.4L651.9 254.3L656.1 254.2L660.3 254.1L664.4 254L668.6 253.8L672.8 253.7L677 253.6L681.2 253.5L685.4 253.4L689.6 253.2L693.7 253.1L697.9 253L702.1 252.9L706.3 252.8L710.5 252.6L714.7 252.5L718.8 252.4L723 252.3L727.2 252.2L731.4 252L735.6 251.9L739.8 251.8L743.9 251.7L748.1 251.6L752.3 251.4L756.5 251.3L760.7 251.2L764.9 251.1L769 251L773.2 250.9L777.4 250.7L781.6 250.6L785.8 250.5L790 250.4L794.2 250.3L798.3 250.1L802.5 250L806.7 249.9L810.9 249.8L815.1 249.7L819.3 249.5L823.4 249.4L827.6 249.3L831.8 249.2L836 249.1L840.2 248.9L844.4 248.8L848.5 248.7L852.7 248.6L856.9 248.5L861.1 248.4L865.3 248.2L869.5 248.1L873.6 248L877.8 247.9L882 247.8L886.2 247.6L890.4 247.5L894.6 247.4L898.7 247.3L902.9 247.2L907.1 247L911.3 246.9L915.5 246.8L919.7 246.7" fill="none" stroke="#E34902" stroke-width="2" stroke-linejoin="bevel"></path>
</g>
<defs >
<clipPath id="zr0-c0">
<path d="M67 59l856 0l0 213l-856 0Z" fill="#000"></path>
</clipPath>
</defs>
</svg>