<svg width="1000" height="300" xmlns="http://www.w3.org/2000/svg" xmlns:xlink="http://www.w3.org/1999/xlink" version="1.1" baseProfile="full" viewBox="0 0 1000 300">
<rect width="1000" height="300" x="0" y="0" id="0" fill="#ffffff"></rect>
<polyline points="543.6 46.3 549.5 32.5 564.5 32.5" fill="none" stroke="#5470c6"></polyline>
<polyline points="604.8 109 618.7 103.6 633.7 103.6" fill="none" stroke="#91cc75"></polyline>
<polyline points="601 199.6 614.4 206.2 629.4 206.2" fill="none" stroke="#fac858"></polyline>
<polyline points="533 257.5 537.4 271.9 552.4 271.9" fill="none" stroke="#ee6666"></polyline>
<polyline points="447.8 249.6 440.8 262.9 425.8 262.9" fill="none" stroke="#73c0de"></polyline>
<polyline points="388.9 167.5 374 169.8 359 169.8" fill="none" stroke="#3ba272"></polyline>
<polyline points="437.1 56.8 428.7 44.3 413.7 44.3" fill="none" stroke="#fc8452"></polyline>
<path d="M500 37.5A112.5 112.5 0 0 1 580.4 71.3L500 150Z" fill="#5470c6" stroke="#fff" stroke-width="2" stroke-linejoin="round"></path>
<path d="M580.4 71.3A112.5 112.5 0 0 1 612.5 153.2L500 150Z" fill="#91cc75" stroke="#fff" stroke-width="2" stroke-linejoin="round"></path>
<path d="M612.5 153.2A112.5 112.5 0 0 1 571.3 237L500 150Z" fill="#fac858" stroke="#fff" stroke-width="2" stroke-linejoin="round"></path>
<path d="M571.3 237A112.5 112.5 0 0 1 489.9 262L500 150Z" fill="#ee6666" stroke="#fff" stroke-width="2" stroke-linejoin="round"></path>
<path d="M489.9 262A112.5 112.5 0 0 1 413.6 222.1L500 150Z" fill="#73c0de" stroke="#fff" stroke-width="2" stroke-linejoin="round"></path>
<path d="M413.6 222.1A112.5 112.5 0 0 1 395.7 107.9L500 150Z" fill="#3ba272" stroke="#fff" stroke-width="2" stroke-linejoin="round"></path>
<path d="M395.7 107.9A112.5 112.5 0 0 1 500 37.5L500 150Z" fill="#fc8452" stroke="#fff" stroke-width="2" stroke-linejoin="round"></path>
<path d="M0 -15l42.8 0l0 30l-42.8 0Z" transform="translate(569.4528 32.4812)" fill="none"></path>
<text dominant-baseline="central" text-anchor="start" style="font-size:12px;font-family:sans-serif;font-weight:bold;" y="-7.5" transform="translate(569.4528 32.4812)" fill="#333" stroke="rgb(255,255,255)" stroke-width="2" paint-order="stroke" stroke-miterlimit="2">Monday</text>
<text dominant-baseline="central" text-anchor="start" style="font-size:12px;font-family:sans-serif;" y="7.5" transform="translate(569.4528 32.4812)" fill="#333" stroke="rgb(255,255,255)" stroke-width="2" paint-order="stroke" stroke-miterlimit="2">12.68%</text>
<path d="M0 -15l46.2 0l0 30l-46.2 0Z" transform="translate(638.7462 103.5717)" fill="none"></path>
<text dominant-baseline="central" text-anchor="start" style="font-size:12px;font-family:sans-serif;font-weight:bold;" y="-7.5" transform="translate(638.7462 103.5717)" fill="#333" stroke="rgb(255,255,255)" stroke-width="2" paint-order="stroke" stroke-miterlimit="2">Tuesday</text>
<text dominant-baseline="central" text-anchor="start" style="font-size:12px;font-family:sans-serif;" y="7.5" transform="translate(638.7462 103.5717)" fill="#333" stroke="rgb(255,255,255)" stroke-width="2" paint-order="stroke" stroke-miterlimit="2">12.78%</text>
<path d="M0 -15l63.6 0l0 30l-63.6 0Z" transform="translate(634.4393 206.2129)" fill="none"></path>
<text dominant-baseline="central" text-anchor="start" style="font-size:12px;font-family:sans-serif;font-weight:bold;" y="-7.5" transform="translate(634.4393 206.2129)" fill="#333" stroke="rgb(255,255,255)" stroke-width="2" paint-order="stroke" stroke-miterlimit="2">Wednesday</text>
<text dominant-baseline="central" text-anchor="start" style="font-size:12px;font-family:sans-serif;" y="7.5" transform="translate(634.4393 206.2129)" fill="#333" stroke="rgb(255,255,255)" stroke-width="2" paint-order="stroke" stroke-miterlimit="2">13.62%</text>
<path d="M0 -15l50.2 0l0 30l-50.2 0Z" transform="translate(557.4482 271.8765)" fill="none"></path>
<text dominant-baseline="central" text-anchor="start" style="font-size:12px;font-family:sans-serif;font-weight:bold;" y="-7.5" transform="translate(557.4482 271.8765)" fill="#333" stroke="rgb(255,255,255)" stroke-width="2" paint-order="stroke" stroke-miterlimit="2">Thursday</text>
<text dominant-baseline="central" text-anchor="start" style="font-size:12px;font-family:sans-serif;" y="7.5" transform="translate(557.4482 271.8765)" fill="#333" stroke="rgb(255,255,255)" stroke-width="2" paint-order="stroke" stroke-miterlimit="2">12.36%</text>
<path d="M-34.2 -15l34.2 0l0 30l-34.2 0Z" transform="translate(420.8051 262.9257)" fill="none"></path>
<text dominant-baseline="central" text-anchor="end" style="font-size:12px;font-family:sans-serif;font-weight:bold;" y="-7.5" transform="translate(420.8051 262.9257)" fill="#333" stroke="rgb(255,255,255)" stroke-width="2" paint-order="stroke" stroke-miterlimit="2">Friday</text>
<text dominant-baseline="central" text-anchor="end" style="font-size:12px;font-family:sans-serif;" y="7.5" transform="translate(420.8051 262.9257)" fill="#333" stroke="rgb(255,255,255)" stroke-width="2" paint-order="stroke" stroke-miterlimit="2">12.5%</text>
<path d="M-48.2 -15l48.2 0l0 30l-48.2 0Z" transform="translate(354.0476 169.805)" fill="none"></path>
<text dominant-baseline="central" text-anchor="end" style="font-size:12px;font-family:sans-serif;font-weight:bold;" y="-7.5" transform="translate(354.0476 169.805)" fill="#333" stroke="rgb(255,255,255)" stroke-width="2" paint-order="stroke" stroke-miterlimit="2">Saturday</text>
<text dominant-baseline="central" text-anchor="end" style="font-size:12px;font-family:sans-serif;" y="7.5" transform="translate(354.0476 169.805)" fill="#333" stroke="rgb(255,255,255)" stroke-width="2" paint-order="stroke" stroke-miterlimit="2">17.17%</text>
<path d="M-40.9 -15l40.9 0l0 30l-40.9 0Z" transform="translate(408.6723 44.3184)" fill="none"></path>
<text dominant-baseline="central" text-anchor="end" style="font-size:12px;font-family:sans-serif;font-weight:bold;" y="-7.5" transform="translate(408.6723 44.3184)" fill="#333" stroke="rgb(255,255,255)" stroke-width="2" paint-order="stroke" stroke-miterlimit="2">Sunday</text>
<text dominant-baseline="central" text-anchor="end" style="font-size:12px;font-family:sans-serif;" y="7.5" transform="translate(408.6723 44.3184)" fill="#333" stroke="rgb(255,255,255)" stroke-width="2" paint-order="stroke" stroke-miterlimit="2">18.89%</text>
</svg>